STARTFONT 2.1
FONT -Adobe-New Century Schoolbook-Bold-I-Normal--34-240-100-100-P-193-ISO10646-1
SIZE 24 100 100
FONTBOUNDINGBOX 45 55 -7 -16
COMMENT $Xorg: $
COMMENT ISO10646-1 extension by Markus Kuhn <mkuhn@acm.org>, 2001-03-20
COMMENT 
COMMENT +
COMMENT  Copyright 1984-1989, 1994 Adobe Systems Incorporated.
COMMENT  Copyright 1988, 1994 Digital Equipment Corporation.
COMMENT
COMMENT  Adobe is a trademark of Adobe Systems Incorporated which may be
COMMENT  registered in certain jurisdictions.
COMMENT  Permission to use these trademarks is hereby granted only in
COMMENT  association with the images described in this file.
COMMENT
COMMENT  Permission to use, copy, modify, distribute and sell this software
COMMENT  and its documentation for any purpose and without fee is hereby
COMMENT  granted, provided that the above copyright notices appear in all
COMMENT  copies and that both those copyright notices and this permission
COMMENT  notice appear in supporting documentation, and that the names of
COMMENT  Adobe Systems and Digital Equipment Corporation not be used in
COMMENT  advertising or publicity pertaining to distribution of the software
COMMENT  without specific, written prior permission.  Adobe Systems and
COMMENT  Digital Equipment Corporation make no representations about the
COMMENT  suitability of this software for any purpose.  It is provided "as
COMMENT  is" without express or implied warranty.
COMMENT -
STARTPROPERTIES 26
FOUNDRY "Adobe"
FAMILY_NAME "New Century Schoolbook"
WEIGHT_NAME "Bold"
SLANT "I"
SETWIDTH_NAME "Normal"
ADD_STYLE_NAME ""
PIXEL_SIZE 34
POINT_SIZE 240
RESOLUTION_X 100
RESOLUTION_Y 100
SPACING "P"
AVERAGE_WIDTH 193
CHARSET_REGISTRY "ISO10646"
CHARSET_ENCODING "1"
CAP_HEIGHT 25
X_HEIGHT 16
FONT_ASCENT 29
FONT_DESCENT 7
FACE_NAME "New Century Schoolbook Bold Italic"
COPYRIGHT "Copyright (c) 1984, 1987 Adobe Systems Incorporated. All Rights Reserved. Copyright (c) 1988, 1991 Digital Equipment Corporation. All Rights Reserved."

STARTCHAR char0
ENCODING 0
SWIDTH 870 0
DWIDTH 29 0
BBX 31 25 -1 0
BITMAP
AAAAAAAA
00000000
80000002
00000000
80000002
00000000
80000002
00000000
80000002
00000000
80000002
00000000
80000002
00000000
80000002
00000000
80000002
00000000
80000002
00000000
80000002
00000000
80000002
00000000
AAAAAAAA
ENDCHAR
STARTCHAR space
ENCODING 32
SWIDTH 287 0
DWIDTH 10 0
BBX 1 1 1 0
BITMAP
00
ENDCHAR
STARTCHAR exclam
ENCODING 33
SWIDTH 333 0
DWIDTH 11 0
BBX 11 25 0 0
BITMAP
03C0
07E0
07E0
07E0
07E0
07C0
07C0
0F80
0F80
0F00
0F00
0E00
0E00
1E00
1C00
1C00
1800
1800
0000
0000
7000
F800
F800
F800
7000
ENDCHAR
STARTCHAR quotedbl
ENCODING 34
SWIDTH 400 0
DWIDTH 13 0
BBX 13 11 1 14
BITMAP
3870
7CF8
7CF8
7CF8
78F0
78F0
F1E0
E1C0
E1C0
C180
C180
ENDCHAR
STARTCHAR numbersign
ENCODING 35
SWIDTH 606 0
DWIDTH 19 0
BBX 16 23 2 0
BITMAP
071C
071C
071C
071C
0618
0618
0618
7FFF
7FFF
0E38
0E38
0C30
0C30
FFFE
FFFE
1C70
1C70
1870
1860
1860
3860
38E0
38E0
ENDCHAR
STARTCHAR dollar
ENCODING 36
SWIDTH 574 0
DWIDTH 19 0
BBX 19 30 0 -4
BITMAP
000600
000C00
000C00
007E00
03FF80
0799C0
0F18E0
0E1BE0
1E33E0
1E33E0
1F33C0
1FF000
0FF000
0FFC00
07FE00
01FF00
00FF80
30DF80
78CF80
F98780
F98780
F18700
E30F00
731E00
1FF800
07C000
060000
060000
060000
040000
ENDCHAR
STARTCHAR percent
ENCODING 37
SWIDTH 889 0
DWIDTH 29 0
BBX 26 25 2 -1
BITMAP
00001800
03C03800
0F607000
1E3FE000
3C1E6000
7C10C000
7810C000
F8118000
F8310000
F0230000
F0660000
F0C60000
798C0F00
3F083D80
001878C0
0030F040
0031F040
0061E040
0063E0C0
00C3C080
0183C180
0183C300
0301E600
0300FC00
02000000
ENDCHAR
STARTCHAR ampersand
ENCODING 38
SWIDTH 889 0
DWIDTH 30 0
BBX 26 25 1 0
BITMAP
000F8000
003FE000
007CF000
00F87800
00F87800
00F87800
00F87800
00F8F000
00F9E000
00FFC000
00FF0000
01FC0000
07FC7FC0
0F7E7FC0
3E7E0F00
7C7E0E00
7C3F1C00
FC3F3800
FC1FF000
FC1FE000
FE0FC0C0
7F07E180
3FFFFF80
1FF9FE00
07C07800
ENDCHAR
STARTCHAR quotesingle
ENCODING 39
SWIDTH 287 0
DWIDTH 10 0
BBX 6 11 3 14
BITMAP
38
7C
7C
7C
78
78
F0
E0
E0
C0
C0
ENDCHAR
STARTCHAR parenleft
ENCODING 40
SWIDTH 407 0
DWIDTH 14 0
BBX 13 28 4 -4
BITMAP
0018
0070
01E0
0380
0780
0F00
0E00
1E00
3C00
3C00
7C00
7800
7800
F800
F800
F000
F000
F000
F000
7000
7000
7000
7000
3000
3800
1800
0C00
0C00
ENDCHAR
STARTCHAR parenright
ENCODING 41
SWIDTH 407 0
DWIDTH 14 0
BBX 12 28 -2 -4
BITMAP
0300
0300
0180
01C0
00C0
00E0
00E0
00E0
00F0
00F0
00F0
00F0
00F0
01F0
01F0
01E0
01E0
03E0
03C0
03C0
0780
0780
0F00
1E00
1C00
7800
E000
8000
ENDCHAR
STARTCHAR asterisk
ENCODING 42
SWIDTH 500 0
DWIDTH 17 0
BBX 15 15 1 9
BITMAP
00C0
01E0
39E0
3DC0
3DCC
1FBE
07FE
7FFC
FFC0
FBF0
6778
0778
0F38
0F00
0600
ENDCHAR
STARTCHAR plus
ENCODING 43
SWIDTH 606 0
DWIDTH 20 0
BBX 17 17 1 0
BITMAP
01C000
01C000
01C000
01C000
01C000
01C000
01C000
FFFF80
FFFF80
FFFF80
01C000
01C000
01C000
01C000
01C000
01C000
01C000
ENDCHAR
STARTCHAR comma
ENCODING 44
SWIDTH 287 0
DWIDTH 9 0
BBX 8 12 -2 -6
BITMAP
0E
1F
3F
3F
3F
1E
06
0C
18
30
60
C0
ENDCHAR
STARTCHAR hyphen
ENCODING 45
SWIDTH 333 0
DWIDTH 11 0
BBX 9 4 0 6
BITMAP
7F80
7F80
FF00
FF00
ENDCHAR
STARTCHAR period
ENCODING 46
SWIDTH 287 0
DWIDTH 9 0
BBX 6 5 0 0
BITMAP
78
FC
FC
FC
78
ENDCHAR
STARTCHAR slash
ENCODING 47
SWIDTH 278 0
DWIDTH 9 0
BBX 11 25 -1 0
BITMAP
00E0
01C0
01C0
01C0
0380
0380
0380
0700
0700
0700
0E00
0E00
0E00
1C00
1C00
1C00
3800
3800
3800
7000
7000
7000
E000
E000
E000
ENDCHAR
STARTCHAR zero
ENCODING 48
SWIDTH 574 0
DWIDTH 19 0
BBX 18 24 1 0
BITMAP
007800
01FE00
03CF00
078780
0F0780
1F07C0
3F07C0
3E07C0
7E07C0
7E0FC0
7E0FC0
7C0FC0
FC0FC0
FC0F80
FC1F80
FC1F80
F81F00
F83F00
F83E00
783C00
787C00
3CF800
1FE000
078000
ENDCHAR
STARTCHAR one
ENCODING 49
SWIDTH 574 0
DWIDTH 19 0
BBX 16 24 1 0
BITMAP
0007
000F
007E
07FE
07FE
007C
007C
00FC
00F8
00F8
00F8
01F8
01F0
01F0
01F0
03E0
03E0
03E0
07E0
07C0
07C0
0FC0
FFFC
FFFC
ENDCHAR
STARTCHAR two
ENCODING 50
SWIDTH 574 0
DWIDTH 19 0
BBX 20 24 -2 0
BITMAP
007F00
01FFC0
0387E0
0703F0
0603F0
0F81F0
0FC1F0
0FC3F0
0FC3E0
07C7E0
0387C0
000F80
001F00
003E00
007C00
00F000
01E060
038060
0E00C0
1C03C0
3FFFC0
3FFF80
7FFF80
FFFF00
ENDCHAR
STARTCHAR three
ENCODING 51
SWIDTH 574 0
DWIDTH 19 0
BBX 18 24 0 0
BITMAP
00FC00
03FF00
070F80
0E07C0
0F07C0
0F87C0
0F87C0
0F0FC0
000F80
001F00
007E00
03F000
03FC00
003E00
001F00
301F00
7C1F00
FC1F00
FC3F00
F83F00
703E00
70FC00
3FF800
0FC000
ENDCHAR
STARTCHAR four
ENCODING 52
SWIDTH 574 0
DWIDTH 19 0
BBX 19 24 -1 0
BITMAP
0000E0
0001E0
0003E0
0007E0
000FE0
001FC0
003FC0
0077C0
00EF80
01CF80
038F80
071F80
0E1F00
1C1F00
381F00
703F00
FFFFE0
FFFFE0
007E00
007C00
007C00
00FC00
0FFF80
0FFF80
ENDCHAR
STARTCHAR five
ENCODING 53
SWIDTH 574 0
DWIDTH 19 0
BBX 19 24 0 0
BITMAP
03FFE0
03FFE0
03FFC0
03FF80
067F00
060000
060000
060000
0C7C00
0DFE00
0FFF00
1C3F00
381F80
101F80
000F80
000F80
780F80
F81F80
F81F00
F83F00
703E00
707C00
3FF800
0FC000
ENDCHAR
STARTCHAR six
ENCODING 54
SWIDTH 574 0
DWIDTH 19 0
BBX 18 24 1 0
BITMAP
003E00
01FF80
03E780
07C7C0
0F87C0
1F07C0
1F0380
3F0000
3E0000
7E0000
7FF800
7FFC00
FE3E00
FC1F00
FC1F00
FC1F00
F81F00
F81F00
F83F00
F83E00
783E00
787C00
3CF800
0FE000
ENDCHAR
STARTCHAR seven
ENCODING 55
SWIDTH 574 0
DWIDTH 19 0
BBX 18 25 3 0
BITMAP
180000
1FFFC0
3FFF80
3FFF80
7FFF00
7FFE00
780600
E00C00
C01C00
803800
007800
007000
00F000
01E000
03E000
03C000
07C000
0FC000
0F8000
1F8000
1F8000
3F8000
3F0000
3F0000
1E0000
ENDCHAR
STARTCHAR eight
ENCODING 56
SWIDTH 574 0
DWIDTH 19 0
BBX 19 24 0 0
BITMAP
007E00
01FF80
0383C0
0701C0
0F01E0
0F01E0
0F01E0
0F81C0
0FC3C0
0FF780
0FFE00
07FE00
07FF00
1EFF80
3C3F80
781FC0
F00FC0
F007C0
F00780
F00780
F80F00
7C1E00
3FF800
07E000
ENDCHAR
STARTCHAR nine
ENCODING 57
SWIDTH 574 0
DWIDTH 19 0
BBX 18 24 0 0
BITMAP
007800
03FE00
078F00
0F8780
1F0780
1F07C0
3F07C0
3E07C0
3E07C0
3E0FC0
3E0FC0
3F1FC0
1F1FC0
0FFF80
07FF80
001F80
001F00
703F00
F83E00
F87C00
F87800
F9F000
7FE000
1F0000
ENDCHAR
STARTCHAR colon
ENCODING 58
SWIDTH 287 0
DWIDTH 9 0
BBX 9 16 0 0
BITMAP
0F00
1F80
1F80
1F80
0F00
0000
0000
0000
0000
0000
0000
7800
FC00
FC00
FC00
7800
ENDCHAR
STARTCHAR semicolon
ENCODING 59
SWIDTH 287 0
DWIDTH 9 0
BBX 10 22 -2 -6
BITMAP
0780
0FC0
0FC0
0FC0
0780
0000
0000
0000
0000
0000
0E00
1F00
3F00
3F00
3F00
1E00
0600
0C00
1800
3000
6000
C000
ENDCHAR
STARTCHAR less
ENCODING 60
SWIDTH 606 0
DWIDTH 20 0
BBX 17 17 1 0
BITMAP
000180
000780
001F80
00FF00
03FC00
0FE000
7F8000
FE0000
F00000
FE0000
7F8000
0FE000
03FC00
00FF00
001F80
000780
000180
ENDCHAR
STARTCHAR equal
ENCODING 61
SWIDTH 606 0
DWIDTH 20 0
BBX 17 9 1 4
BITMAP
FFFF80
FFFF80
FFFF80
000000
000000
000000
FFFF80
FFFF80
FFFF80
ENDCHAR
STARTCHAR greater
ENCODING 62
SWIDTH 606 0
DWIDTH 20 0
BBX 17 17 1 0
BITMAP
C00000
F00000
FC0000
7F8000
1FE000
03F800
00FF00
003F80
000780
003F80
00FF00
03F800
1FE000
7F8000
FC0000
F00000
C00000
ENDCHAR
STARTCHAR question
ENCODING 63
SWIDTH 481 0
DWIDTH 16 0
BBX 12 25 3 0
BITMAP
0780
1FE0
38E0
3070
6070
60F0
43F0
07F0
0FE0
1FC0
3F80
3F00
7C00
7800
7180
3980
1F00
0000
0000
0000
7800
FC00
FC00
FC00
7800
ENDCHAR
STARTCHAR at
ENCODING 64
SWIDTH 747 0
DWIDTH 25 0
BBX 23 25 1 0
BITMAP
00FF00
03FFC0
0FC3F0
1E0078
3C003C
38001C
70100E
70FDEE
E1E7CE
E3C7C6
C7C3C6
C787C6
C7878E
CF878E
CF078C
EF0F9C
E71F18
77BF30
73F7EC
38839C
3C003C
1F0078
0FF3F0
03FFC0
00FF00
ENDCHAR
STARTCHAR A
ENCODING 65
SWIDTH 741 0
DWIDTH 24 0
BBX 27 25 -3 0
BITMAP
00006000
0000F000
0001F000
0001F000
0003F000
0003F000
0007F800
000FF800
000DF800
001DF800
0019F800
0038FC00
0070FC00
0070FC00
00E0FC00
00E0FC00
01FFFE00
01FFFE00
03807E00
07007E00
0F007E00
0E003F00
3E003F00
FFC3FFE0
FFC3FFE0
ENDCHAR
STARTCHAR B
ENCODING 66
SWIDTH 759 0
DWIDTH 25 0
BBX 26 25 -2 0
BITMAP
07FFF800
07FFFF00
00FC3F80
00FC0FC0
00FC0FC0
00FC0FC0
01FC0FC0
01F80FC0
01F80FC0
01F81FC0
03F83F80
03FFFF00
03FFF800
03F0F800
07E07E00
07E03F00
07E03F80
0FE01F80
0FC03F80
0FC03F80
0FC03F80
1F807F00
1F80FF00
FFFFFC00
FFFFE000
ENDCHAR
STARTCHAR C
ENCODING 67
SWIDTH 759 0
DWIDTH 24 0
BBX 24 25 1 0
BITMAP
001F81
00FFE3
01F877
07E01F
0FC01E
1F800E
3F800E
3F000E
7F000C
7F000C
7E0000
FE0000
FE0000
FE0000
FC0000
FC0000
FC0000
FC0000
FC0018
7E0030
7E0070
3F00E0
1FC3C0
0FFF80
01FE00
ENDCHAR
STARTCHAR D
ENCODING 68
SWIDTH 833 0
DWIDTH 27 0
BBX 28 25 -2 0
BITMAP
07FFF800
07FFFF00
00FE1F80
00FC07C0
00FC07E0
00FC03E0
01F803F0
01F803F0
01F803F0
01F003F0
03F003F0
03F007F0
03F007F0
07E007F0
07E007E0
07E00FE0
07E00FE0
0FC00FC0
0FC01FC0
0FC01F80
0FC03F00
1F807E00
1F81FC00
FFFFF000
FFFF0000
ENDCHAR
STARTCHAR E
ENCODING 69
SWIDTH 741 0
DWIDTH 24 0
BBX 26 25 -1 0
BITMAP
07FFFFC0
07FFFFC0
00FC0FC0
00FC0780
00FC0380
01F80380
01F80380
01F83300
01F87300
03F06000
03F1E000
03FFE000
03FFE000
07E3C000
07E1C000
07E1C000
07E1C300
0FC18700
0FC18600
0FC00E00
0FC01E00
0F803C00
1F80FC00
FFFFFC00
FFFFFC00
ENDCHAR
STARTCHAR F
ENCODING 70
SWIDTH 704 0
DWIDTH 23 0
BBX 26 25 -1 0
BITMAP
07FFFFC0
07FFFFC0
00FE0FC0
00FC0780
00FC0380
00FC0380
01F80380
01F83300
01F83300
01F87000
03F1E000
03FFE000
03FFE000
03E3C000
07E1C000
07E1C000
07E1C000
0FC18000
0FC18000
0FC00000
0FC00000
1F800000
1F800000
FFF80000
FFF80000
ENDCHAR
STARTCHAR G
ENCODING 71
SWIDTH 815 0
DWIDTH 25 0
BBX 25 25 0 0
BITMAP
000F8080
007FF180
01F83F80
03F01F80
07E00F00
0FC00F00
1F800F00
3F800600
3F000600
7F000600
7F000600
FE000000
FE000000
FE000000
FE07FF80
FC07FF80
FC00FC00
FC00FC00
FC00FC00
7C00F800
7E01F800
3E03F800
1F87B000
07FF3000
00F83000
ENDCHAR
STARTCHAR H
ENCODING 72
SWIDTH 870 0
DWIDTH 29 0
BBX 31 25 -1 0
BITMAP
07FF9FFE
07FF9FFE
00FC03F0
00FC03F0
00F803F0
01F807E0
01F807E0
01F807E0
01F807C0
03F00FC0
03F00FC0
03FFFFC0
03FFFF80
07E01F80
07E01F80
07E01F80
07E01F00
0FC03F00
0FC03F00
0FC03F00
0F803E00
1F807E00
1F807E00
FFF3FFC0
FFF3FFC0
ENDCHAR
STARTCHAR I
ENCODING 73
SWIDTH 444 0
DWIDTH 15 0
BBX 17 25 -1 0
BITMAP
07FF80
07FF80
00FC00
00FC00
00FC00
01F800
01F800
01F800
01F800
03F000
03F000
03F000
03F000
07E000
07E000
07E000
0FC000
0FC000
0FC000
0FC000
1F8000
1F8000
1FC000
FFF000
FFF000
ENDCHAR
STARTCHAR J
ENCODING 74
SWIDTH 667 0
DWIDTH 21 0
BBX 24 25 -1 0
BITMAP
001FFF
001FFF
0001F8
0001F8
0003F0
0003F0
0003F0
0003F0
0007E0
0007E0
0007E0
0007E0
000FC0
000FC0
3C0FC0
7E0FC0
FE1F80
FE1F80
FE1F80
DC3F00
C03F00
E07E00
70FE00
3FF800
0FE000
ENDCHAR
STARTCHAR K
ENCODING 75
SWIDTH 778 0
DWIDTH 26 0
BBX 29 25 -1 0
BITMAP
07FF9FF8
07FF9FF8
00FE07C0
00FC0780
00FC0E00
01F81C00
01F83800
01F87000
01F8E000
03F1C000
03F3C000
03F7C000
03FFE000
07FFE000
07FBF000
07F3F000
07E3F800
0FC1F800
0FC1FC00
0FC0FC00
0F80FC00
1F807E00
1F807F00
FFF3FFC0
FFF3FFC0
ENDCHAR
STARTCHAR L
ENCODING 76
SWIDTH 704 0
DWIDTH 22 0
BBX 24 25 -1 0
BITMAP
07FFC0
07FFC0
00FC00
00FC00
00FC00
01F800
01F800
01F800
01F800
03F000
03F000
03F000
03F000
07E000
07E000
07E000
07E003
0FC006
0FC00E
0FC00E
0FC01C
1F803C
1F80FC
FFFFF8
FFFFF8
ENDCHAR
STARTCHAR M
ENCODING 77
SWIDTH 944 0
DWIDTH 31 0
BBX 34 25 -1 0
BITMAP
0FFE007FC0
0FFE00FFC0
01FE00FE00
01FE01FE00
01FE03FE00
01FE03FC00
01BE077C00
03BE06FC00
033E0EF800
033E1DF800
033E19F800
073E39F800
063E31F000
063E73F000
0E3E63F000
0E3FC3F000
0C3FC3E000
0C3F87E000
1C3F87E000
1C3F07E000
183E0FC000
383E0FC000
781C1FC000
FE1C7FF800
FE187FF800
ENDCHAR
STARTCHAR N
ENCODING 78
SWIDTH 852 0
DWIDTH 28 0
BBX 33 25 -2 0
BITMAP
07FC01FF80
07FE01FF80
007E003C00
007F003800
007F003800
00FF803800
00DF803000
00DFC03000
00CFC03000
01CFE07000
0187E06000
0187F06000
0183F0E000
0383F8C000
0301F8C000
0300FCC000
0700FFC000
06007F8000
06007F8000
06003F8000
0E003F8000
0E001F0000
1F001F0000
FFC00F0000
FFC00F0000
ENDCHAR
STARTCHAR O
ENCODING 79
SWIDTH 833 0
DWIDTH 27 0
BBX 26 25 0 0
BITMAP
000FC000
007FF800
01FC3E00
03F01F00
07E01F00
0FC00F80
1F800F80
3F800FC0
3F000FC0
7F000FC0
7F001FC0
FE001FC0
FE001FC0
FE001FC0
FC003F80
FC003F80
FC003F00
FC007F00
7C007E00
7C00FC00
7E01FC00
3E03F000
1F0FE000
07FF8000
00FC0000
ENDCHAR
STARTCHAR P
ENCODING 80
SWIDTH 741 0
DWIDTH 24 0
BBX 25 25 -1 0
BITMAP
07FFF000
07FFFC00
00FC3F00
00FC1F00
00F80F80
01F80F80
01F80F80
01F80F80
01F01F80
03F01F80
03F03F00
03F07F00
03E1FE00
07FFFC00
07FFE000
07E00000
07C00000
0FC00000
0FC00000
0FC00000
0F800000
1F800000
1F800000
FFF00000
FFF00000
ENDCHAR
STARTCHAR Q
ENCODING 81
SWIDTH 833 0
DWIDTH 27 0
BBX 26 31 0 -6
BITMAP
000FC000
007FF800
01FC3E00
03F01F00
0FE01F00
0FC00F80
1F800F80
3F800FC0
3F000FC0
7F000FC0
7F000FC0
FE001FC0
FE001FC0
FE001FC0
FC001F80
FC383F80
FCFE3F00
FDDF7F00
7F0FFF00
7E07FE00
7E07FC00
3E07F800
1F8FE000
07FFC000
00FFC000
000FC000
000FE200
000FE600
0007FC00
0007F800
0001E000
ENDCHAR
STARTCHAR R
ENCODING 82
SWIDTH 796 0
DWIDTH 26 0
BBX 26 25 -1 0
BITMAP
07FFF800
07FFFF00
00FC3F80
00FC1F80
00FC0FC0
01F80FC0
01F80FC0
01F80FC0
01F81FC0
03F01F80
03F03F00
03F07E00
03FFF800
07FF8000
07E1E000
07E1F000
07E1F800
0FC1F800
0FC1F800
0FC1F800
1F81F8C0
1F81F8C0
1F80FD80
FFF0FF00
FFF07E00
ENDCHAR
STARTCHAR S
ENCODING 83
SWIDTH 685 0
DWIDTH 22 0
BBX 22 25 -1 0
BITMAP
007E00
01FFCC
03C1FC
07807C
07003C
0F0038
0F0038
0F8018
0FE018
0FF800
0FFF00
07FFC0
03FFE0
01FFE0
007FF0
300FF0
3003F0
3001F0
7000F0
7800F0
7801F0
7C01E0
FF03C0
C7FF00
C0FC00
ENDCHAR
STARTCHAR T
ENCODING 84
SWIDTH 722 0
DWIDTH 23 0
BBX 23 25 1 0
BITMAP
3FFFFE
3FFFFE
7C7E3E
787E1E
707E0E
60FC0E
E0FC0C
C0FC0C
C0FC0C
C1F80C
01F800
01F800
01F800
03F000
03F000
03F000
07E000
07E000
07E000
07E000
0FC000
0FC000
0FC000
FFF800
FFF800
ENDCHAR
STARTCHAR U
ENCODING 85
SWIDTH 833 0
DWIDTH 27 0
BBX 27 25 2 0
BITMAP
7FF83FE0
7FF83FE0
1FC00F80
1FC00700
1F800600
1F800600
1F800E00
3F000C00
3F000C00
3F000C00
3F001C00
7E001800
7E001800
7E003800
7E003000
FC003000
FC003000
FC007000
FC006000
FC00E000
7C00C000
7E01C000
3F078000
1FFF0000
07F80000
ENDCHAR
STARTCHAR V
ENCODING 86
SWIDTH 741 0
DWIDTH 24 0
BBX 26 25 0 0
BITMAP
FFF0FFC0
FFF0FFC0
1F801F00
1F801E00
0F801C00
0FC03800
0FC03800
0FC07000
0FC06000
0FC0E000
07C0C000
07E1C000
07E18000
07E38000
07E70000
03E60000
03FE0000
03FC0000
03FC0000
03F80000
01F80000
01F00000
01E00000
01E00000
01C00000
ENDCHAR
STARTCHAR W
ENCODING 87
SWIDTH 944 0
DWIDTH 30 0
BBX 32 25 0 0
BITMAP
FFCFFCFF
FFCFFCFF
3F03F03C
3F01F038
1F01F030
1F03F070
1F03F060
1F07F060
1F87F0E0
1F86F0C0
0F8CF8C0
0F8CF980
0F9CF980
0FD8FB80
0FF8FF00
0FF0FF00
0FF0FE00
07E07E00
07E07E00
07C07C00
07C07C00
07807800
07807800
07807000
03003000
ENDCHAR
STARTCHAR X
ENCODING 88
SWIDTH 741 0
DWIDTH 25 0
BBX 30 25 -3 0
BITMAP
07FF9FFC
07FF9FF8
00FC07E0
00FE0780
007E0700
007E0E00
003F1C00
003F3800
003FF000
001FE000
001FC000
000FC000
000FC000
000FE000
001FE000
003FF000
0073F000
00E3F000
01C1F800
0381F800
0701FC00
0F00FC00
3F00FE00
FFE7FFC0
FFE7FFC0
ENDCHAR
STARTCHAR Y
ENCODING 89
SWIDTH 704 0
DWIDTH 23 0
BBX 25 25 1 0
BITMAP
FFF1FF80
FFF1FF80
3F803E00
1F803800
1F807000
0FC07000
0FC0E000
0FC1C000
07E18000
07E38000
03F70000
03FE0000
03FC0000
01FC0000
01F80000
01F80000
03F00000
03F00000
03F00000
03F00000
07E00000
07E00000
07E00000
7FFE0000
7FFE0000
ENDCHAR
STARTCHAR Z
ENCODING 90
SWIDTH 704 0
DWIDTH 23 0
BBX 25 25 -1 0
BITMAP
07FFFF80
07FFFF00
07E07F00
0F80FE00
0F01FC00
0E03FC00
1C07F800
1807F000
180FE000
001FC000
003F8000
007F8000
007F0000
00FE0000
01FC0000
03F80000
07F80600
07F00C00
0FE01C00
1FC03C00
3F807800
7F81F800
7F07F800
FFFFF000
FFFFF000
ENDCHAR
STARTCHAR bracketleft
ENCODING 91
SWIDTH 407 0
DWIDTH 14 0
BBX 15 28 0 -3
BITMAP
01FE
01E0
03E0
03C0
03C0
03C0
07C0
0780
0780
0780
0F00
0F00
0F00
0F00
1E00
1E00
1E00
3E00
3C00
3C00
3C00
7C00
7800
7800
7800
F800
F000
FF00
ENDCHAR
STARTCHAR backslash
ENCODING 92
SWIDTH 606 0
DWIDTH 20 0
BBX 15 25 3 0
BITMAP
E000
7000
7000
3800
3800
1C00
1C00
0E00
0E00
0700
0700
0380
0380
01C0
01C0
00E0
00E0
0070
0070
0078
0038
003C
001C
001E
000E
ENDCHAR
STARTCHAR bracketright
ENCODING 93
SWIDTH 407 0
DWIDTH 14 0
BBX 15 28 -1 -3
BITMAP
01FE
001E
003E
003C
003C
003C
007C
0078
0078
0078
00F8
00F0
00F0
00F0
01E0
01E0
01E0
03E0
03C0
03C0
03C0
07C0
0780
0780
0780
0F80
0F00
FF00
ENDCHAR
STARTCHAR asciicircum
ENCODING 94
SWIDTH 606 0
DWIDTH 20 0
BBX 17 13 2 12
BITMAP
01C000
03E000
03E000
07F000
0F7800
0E3800
1E3C00
1C1C00
3C1E00
380E00
780F00
700700
F00780
ENDCHAR
STARTCHAR underscore
ENCODING 95
SWIDTH 500 0
DWIDTH 16 0
BBX 16 2 0 -4
BITMAP
FFFF
FFFF
ENDCHAR
STARTCHAR grave
ENCODING 96
SWIDTH 333 0
DWIDTH 11 0
BBX 7 6 2 17
BITMAP
60
F0
F8
7C
1E
06
ENDCHAR
STARTCHAR a
ENCODING 97
SWIDTH 667 0
DWIDTH 21 0
BBX 20 16 0 0
BITMAP
01E3E0
07FBE0
1F8FE0
3F0FC0
3E0FC0
7E0FC0
7C0F80
FC0F80
FC0F80
F81F80
F81F10
F83F30
FC3F70
7CFFE0
7FDFC0
1F0F00
ENDCHAR
STARTCHAR b
ENCODING 98
SWIDTH 611 0
DWIDTH 18 0
BBX 17 25 0 0
BITMAP
03C000
1FC000
07C000
07C000
0F8000
0F8000
0F8000
1F0000
1F0000
1F7C00
1FFF00
3F9F00
3F0F80
3E0F80
7E0F80
7C0F80
7C1F80
FC1F80
F81F00
F81F00
F83E00
F83E00
787C00
7DF000
1FE000
ENDCHAR
STARTCHAR c
ENCODING 99
SWIDTH 537 0
DWIDTH 17 0
BBX 16 16 0 0
BITMAP
03FC
0FCE
1F0F
3F1F
7E1F
7E1F
FC0E
FC00
FC00
F800
F800
F804
FC0C
7E38
3FF0
0FC0
ENDCHAR
STARTCHAR d
ENCODING 100
SWIDTH 667 0
DWIDTH 22 0
BBX 22 25 0 0
BITMAP
00003C
0003FC
0000FC
0000FC
0000F8
0000F8
0000F8
0001F0
0001F0
01F1F0
07FFE0
1F8FE0
3F07E0
3E07E0
7E07C0
7E07C0
FC0FC0
FC0F80
FC0F80
F81F88
F81F98
FC3F30
7C6FE0
7FCFC0
1F8F80
ENDCHAR
STARTCHAR e
ENCODING 101
SWIDTH 519 0
DWIDTH 17 0
BBX 16 16 0 0
BITMAP
03FC
079E
1F0F
3E0F
3E1F
7C1F
7C3E
FCFC
FFE0
FC00
F800
F800
FC0C
7C38
3FF0
0FC0
ENDCHAR
STARTCHAR f
ENCODING 102
SWIDTH 389 0
DWIDTH 12 0
BBX 19 32 -1 -7
BITMAP
001F80
007DC0
00FBE0
01F3E0
01F3E0
01F1C0
03E000
03E000
03E000
3FFC00
3FFC00
07C000
07C000
0F8000
0F8000
0F8000
0F8000
1F0000
1F0000
1F0000
1F0000
3E0000
3E0000
3E0000
3E0000
7C0000
7C0000
7C0000
7C0000
F80000
F80000
F80000
ENDCHAR
STARTCHAR g
ENCODING 103
SWIDTH 611 0
DWIDTH 20 0
BBX 22 25 -2 -7
BITMAP
00003C
00007C
007FDC
01F3DC
03E1E0
07C1F0
07C1F0
07C1F0
07C3F0
07C3F0
03C7E0
07EFC0
0F7E00
1C0000
3E0000
3FFC00
3FFF00
1FFF80
1FFF80
7C1F80
F00780
F00780
F80F00
7F3E00
0FF000
ENDCHAR
STARTCHAR h
ENCODING 104
SWIDTH 685 0
DWIDTH 22 0
BBX 21 25 0 0
BITMAP
00F000
07F000
01F000
01F000
03E000
03E000
03E000
07C000
07C000
07C780
0F9FC0
0FBFE0
0FF3E0
1FC3E0
1F87E0
1F07C0
1F07C0
3E0FC0
3E0F80
3E0F98
7E1F18
7C1F70
7C1FE0
FC0FC0
FC0700
ENDCHAR
STARTCHAR i
ENCODING 105
SWIDTH 389 0
DWIDTH 12 0
BBX 10 25 1 0
BITMAP
0300
0780
0FC0
0FC0
0780
0300
0000
0000
0000
1F00
FF00
3F00
3F00
3E00
3E00
7E00
7C00
7C00
7C00
FCC0
F8C0
F980
FB00
FE00
7C00
ENDCHAR
STARTCHAR j
ENCODING 106
SWIDTH 370 0
DWIDTH 11 0
BBX 19 32 -7 -7
BITMAP
000180
0003C0
0007E0
0007E0
0003C0
000180
000000
000000
000000
0007C0
003FC0
000F80
000F80
001F80
001F00
001F00
001F00
003F00
003E00
003E00
003E00
007C00
007C00
007C00
007C00
00F800
70F800
F8F000
F9F000
79E000
7FC000
3F8000
ENDCHAR
STARTCHAR k
ENCODING 107
SWIDTH 648 0
DWIDTH 20 0
BBX 19 25 0 0
BITMAP
01F000
0FF000
03F000
03E000
03E000
07E000
07C000
07C000
07C000
0FC780
0F9FE0
0FBFE0
1FE3E0
1FC1E0
1F83C0
3F0780
3FFF00
3EF800
7C3C00
7C3E00
7C3E60
7C3E60
F83FC0
F83F80
F80E00
ENDCHAR
STARTCHAR l
ENCODING 108
SWIDTH 389 0
DWIDTH 12 0
BBX 11 25 1 0
BITMAP
03E0
1FE0
07E0
07C0
07C0
07C0
0FC0
0F80
0F80
1F80
1F00
1F00
3F00
3E00
3E00
3E00
7E00
7C00
7C00
FC40
F8C0
F9C0
FB80
FF00
7C00
ENDCHAR
STARTCHAR m
ENCODING 109
SWIDTH 944 0
DWIDTH 30 0
BBX 29 16 0 0
BITMAP
0F870380
7F9F8FC0
1F7FDFE0
1FE7F3E0
1FC7E3E0
1F87C3E0
3F0FC7C0
3F0F87C0
3E0F87C0
7E1F07C0
7C1F0F98
7C1F0F98
7C1F0FB0
F83E0FE0
F83E0FC0
F83E0700
ENDCHAR
STARTCHAR n
ENCODING 110
SWIDTH 685 0
DWIDTH 22 0
BBX 21 16 0 0
BITMAP
0F8780
7F9FC0
0FBFE0
0FF3E0
0FC3E0
1FC3E0
1F87E0
1F07C0
3F0FC0
3E0F80
3E0F88
7E0F98
7C1F30
7C1FE0
F81FC0
F80F00
ENDCHAR
STARTCHAR o
ENCODING 111
SWIDTH 574 0
DWIDTH 19 0
BBX 18 16 0 0
BITMAP
03FC00
0FCF00
1F0F80
3F07C0
7E07C0
7E07C0
FC0FC0
FC0FC0
FC0FC0
FC0FC0
F81F80
F81F80
F83F00
7C3E00
3CF800
0FE000
ENDCHAR
STARTCHAR p
ENCODING 112
SWIDTH 648 0
DWIDTH 20 0
BBX 23 23 -4 -7
BITMAP
00F9F0
07FFFC
01FC7C
01F87E
01F83E
01F03E
03F07E
03E07E
03E07E
07E07C
07E0FC
07C0F8
07E1F8
0FE3F0
0FBFC0
0F9F00
1F8000
1F0000
1F0000
1F0000
3F0000
FFC000
FFC000
ENDCHAR
STARTCHAR q
ENCODING 113
SWIDTH 630 0
DWIDTH 20 0
BBX 19 23 0 -7
BITMAP
01E060
07F9E0
1F8FE0
3F0FC0
3E07C0
7E0FC0
7C0FC0
FC0F80
FC0F80
FC1F80
F81F00
F83F00
FC3F00
7C7F00
7FFE00
1F3E00
007E00
007C00
007C00
007C00
00FC00
03FF00
07FF00
ENDCHAR
STARTCHAR r
ENCODING 114
SWIDTH 519 0
DWIDTH 16 0
BBX 17 16 0 0
BITMAP
0F9F00
7FBF80
1F6F80
1FCF80
1F8F00
1F8000
3F0000
3F0000
3E0000
7E0000
7C0000
7C0000
7C0000
FC0000
F80000
F80000
ENDCHAR
STARTCHAR s
ENCODING 115
SWIDTH 481 0
DWIDTH 15 0
BBX 14 16 0 0
BITMAP
07F0
1F3C
1C3C
3C3C
3E3C
3F18
3FC0
1FF0
1FF0
07F8
71F8
F8F8
F878
F070
79E0
3FC0
ENDCHAR
STARTCHAR t
ENCODING 116
SWIDTH 407 0
DWIDTH 12 0
BBX 13 22 0 0
BITMAP
03E0
03E0
07C0
07C0
07C0
0F80
7FF8
7FF0
1F00
1F00
1F00
3E00
3E00
3E00
7E00
7C00
7C40
FCC0
F980
FF00
7E00
3800
ENDCHAR
STARTCHAR u
ENCODING 117
SWIDTH 685 0
DWIDTH 21 0
BBX 20 16 0 0
BITMAP
1F83E0
7F87E0
1F07C0
1F07C0
3F0FC0
3E0F80
3E0F80
7E1F80
7C1F00
7C3F00
7C3F30
F87E70
F9FEE0
FFBFC0
7F3F80
3C1E00
ENDCHAR
STARTCHAR v
ENCODING 118
SWIDTH 556 0
DWIDTH 17 0
BBX 15 16 1 0
BITMAP
FF1C
FF3E
3F3E
3E1E
3E0E
7E06
7C06
7C0C
7C0C
F80C
F818
F838
F830
7CE0
7FC0
1F00
ENDCHAR
STARTCHAR w
ENCODING 119
SWIDTH 833 0
DWIDTH 27 0
BBX 25 16 1 0
BITMAP
FF07CF00
FF078F80
1F0F8F80
3E0F8780
3E0F8380
3E1F0300
7C1F0300
7C1F0300
7C3F0200
F83E0600
F87E0E00
F87E0C00
F8DF1800
FF9FF000
7F1FE000
3C07C000
ENDCHAR
STARTCHAR x
ENCODING 120
SWIDTH 574 0
DWIDTH 19 0
BBX 21 16 -2 0
BITMAP
03E0F0
07E1F8
0FF378
1DF670
19FC00
10F800
00F800
00F800
00F800
00FC00
01FC40
637CC0
F37FC0
FE3F80
FC3F00
701C00
ENDCHAR
STARTCHAR y
ENCODING 121
SWIDTH 519 0
DWIDTH 18 0
BBX 19 23 -2 -7
BITMAP
0781C0
0FC3E0
0FE3E0
1FE1E0
1BE1C0
33F1C0
31F180
01F180
01F100
00FB00
00FA00
00FE00
00FC00
007C00
007800
007800
003000
006000
70C000
F9C000
FB8000
7F0000
3C0000
ENDCHAR
STARTCHAR z
ENCODING 122
SWIDTH 519 0
DWIDTH 16 0
BBX 15 16 0 0
BITMAP
0FC6
1FFE
3FFE
3FFC
63D8
6070
00E0
03C0
0780
0E00
1C06
3786
7FFC
FFFC
CFF8
C3E0
ENDCHAR
STARTCHAR braceleft
ENCODING 123
SWIDTH 407 0
DWIDTH 14 0
BBX 11 31 2 -5
BITMAP
00E0
0180
0380
0780
0700
0700
0F00
0F00
0E00
0E00
0E00
1E00
1C00
1C00
3800
E000
7000
3800
3800
7800
7800
7000
7000
7000
F000
E000
E000
E000
E000
6000
3000
ENDCHAR
STARTCHAR bar
ENCODING 124
SWIDTH 606 0
DWIDTH 20 0
BBX 3 25 9 0
BITMAP
E0
E0
E0
E0
E0
E0
E0
E0
E0
E0
E0
E0
E0
E0
E0
E0
E0
E0
E0
E0
E0
E0
E0
E0
E0
ENDCHAR
STARTCHAR braceright
ENCODING 125
SWIDTH 407 0
DWIDTH 14 0
BBX 11 31 -1 -5
BITMAP
0300
01C0
00E0
00E0
00E0
00E0
01E0
01E0
01C0
01C0
01C0
03C0
0380
0380
03E0
00C0
0380
0780
0700
0700
0F00
0E00
0E00
0E00
1E00
1C00
1C00
3C00
3800
7000
C000
ENDCHAR
STARTCHAR asciitilde
ENCODING 126
SWIDTH 606 0
DWIDTH 19 0
BBX 17 6 1 6
BITMAP
1E0300
3FC780
7FFF80
FFFF00
F1FE00
603C00
ENDCHAR
STARTCHAR space
ENCODING 160
SWIDTH 287 0
DWIDTH 10 0
BBX 1 1 1 0
BITMAP
00
ENDCHAR
STARTCHAR exclamdown
ENCODING 161
SWIDTH 333 0
DWIDTH 11 0
BBX 11 25 -1 -7
BITMAP
01C0
03E0
03E0
03E0
01C0
0000
0000
0300
0300
0700
0700
0F00
0E00
0E00
1E00
1E00
3E00
3E00
7C00
7C00
FC00
FC00
FC00
FC00
7800
ENDCHAR
STARTCHAR cent
ENCODING 162
SWIDTH 574 0
DWIDTH 19 0
BBX 16 24 1 -4
BITMAP
0002
0006
0006
00FC
07FE
0F8E
1F1F
3E1F
7E3F
7C3E
FC6C
FC60
FCC0
F8C0
F880
F98C
FD9C
7F38
3FE0
0FC0
0600
0C00
0C00
0800
ENDCHAR
STARTCHAR sterling
ENCODING 163
SWIDTH 574 0
DWIDTH 19 0
BBX 19 24 0 0
BITMAP
001F00
007FC0
00F0E0
01F1E0
03E3E0
03E3E0
07C3E0
07C1C0
07C000
07C000
07C000
7FFE00
7FFE00
07C000
03C000
03C000
03C000
038040
7F80C0
FFC3C0
CFFF80
87FF80
CFFF00
787E00
ENDCHAR
STARTCHAR currency
ENCODING 164
SWIDTH 574 0
DWIDTH 19 0
BBX 16 16 2 4
BITMAP
47E6
FFFF
FFFF
7C3E
781E
F00F
E007
E007
E007
E007
F00F
781E
7C3E
FFFF
FFFF
47E2
ENDCHAR
STARTCHAR yen
ENCODING 165
SWIDTH 574 0
DWIDTH 19 0
BBX 20 24 1 0
BITMAP
FFCFF0
FFCFF0
3E03C0
3E0180
1F0380
1F0300
1F0600
0F8E00
0F8C00
0F9C00
079800
07F000
7FFF80
7FFF80
03E000
07C000
FFFF00
FFFF00
07C000
078000
0F8000
0F8000
7FF000
7FF000
ENDCHAR
STARTCHAR brokenbar
ENCODING 166
SWIDTH 606 0
DWIDTH 20 0
BBX 3 25 9 0
BITMAP
E0
E0
E0
E0
E0
E0
E0
E0
E0
E0
00
00
00
00
00
E0
E0
E0
E0
E0
E0
E0
E0
E0
E0
ENDCHAR
STARTCHAR section
ENCODING 167
SWIDTH 500 0
DWIDTH 17 0
BBX 19 30 -2 -5
BITMAP
003F00
0071C0
00E1C0
01E3E0
01E3E0
01E1C0
01F080
01F800
00FC00
007C00
07FE00
1C3F00
1C1F00
3C0F80
3C0780
3E0780
3F0380
3F8380
1FC700
0FFE00
07F000
03F000
01F800
00F800
787800
F87800
F83800
F07000
70E000
1FC000
ENDCHAR
STARTCHAR dieresis
ENCODING 168
SWIDTH 333 0
DWIDTH 14 0
BBX 12 5 3 18
BITMAP
70E0
F9F0
F9F0
F9F0
70E0
ENDCHAR
STARTCHAR copyright
ENCODING 169
SWIDTH 747 0
DWIDTH 25 0
BBX 23 25 1 0
BITMAP
01FE00
07FF80
0F87E0
1E00F0
3C0078
380038
70FF1C
71E71C
E3830E
E3830E
E7000E
C70006
C70006
C70006
C7800E
E7800E
E3C10E
63E31C
70FE1C
383838
380078
1E00F0
0F87E0
07FF80
01FE00
ENDCHAR
STARTCHAR ordfeminine
ENCODING 170
SWIDTH 412 0
DWIDTH 14 0
BBX 13 15 2 10
BITMAP
1F70
3DF0
78F0
70E0
F1E0
F1E0
E1C8
E3D8
F7F0
7DE0
0000
0000
0000
FFE0
FFE0
ENDCHAR
STARTCHAR guillemotleft
ENCODING 171
SWIDTH 481 0
DWIDTH 16 0
BBX 16 11 -1 2
BITMAP
0183
0306
0E1C
1C38
78F0
F1E0
78E0
3870
1C38
0C18
060C
ENDCHAR
STARTCHAR logicalnot
ENCODING 172
SWIDTH 606 0
DWIDTH 20 0
BBX 17 9 1 4
BITMAP
FFFF80
FFFF80
FFFF80
000380
000380
000380
000380
000380
000380
ENDCHAR
STARTCHAR hyphen
ENCODING 173
SWIDTH 333 0
DWIDTH 11 0
BBX 9 4 0 6
BITMAP
7F80
7F80
FF00
FF00
ENDCHAR
STARTCHAR registered
ENCODING 174
SWIDTH 747 0
DWIDTH 25 0
BBX 23 25 1 0
BITMAP
00FE00
03FF80
0FC7E0
1E00F0
3C0078
3BF838
71FE1C
61C70C
E1C70E
E1C30E
E1C70E
C1CE06
C1FC06
C1CE06
E1CF0E
E1C70E
E1C78E
61C38C
73F3DC
380038
3C0078
1E00F0
0FC7E0
03FF80
00FE00
ENDCHAR
STARTCHAR macron
ENCODING 175
SWIDTH 333 0
DWIDTH 11 0
BBX 10 3 2 18
BITMAP
7FC0
FFC0
FF80
ENDCHAR
STARTCHAR degree
ENCODING 176
SWIDTH 400 0
DWIDTH 13 0
BBX 10 9 2 14
BITMAP
1E00
7F80
E1C0
C0C0
C0C0
C0C0
E1C0
7F80
1E00
ENDCHAR
STARTCHAR plusminus
ENCODING 177
SWIDTH 606 0
DWIDTH 20 0
BBX 17 17 1 0
BITMAP
01C000
01C000
01C000
01C000
01C000
FFFF80
FFFF80
FFFF80
01C000
01C000
01C000
01C000
01C000
000000
FFFF80
FFFF80
FFFF80
ENDCHAR
STARTCHAR twosuperior
ENCODING 178
SWIDTH 344 0
DWIDTH 11 0
BBX 12 14 0 9
BITMAP
0FC0
19E0
30F0
38F0
3CF0
19E0
03C0
0780
0E00
1C20
3860
7FC0
FFC0
FF80
ENDCHAR
STARTCHAR threesuperior
ENCODING 179
SWIDTH 344 0
DWIDTH 11 0
BBX 11 14 0 9
BITMAP
1F80
39C0
38E0
39E0
01E0
03C0
0F00
0380
01C0
E1C0
E3C0
E3C0
E780
7E00
ENDCHAR
STARTCHAR acute
ENCODING 180
SWIDTH 333 0
DWIDTH 11 0
BBX 7 6 3 18
BITMAP
0C
1E
3E
7C
F0
C0
ENDCHAR
STARTCHAR mu
ENCODING 181
SWIDTH 576 0
DWIDTH 22 0
BBX 24 23 -3 -7
BITMAP
00F83E
07F87E
01F07C
01F07C
03F0FC
03E0F8
03E0F8
07E1F8
07C1F0
07C3F0
0FC7F3
0F87E7
1F9FEE
1FFBFC
1FF3F8
3BC1E0
380000
700000
700000
F00000
E00000
E00000
400000
ENDCHAR
STARTCHAR paragraph
ENCODING 182
SWIDTH 650 0
DWIDTH 22 0
BBX 19 25 3 0
BITMAP
0FFFE0
3F7380
7E7380
7CE700
FCE700
FCE700
FCE700
F9CE00
F9CE00
F9CE00
7FCE00
0F9C00
039C00
039C00
039C00
073800
073800
073800
073800
0E7000
0E7000
0E7000
0E7000
1CE000
7FF800
ENDCHAR
STARTCHAR periodcentered
ENCODING 183
SWIDTH 287 0
DWIDTH 9 0
BBX 6 5 1 6
BITMAP
78
FC
FC
FC
78
ENDCHAR
STARTCHAR cedilla
ENCODING 184
SWIDTH 333 0
DWIDTH 11 0
BBX 8 7 0 -7
BITMAP
08
18
3E
07
C7
7E
3C
ENDCHAR
STARTCHAR onesuperior
ENCODING 185
SWIDTH 344 0
DWIDTH 11 0
BBX 10 14 1 9
BITMAP
03C0
1FC0
0380
0780
0780
0700
0700
0F00
0E00
0E00
1E00
1E00
1E00
FF80
ENDCHAR
STARTCHAR ordmasculine
ENCODING 186
SWIDTH 356 0
DWIDTH 12 0
BBX 12 15 1 10
BITMAP
0FC0
3CE0
7870
F0F0
F0F0
F0F0
F0F0
E1E0
73C0
3F00
0000
0000
0000
FFE0
FFE0
ENDCHAR
STARTCHAR guillemotright
ENCODING 187
SWIDTH 481 0
DWIDTH 16 0
BBX 16 11 0 2
BITMAP
3060
1830
1C38
0E1C
0F1E
078F
0F1E
1C3C
3870
60C0
C180
ENDCHAR
STARTCHAR onequarter
ENCODING 188
SWIDTH 861 0
DWIDTH 29 0
BBX 26 24 1 0
BITMAP
00001800
01C01800
03C03000
1F807000
03806000
0780E000
0700C000
07018000
0F038000
0F0300C0
0E0701C0
0E0E03C0
1E0C07C0
1E1C0F80
FF981B80
00383380
00706780
0060C700
00E18700
00C3FFC0
01C00E00
03800E00
03001E00
07007F80
ENDCHAR
STARTCHAR onehalf
ENCODING 189
SWIDTH 861 0
DWIDTH 29 0
BBX 29 24 0 0
BITMAP
00000C00
01C01800
03C03800
1FC03000
03807000
03806000
0780C000
0701C000
07018000
0F038000
0F030FE0
0E061CF0
1E0E3078
1E0C3C78
FF9C3C78
00381CF0
003801E0
007003C0
00600700
00E00E10
00C01C30
01803FE0
03807FE0
0300FFC0
ENDCHAR
STARTCHAR threequarters
ENCODING 190
SWIDTH 861 0
DWIDTH 29 0
BBX 27 24 0 0
BITMAP
00000C00
1F801800
39C01800
38E03000
39E07000
01E06000
03C0C000
0F01C000
03C18000
01C38060
E1C300E0
E3C601E0
E3CE03C0
E78C07C0
7E1C0FC0
00181B80
00383380
00706380
0060C700
00E1FFE0
00C00700
01800700
03800F00
03003F80
ENDCHAR
STARTCHAR questiondown
ENCODING 191
SWIDTH 481 0
DWIDTH 16 0
BBX 12 25 1 -7
BITMAP
01E0
03F0
03F0
03F0
01E0
0000
0000
0700
0FC0
18E0
10E0
01E0
03E0
0FE0
1FC0
3F80
7F00
FE00
FC20
F020
F060
E060
F0C0
7F80
3F00
ENDCHAR
STARTCHAR Agrave
ENCODING 192
SWIDTH 741 0
DWIDTH 24 0
BBX 27 32 -3 0
BITMAP
00060000
000F0000
000F8000
0007C000
0001E000
00006000
00000000
00006000
0000F000
0001F000
0001F000
0003F000
0003F000
0007F800
000FF800
000DF800
001DF800
0019F800
0038FC00
0070FC00
0070FC00
00E0FC00
00E0FC00
01FFFE00
01FFFE00
03807E00
07007E00
0F007E00
0E003F00
3E003F00
FFC3FFE0
FFC3FFE0
ENDCHAR
STARTCHAR Aacute
ENCODING 193
SWIDTH 741 0
DWIDTH 24 0
BBX 27 32 -3 0
BITMAP
00000300
00000780
00000F80
00001F00
00003C00
00003000
00000000
00006000
0000F000
0001F000
0001F000
0003F000
0003F000
0007F800
000FF800
000DF800
001DF800
0019F800
0038FC00
0070FC00
0070FC00
00E0FC00
00E0FC00
01FFFE00
01FFFE00
03807E00
07007E00
0F007E00
0E003F00
3E003F00
FFC3FFE0
FFC3FFE0
ENDCHAR
STARTCHAR Acircumflex
ENCODING 194
SWIDTH 741 0
DWIDTH 24 0
BBX 27 32 -3 0
BITMAP
00001C00
00003C00
00007E00
0000FE00
0001C300
00030300
00000000
00006000
0000F000
0001F000
0001F000
0003F000
0003F000
0007F800
000FF800
000DF800
001DF800
0019F800
0038FC00
0070FC00
0070FC00
00E0FC00
00E0FC00
01FFFE00
01FFFE00
03807E00
07007E00
0F007E00
0E003F00
3E003F00
FFC3FFE0
FFC3FFE0
ENDCHAR
STARTCHAR Atilde
ENCODING 195
SWIDTH 741 0
DWIDTH 24 0
BBX 27 31 -3 0
BITMAP
0001C600
0003FE00
0007FC00
000E3800
00000000
00000000
00006000
0000F000
0001F000
0001F000
0003F000
0003F000
0007F800
000FF800
000DF800
001DF800
0019F800
0038FC00
0070FC00
0070FC00
00E0FC00
00E0FC00
01FFFE00
01FFFE00
03807E00
07007E00
0F007E00
0E003F00
3E003F00
FFC3FFE0
FFC3FFE0
ENDCHAR
STARTCHAR Adieresis
ENCODING 196
SWIDTH 741 0
DWIDTH 24 0
BBX 27 32 -3 0
BITMAP
00070E00
000F9F00
000F9F00
000F9F00
00070E00
00000000
00000000
00006000
0000F000
0001F000
0001F000
0003F000
0003F000
0007F800
000FF800
000DF800
001DF800
0019F800
0038FC00
0070FC00
0070FC00
00E0FC00
00E0FC00
01FFFE00
01FFFE00
03807E00
07007E00
0F007E00
0E003F00
3E003F00
FFC3FFE0
FFC3FFE0
ENDCHAR
STARTCHAR Aring
ENCODING 197
SWIDTH 741 0
DWIDTH 24 0
BBX 27 32 -3 0
BITMAP
00007000
0000F800
00018C00
00018C00
0000F800
00007000
00000000
00006000
0000F000
0001F000
0001F000
0003F000
0003F000
0007F800
000FF800
000DF800
001DF800
0019F800
0038FC00
0070FC00
0070FC00
00E0FC00
00E0FC00
01FFFE00
01FFFE00
03807E00
07007E00
0F007E00
0E003F00
3E003F00
FFC3FFE0
FFC3FFE0
ENDCHAR
STARTCHAR AE
ENCODING 198
SWIDTH 889 0
DWIDTH 30 0
BBX 33 25 -3 0
BITMAP
003FFFFF80
003FFFFF80
000FFE0F80
00077E0700
00067E0700
000E7C0300
000CFC0300
001CFC3300
0038FC7300
0030F86000
0071F8E000
00E1FFE000
00C1FFE000
01C3F3C000
01FFF1C000
03FFF1C000
0703E1C600
0607E18600
0E07E18E00
1C07E01E00
1C07C01C00
380FC07C00
780FC0FC00
FE7FFFFC00
FE7FFFF800
ENDCHAR
STARTCHAR Ccedilla
ENCODING 199
SWIDTH 759 0
DWIDTH 24 0
BBX 24 32 0 -7
BITMAP
001F80
00FFE3
01F877
07E01F
0FC01E
1F800E
3F800E
3F000E
7F000E
7F000C
7E0000
FE0000
FE0000
FE0000
FC0000
FC0000
FC0000
FC0000
FC0018
7E0030
7E0070
3F00E0
1FC3C0
0FFF80
00FE00
004000
00C000
01F000
003800
063800
03F000
01E000
ENDCHAR
STARTCHAR Egrave
ENCODING 200
SWIDTH 741 0
DWIDTH 24 0
BBX 26 32 -1 0
BITMAP
00060000
000F0000
000F8000
0007C000
0001E000
00006000
00000000
07FFFFC0
07FFFFC0
00FC0FC0
00FC0780
00FC0380
01F80380
01F80380
01F83300
01F87300
03F06000
03F1E000
03FFE000
03FFE000
07E3C000
07E1C000
07E1C000
07E1C300
0FC18700
0FC18600
0FC00E00
0FC01E00
1F803C00
3F80FC00
FFFFFC00
FFFFFC00
ENDCHAR
STARTCHAR Eacute
ENCODING 201
SWIDTH 741 0
DWIDTH 24 0
BBX 26 32 -1 0
BITMAP
00000C00
00001E00
00003E00
00007C00
0000F000
0000C000
00000000
07FFFFC0
07FFFFC0
00FC0FC0
00FC0780
00FC0380
01F80380
01F80380
01F83300
01F87300
03F06000
03F1E000
03FFE000
03FFE000
07E3C000
07E1C000
07E1C000
07E1C300
0FC18700
0FC18600
0FC00E00
0FC01E00
1F803C00
3F80FC00
FFFFFC00
FFFFFC00
ENDCHAR
STARTCHAR Ecircumflex
ENCODING 202
SWIDTH 741 0
DWIDTH 24 0
BBX 26 32 -1 0
BITMAP
00007000
0000F000
0001F800
0003F800
00070C00
000C0400
00000000
07FFFFC0
07FFFFC0
00FC0FC0
00FC0780
00FC0380
01F80380
01F80380
01F83300
01F87300
03F06000
03F1E000
03FFE000
03FFE000
07E3C000
07E1C000
07E1C000
07E1C300
0FC18700
0FC18600
0FC00E00
0FC01E00
1F803C00
3F80FC00
FFFFFC00
FFFFFC00
ENDCHAR
STARTCHAR Edieresis
ENCODING 203
SWIDTH 741 0
DWIDTH 24 0
BBX 26 32 -1 0
BITMAP
00070E00
000F9F00
000F9F00
000F9F00
00070E00
00000000
00000000
07FFFFC0
07FFFFC0
00FC0FC0
00FC0780
00FC0380
01F80380
01F80380
01F83300
01F87300
03F06000
03F1E000
03FFE000
03FFE000
07E3C000
07E1C000
07E1C000
07E1C300
0FC18700
0FC18600
0FC00E00
0FC01E00
1F803C00
3F80FC00
FFFFFC00
FFFFFC00
ENDCHAR
STARTCHAR Igrave
ENCODING 204
SWIDTH 444 0
DWIDTH 15 0
BBX 17 32 -1 0
BITMAP
00C000
01E000
01F000
00F800
003C00
000C00
000000
07FF80
07FF80
00FC00
00FC00
00FC00
01F800
01F800
01F800
01F800
03F000
03F000
03F000
03F000
07E000
07E000
07E000
0FC000
0FC000
0FC000
0FC000
1F8000
1F8000
1FC000
FFF000
FFF000
ENDCHAR
STARTCHAR Iacute
ENCODING 205
SWIDTH 444 0
DWIDTH 15 0
BBX 17 32 -1 0
BITMAP
000600
000F00
001F00
003E00
007800
006000
000000
07FF80
07FF80
00FC00
00FC00
00FC00
01F800
01F800
01F800
01F800
03F000
03F000
03F000
03F000
07E000
07E000
07E000
0FC000
0FC000
0FC000
0FC000
1F8000
1F8000
1FC000
FFF000
FFF000
ENDCHAR
STARTCHAR Icircumflex
ENCODING 206
SWIDTH 444 0
DWIDTH 15 0
BBX 17 32 -1 0
BITMAP
001C00
003C00
007E00
00FE00
01C300
030100
000000
07FF80
07FF80
00FC00
00FC00
00FC00
01F800
01F800
01F800
01F800
03F000
03F000
03F000
03F000
07E000
07E000
07E000
0FC000
0FC000
0FC000
0FC000
1F8000
1F8000
1FC000
FFF000
FFF000
ENDCHAR
STARTCHAR Idieresis
ENCODING 207
SWIDTH 444 0
DWIDTH 15 0
BBX 18 32 -1 0
BITMAP
01C380
03E7C0
03E7C0
03E7C0
01C380
000000
000000
07FF80
07FF80
00FC00
00FC00
00FC00
01F800
01F800
01F800
01F800
03F000
03F000
03F000
03F000
07E000
07E000
07E000
0FC000
0FC000
0FC000
0FC000
1F8000
1F8000
1FC000
FFF000
FFF000
ENDCHAR
STARTCHAR Eth
ENCODING 208
SWIDTH 833 0
DWIDTH 27 0
BBX 28 25 -2 0
BITMAP
07FFF800
07FFFF00
00FE1F80
00FC07C0
00FC07E0
00FC03E0
01F803F0
01F803F0
01F803F0
01F803F0
3FFF83F0
3FFF87F0
03F007F0
07E007F0
07E007E0
07E00FE0
07E00FE0
0FC00FC0
0FC01FC0
0FC01F80
0FC03F00
1F807E00
1F81FC00
FFFFF000
FFFF0000
ENDCHAR
STARTCHAR Ntilde
ENCODING 209
SWIDTH 852 0
DWIDTH 28 0
BBX 33 31 -2 0
BITMAP
0000718000
0000FF8000
0001FF0000
00038E0000
0000000000
0000000000
07FC01FF80
07FE01FF80
007E003C00
007F003800
007F003800
00FF803800
00DF803000
00DFC03000
00CFC03000
01CFE07000
0187E06000
0187F06000
0183F0E000
0383F8C000
0301F8C000
0300FCC000
0700FFC000
06007F8000
06007F8000
06003F8000
0E003F8000
0E001F0000
1F001F0000
FFC00F0000
FFC00F0000
ENDCHAR
STARTCHAR Ograve
ENCODING 210
SWIDTH 833 0
DWIDTH 27 0
BBX 26 32 0 0
BITMAP
000C0000
001E0000
001F0000
000F8000
0003C000
0000C000
00000000
000FC000
007FF800
01FC3E00
03F01F00
07E01F00
0FC00F80
1F800F80
3F800FC0
3F000FC0
7F000FC0
7F001FC0
FE001FC0
FE001FC0
FE001FC0
FC003F80
FC003F80
FC003F00
FC007F00
7C007E00
7C00FC00
7E01FC00
3E03F000
1F0FE000
07FF8000
00FC0000
ENDCHAR
STARTCHAR Oacute
ENCODING 211
SWIDTH 833 0
DWIDTH 27 0
BBX 26 32 0 0
BITMAP
00000C00
00001E00
00003E00
00007C00
0000F000
0000C000
00000000
000FC000
007FF800
01FC3E00
03F01F00
07E01F00
0FC00F80
1F800F80
3F800FC0
3F000FC0
7F000FC0
7F001FC0
FE001FC0
FE001FC0
FE001FC0
FC003F80
FC003F80
FC003F00
FC007F00
7C007E00
7C00FC00
7E01FC00
3E03F000
1F0FE000
07FF8000
00FC0000
ENDCHAR
STARTCHAR Ocircumflex
ENCODING 212
SWIDTH 833 0
DWIDTH 27 0
BBX 26 32 0 0
BITMAP
0001C000
0003C000
0007E000
000FE000
001C3000
00301000
00000000
000FC000
007FF800
01FC3E00
03F01F00
07E01F00
0FC00F80
1F800F80
3F800FC0
3F000FC0
7F000FC0
7F001FC0
FE001FC0
FE001FC0
FE001FC0
FC003F80
FC003F80
FC003F00
FC007F00
7C007E00
7C00FC00
7E01FC00
3E03F000
1F0FE000
07FF8000
00FC0000
ENDCHAR
STARTCHAR Otilde
ENCODING 213
SWIDTH 833 0
DWIDTH 27 0
BBX 26 31 0 0
BITMAP
00038C00
0007FC00
000FF800
001C7000
00000000
00000000
000FC000
007FF800
01FC3E00
03F01F00
07E01F00
0FC00F80
1F800F80
3F800FC0
3F000FC0
7F000FC0
7F001FC0
FE001FC0
FE001FC0
FE001FC0
FC003F80
FC003F80
FC003F00
FC007F00
7C007E00
7C00FC00
7E01FC00
3E03F000
1F0FE000
07FF8000
00FC0000
ENDCHAR
STARTCHAR Odieresis
ENCODING 214
SWIDTH 833 0
DWIDTH 27 0
BBX 26 32 0 0
BITMAP
001C3800
003E7C00
003E7C00
003E7C00
001C3800
00000000
00000000
000FC000
007FF800
01FC3E00
03F01F00
07E01F00
0FC00F80
1F800F80
3F800FC0
3F000FC0
7F000FC0
7F001FC0
FE001FC0
FE001FC0
FE001FC0
FC003F80
FC003F80
FC003F00
FC007F00
7C007E00
7C00FC00
7E01FC00
3E03F000
1F0FE000
07FF8000
00FC0000
ENDCHAR
STARTCHAR multiply
ENCODING 215
SWIDTH 606 0
DWIDTH 20 0
BBX 17 17 1 0
BITMAP
200200
700700
F80F80
7C1F00
3E3E00
1F7C00
0FF800
07F000
03E000
07F000
0FF800
1F7C00
3E3E00
7C1F00
F80F80
700700
200200
ENDCHAR
STARTCHAR Oslash
ENCODING 216
SWIDTH 833 0
DWIDTH 27 0
BBX 26 28 0 -2
BITMAP
00000180
000FE300
007FFE00
01F87E00
03F03F00
07E03F00
0FC03F80
1F806F80
3F80CFC0
3F01CFC0
7F038FC0
7F071FC0
FE0E1FC0
FE0C1FC0
FE181FC0
FC303F80
FC603F80
FCE03F00
FDC07F00
7F807E00
7F00FC00
7E01FC00
3E03F000
1F87E000
3FFF8000
30FC0000
60000000
C0000000
ENDCHAR
STARTCHAR Ugrave
ENCODING 217
SWIDTH 833 0
DWIDTH 27 0
BBX 27 32 2 0
BITMAP
00180000
003C0000
003E0000
001F0000
00078000
00018000
00000000
7FF83FE0
7FF83FE0
1FC00F80
1FC00700
1F800600
1F800600
1F800E00
3F000C00
3F000C00
3F000C00
3F001C00
7E001800
7E001800
7E003800
7E003000
FC003000
FC003000
FC007000
FC006000
FC00E000
7C00C000
7E01C000
3F078000
1FFF0000
07F80000
ENDCHAR
STARTCHAR Uacute
ENCODING 218
SWIDTH 833 0
DWIDTH 27 0
BBX 27 32 2 0
BITMAP
00003000
00007800
0000F800
0001F000
0003C000
00030000
00000000
7FF83FE0
7FF83FE0
1FC00F80
1FC00700
1F800600
1F800600
1F800E00
3F000C00
3F000C00
3F000C00
3F001C00
7E001800
7E001800
7E003800
7E003000
FC003000
FC003000
FC007000
FC006000
FC00E000
7C00C000
7E01C000
3F078000
1FFF0000
07F80000
ENDCHAR
STARTCHAR Ucircumflex
ENCODING 219
SWIDTH 833 0
DWIDTH 27 0
BBX 27 32 2 0
BITMAP
0001C000
0003C000
0007E000
000FE000
001C3000
00301000
00000000
7FF83FE0
7FF83FE0
1FC00F80
1FC00700
1F800600
1F800600
1F800E00
3F000C00
3F000C00
3F000C00
3F001C00
7E001800
7E001800
7E003800
7E003000
FC003000
FC003000
FC007000
FC006000
FC00E000
7C00C000
7E01C000
3F078000
1FFF0000
07F80000
ENDCHAR
STARTCHAR Udieresis
ENCODING 220
SWIDTH 833 0
DWIDTH 27 0
BBX 27 32 2 0
BITMAP
001C3800
003E7C00
003E7C00
003E7C00
001C3800
00000000
00000000
7FF83FE0
7FF83FE0
1FC00F80
1FC00700
1F800600
1F800600
1F800E00
3F000C00
3F000C00
3F000C00
3F001C00
7E001800
7E001800
7E003800
7E003000
FC003000
FC003000
FC007000
FC006000
FC00E000
7C00C000
7E01C000
3F078000
1FFF0000
07F80000
ENDCHAR
STARTCHAR Yacute
ENCODING 221
SWIDTH 704 0
DWIDTH 23 0
BBX 25 32 1 0
BITMAP
0000C000
0001E000
0003E000
0007C000
000F0000
000C0000
00000000
FFF1FF80
FFF1FF80
3F803E00
1F803800
1F807000
0FC07000
0FC0E000
0FC1C000
07E18000
07E38000
03F70000
03FE0000
03FC0000
01FC0000
01F80000
01F80000
03F00000
03F00000
03F00000
03F00000
07E00000
07E00000
07E00000
7FFE0000
7FFE0000
ENDCHAR
STARTCHAR Thorn
ENCODING 222
SWIDTH 741 0
DWIDTH 24 0
BBX 24 25 -1 0
BITMAP
07FF80
07FF80
00FE00
00FC00
00FC00
00FC00
01FFF0
01FFFC
01F87E
03F83E
03F03F
03F03F
03F03F
07E03F
07E07E
07E07E
07E0FC
0FC1F8
0FFFF0
0FFF80
0FC000
1F8000
1F8000
FFF000
FFF000
ENDCHAR
STARTCHAR germandbls
ENCODING 223
SWIDTH 574 0
DWIDTH 19 0
BBX 20 31 -2 -6
BITMAP
003F80
007BC0
00F1E0
00E1F0
01E1F0
01E1F0
03E1F0
03C1E0
03C3E0
03C3C0
07CF00
07C700
07C380
0783C0
0783E0
0F83E0
0F83E0
0F83E0
0F83E0
0F03E0
1F07E0
1F07C0
1F07C0
1F0F80
1E7E00
3E0000
3E0000
7E0000
7C0000
7C0000
FC0000
ENDCHAR
STARTCHAR agrave
ENCODING 224
SWIDTH 667 0
DWIDTH 21 0
BBX 20 23 0 0
BITMAP
018000
03C000
03E000
01F000
007800
001800
000000
01E3E0
07FBE0
1F8FE0
3F0FC0
3E0FC0
7E0FC0
7C0F80
FC0F80
FC0F80
F81F80
F81F10
F83F30
FC3F70
7CFFE0
7FDFC0
1F0F00
ENDCHAR
STARTCHAR aacute
ENCODING 225
SWIDTH 667 0
DWIDTH 21 0
BBX 20 23 0 0
BITMAP
000600
000F00
001F00
003E00
007800
006000
000000
01E3E0
07FBE0
1F8FE0
3F0FC0
3E0FC0
7E0FC0
7C0F80
FC0F80
FC0F80
F81F80
F81F10
F83F30
FC3F70
7CFFE0
7FDFC0
1F0F00
ENDCHAR
STARTCHAR acircumflex
ENCODING 226
SWIDTH 667 0
DWIDTH 21 0
BBX 20 23 0 0
BITMAP
000E00
001E00
003F00
007F00
00E180
018080
000000
01E3E0
07FBE0
1F8FE0
3F0FC0
3E0FC0
7E0FC0
7C0F80
FC0F80
FC0F80
F81F80
F81F10
F83F30
FC3F70
7CFFE0
7FDFC0
1F0F00
ENDCHAR
STARTCHAR atilde
ENCODING 227
SWIDTH 667 0
DWIDTH 21 0
BBX 20 22 0 0
BITMAP
007180
00FF80
01FF00
038E00
000000
000000
01E3E0
07FBE0
1F8FE0
3F0FC0
3E0FC0
7E0FC0
7C0F80
FC0F80
FC0F80
F81F80
F81F10
F83F30
FC3F70
7CFFE0
7FDFC0
1F0F00
ENDCHAR
STARTCHAR adieresis
ENCODING 228
SWIDTH 667 0
DWIDTH 21 0
BBX 20 23 0 0
BITMAP
01C380
03E7C0
03E7C0
03E7C0
01C380
000000
000000
01E3E0
07FBE0
1F8FE0
3F0FC0
3E0FC0
7E0FC0
7C0F80
FC0F80
FC0F80
F81F80
F81F10
F83F30
FC3F70
7CFFE0
7FDFC0
1F0F00
ENDCHAR
STARTCHAR aring
ENCODING 229
SWIDTH 667 0
DWIDTH 21 0
BBX 20 23 0 0
BITMAP
003800
007C00
00C600
00C600
007C00
003800
000000
01E3E0
07FBE0
1F8FE0
3F0FC0
3E0FC0
7E0FC0
7C0F80
FC0F80
FC0F80
F81F80
F81F10
F83F30
FC3F70
7CFFE0
7FDFC0
1F0F00
ENDCHAR
STARTCHAR ae
ENCODING 230
SWIDTH 815 0
DWIDTH 27 0
BBX 27 16 -1 0
BITMAP
07F83F80
0F3EF3C0
1F0FE1E0
1F07C1E0
1F0FC3E0
0F0FC3E0
000F8F80
00FFFF00
0FFFF000
3E1F0000
7C1F0000
F83F0000
FC3F8180
FCEF8380
FFC7FE00
7F03F800
ENDCHAR
STARTCHAR ccedilla
ENCODING 231
SWIDTH 537 0
DWIDTH 17 0
BBX 16 23 0 -7
BITMAP
03FC
0FCE
1F0F
3F1F
7E1F
7E1F
FC0E
FC00
FC00
F800
F800
F804
FC0C
7E38
3FF0
0FC0
0200
0600
0F80
01C0
31C0
1F80
0F00
ENDCHAR
STARTCHAR egrave
ENCODING 232
SWIDTH 519 0
DWIDTH 17 0
BBX 16 23 0 0
BITMAP
0180
03C0
03E0
01F0
0078
0018
0000
03FC
079E
1F0F
3E0F
3E1F
7C1F
7C3E
FCFC
FFE0
FC00
F800
F800
FC0C
7C38
3FF0
0FC0
ENDCHAR
STARTCHAR eacute
ENCODING 233
SWIDTH 519 0
DWIDTH 17 0
BBX 16 23 0 0
BITMAP
000C
001E
003E
007C
00F0
00C0
0000
03FC
079E
1F0F
3E0F
3E1F
7C1F
7C3E
FCFC
FFE0
FC00
F800
F800
FC0C
7C38
3FF0
0FC0
ENDCHAR
STARTCHAR ecircumflex
ENCODING 234
SWIDTH 519 0
DWIDTH 17 0
BBX 16 23 0 0
BITMAP
0038
0078
00FC
01FC
0386
0602
0000
03FC
079E
1F0F
3E0F
3E1F
7C1F
7C3E
FCFC
FFE0
FC00
F800
F800
FC0C
7C38
3FF0
0FC0
ENDCHAR
STARTCHAR edieresis
ENCODING 235
SWIDTH 519 0
DWIDTH 17 0
BBX 16 23 0 0
BITMAP
070E
0F9F
0F9F
0F9F
070E
0000
0000
03FC
079E
1F0F
3E0F
3E1F
7C1F
7C3E
FCFC
FFE0
FC00
F800
F800
FC0C
7C38
3FF0
0FC0
ENDCHAR
STARTCHAR igrave
ENCODING 236
SWIDTH 389 0
DWIDTH 13 0
BBX 10 23 1 0
BITMAP
3000
7800
7C00
3E00
0F00
0300
0000
0F80
7F80
1F80
1F00
3F00
3F00
3E00
3E00
7E00
7C00
7C40
FCC0
F980
FB80
FF00
7C00
ENDCHAR
STARTCHAR iacute
ENCODING 237
SWIDTH 389 0
DWIDTH 13 0
BBX 11 23 1 0
BITMAP
00C0
01E0
03E0
07C0
0F00
0C00
0000
0F80
7F80
1F80
1F00
3F00
3F00
3E00
3E00
7E00
7C00
7C40
FCC0
F980
FB80
FF00
7C00
ENDCHAR
STARTCHAR icircumflex
ENCODING 238
SWIDTH 389 0
DWIDTH 13 0
BBX 11 23 1 0
BITMAP
0380
0780
0FC0
1FC0
3860
6020
0000
0F80
7F80
1F80
1F00
3F00
3F00
3E00
3E00
7E00
7C00
7C40
FCC0
F980
FB80
FF00
7C00
ENDCHAR
STARTCHAR idieresis
ENCODING 239
SWIDTH 389 0
DWIDTH 13 0
BBX 13 23 1 0
BITMAP
3870
7CF8
7CF8
7CF8
3870
0000
0000
0F80
7F80
1F80
1F00
3F00
3F00
3E00
3E00
7E00
7C00
7C40
FCC0
F980
FB80
FF00
7C00
ENDCHAR
STARTCHAR eth
ENCODING 240
SWIDTH 574 0
DWIDTH 19 0
BBX 18 25 0 0
BITMAP
018300
01E700
007E00
003800
00FC00
01DE00
008F00
000F00
000780
03FF80
0FCF80
1F07C0
3F07C0
3E07C0
7E07C0
7C07C0
FC07C0
FC0FC0
F80FC0
F80F80
F81F80
781F00
7C3E00
3CF800
0FE000
ENDCHAR
STARTCHAR ntilde
ENCODING 241
SWIDTH 685 0
DWIDTH 22 0
BBX 21 22 0 0
BITMAP
001C60
003FE0
007FC0
00E380
000000
000000
0F8780
7F9FC0
0FBFE0
0FF3E0
0FC3E0
1FC3E0
1F87E0
1F07C0
3F0FC0
3E0F80
3E0F88
7E0F98
7C1F30
7C1FE0
F81FC0
F80F00
ENDCHAR
STARTCHAR ograve
ENCODING 242
SWIDTH 574 0
DWIDTH 19 0
BBX 18 23 0 0
BITMAP
00C000
01E000
01F000
00F800
003C00
000C00
000000
03FC00
0FCF00
1F0F80
3F07C0
7E07C0
7E07C0
FC0FC0
FC0FC0
FC0FC0
FC0FC0
F81F80
F81F80
F83F00
7C3E00
3CF800
0FE000
ENDCHAR
STARTCHAR oacute
ENCODING 243
SWIDTH 574 0
DWIDTH 19 0
BBX 18 23 0 0
BITMAP
000600
000F00
001F00
003E00
007800
006000
000000
03FC00
0FCF00
1F0F80
3F07C0
7E07C0
7E07C0
FC0FC0
FC0FC0
FC0FC0
FC0FC0
F81F80
F81F80
F83F00
7C3E00
3CF800
0FE000
ENDCHAR
STARTCHAR ocircumflex
ENCODING 244
SWIDTH 574 0
DWIDTH 19 0
BBX 18 23 0 0
BITMAP
001C00
003C00
007E00
00FE00
01C300
030100
000000
03FC00
0FCF00
1F0F80
3F07C0
7E07C0
7E07C0
FC0FC0
FC0FC0
FC0FC0
FC0FC0
F81F80
F81F80
F83F00
7C3E00
3CF800
0FE000
ENDCHAR
STARTCHAR otilde
ENCODING 245
SWIDTH 574 0
DWIDTH 19 0
BBX 18 22 0 0
BITMAP
007180
00FF80
01FF00
038E00
000000
000000
03FC00
0FCF00
1F0F80
3F07C0
7E07C0
7E07C0
FC0FC0
FC0FC0
FC0FC0
FC0FC0
F81F80
F81F80
F83F00
7C3E00
3CF800
0FE000
ENDCHAR
STARTCHAR odieresis
ENCODING 246
SWIDTH 574 0
DWIDTH 19 0
BBX 18 23 0 0
BITMAP
038700
07CF80
07CF80
07CF80
038700
000000
000000
03FC00
0FCF00
1F0F80
3F07C0
7E07C0
7E07C0
FC0FC0
FC0FC0
FC0FC0
FC0FC0
F81F80
F81F80
F83F00
7C3E00
3CF800
0FE000
ENDCHAR
STARTCHAR divide
ENCODING 247
SWIDTH 606 0
DWIDTH 20 0
BBX 17 17 1 0
BITMAP
00C000
01E000
03F000
01E000
00C000
000000
000000
FFFF80
FFFF80
FFFF80
000000
000000
00C000
01E000
03F000
01E000
00C000
ENDCHAR
STARTCHAR oslash
ENCODING 248
SWIDTH 574 0
DWIDTH 19 0
BBX 18 24 0 -4
BITMAP
000100
000300
000300
000600
01FE00
07DF00
1F1F80
3F17C0
3E37C0
7C67C0
7C67C0
FCCFC0
F8CFC0
F98FC0
FB9F80
FB1F80
7A3F00
7E3E00
3EFC00
0FF000
180000
300000
300000
200000
ENDCHAR
STARTCHAR ugrave
ENCODING 249
SWIDTH 685 0
DWIDTH 21 0
BBX 20 23 0 0
BITMAP
018000
03C000
03E000
01F000
007800
001800
000000
1F83E0
7F87E0
1F07C0
1F07C0
3F0FC0
3E0F80
3E0F80
7E1F80
7C1F00
7C3F00
7C3F30
F87E70
F9FEE0
FFBFC0
7F3F80
3C1E00
ENDCHAR
STARTCHAR uacute
ENCODING 250
SWIDTH 685 0
DWIDTH 21 0
BBX 20 23 0 0
BITMAP
000600
000F00
001F00
003E00
007800
006000
000000
1F83E0
7F87E0
1F07C0
1F07C0
3F0FC0
3E0F80
3E0F80
7E1F80
7C1F00
7C3F00
7C3F30
F87E70
F9FEE0
FFBFC0
7F3F80
3C1E00
ENDCHAR
STARTCHAR ucircumflex
ENCODING 251
SWIDTH 685 0
DWIDTH 21 0
BBX 20 23 0 0
BITMAP
001C00
003C00
007E00
00FE00
01C300
030100
000000
1F83E0
7F87E0
1F07C0
1F07C0
3F0FC0
3E0F80
3E0F80
7E1F80
7C1F00
7C3F00
7C3F30
F87E70
F9FEE0
FFBFC0
7F3F80
3C1E00
ENDCHAR
STARTCHAR udieresis
ENCODING 252
SWIDTH 685 0
DWIDTH 21 0
BBX 20 23 0 0
BITMAP
038700
07CF80
07CF80
07CF80
038700
000000
000000
1F83E0
7F87E0
1F07C0
1F07C0
3F0FC0
3E0F80
3E0F80
7E1F80
7C1F00
7C3F00
7C3F30
F87E70
F9FEE0
FFBFC0
7F3F80
3C1E00
ENDCHAR
STARTCHAR yacute
ENCODING 253
SWIDTH 519 0
DWIDTH 17 0
BBX 19 30 -2 -7
BITMAP
000300
000780
000F80
001F00
003C00
003000
000000
0781C0
0FC3E0
0FE3E0
1FE1E0
1BE1C0
33F1C0
31F180
01F180
01F100
00FB00
00FA00
00FE00
00FC00
007C00
007800
007800
003000
006000
70C000
F9C000
FB8000
7F0000
3C0000
ENDCHAR
STARTCHAR thorn
ENCODING 254
SWIDTH 648 0
DWIDTH 20 0
BBX 23 29 -4 -7
BITMAP
003E00
01FE00
007C00
007C00
007C00
00F800
00F9F0
00F7FC
00FC7C
01F87E
01F83E
01F03E
03F03E
03E07E
03E07E
03C07C
07C0FC
07C0F8
07C1F8
0FE3F0
0FBFC0
0F9F00
1F8000
1F0000
1F0000
1F0000
3F0000
FFC000
FFC000
ENDCHAR
STARTCHAR ydieresis
ENCODING 255
SWIDTH 519 0
DWIDTH 18 0
BBX 19 30 -2 -7
BITMAP
01C380
03E7C0
03E7C0
03E7C0
01C380
000000
000000
0781C0
0FC3E0
0FE3E0
1FE1E0
1BE1C0
33F1C0
31F180
01F180
01F100
00FB00
00FA00
00FE00
00FC00
007C00
007800
007800
003000
006000
70C000
F9C000
FB8000
7F0000
3C0000
ENDCHAR
STARTCHAR Amacron
ENCODING 256
SWIDTH 741 0
DWIDTH 24 0
BBX 27 29 -3 0
BITMAP
000FF800
001FF800
001FF000
00000000
00006000
0000F000
0001F000
0001F000
0003F000
0003F000
0007F800
000FF800
000DF800
001DF800
0019F800
0038FC00
0070FC00
0070FC00
00E0FC00
00E0FC00
01FFFE00
01FFFE00
03807E00
07007E00
0F007E00
0E003F00
3E003F00
FFC3FFE0
FFC3FFE0
ENDCHAR
STARTCHAR amacron
ENCODING 257
SWIDTH 667 0
DWIDTH 21 0
BBX 20 20 0 0
BITMAP
01FF00
03FF00
03FE00
000000
01E3E0
07FBE0
1F8FE0
3F0FC0
3E0FC0
7E0FC0
7C0F80
FC0F80
FC0F80
F81F80
F81F10
F83F30
FC3F70
7CFFE0
7FDFC0
1F0F00
ENDCHAR
STARTCHAR Abreve
ENCODING 258
SWIDTH 741 0
DWIDTH 24 0
BBX 27 32 -3 0
BITMAP
00180C00
00180C00
001C1800
000FF800
000FF000
0003C000
00000000
00006000
0000F000
0001F000
0001F000
0003F000
0003F000
0007F800
000FF800
000DF800
001DF800
0019F800
0038FC00
0070FC00
0070FC00
00E0FC00
00E0FC00
01FFFE00
01FFFE00
03807E00
07007E00
0F007E00
0E003F00
3E003F00
FFC3FFE0
FFC3FFE0
ENDCHAR
STARTCHAR abreve
ENCODING 259
SWIDTH 667 0
DWIDTH 21 0
BBX 20 23 0 0
BITMAP
030180
030180
038300
01FF00
01FE00
007800
000000
01E3E0
07FBE0
1F8FE0
3F0FC0
3E0FC0
7E0FC0
7C0F80
FC0F80
FC0F80
F81F80
F81F10
F83F30
FC3F70
7CFFE0
7FDFC0
1F0F00
ENDCHAR
STARTCHAR Aogonek
ENCODING 260
SWIDTH 741 0
DWIDTH 24 0
BBX 27 30 -3 -5
BITMAP
00006000
0000F000
0001F000
0001F000
0003F000
0003F000
0007F800
000FF800
000DF800
001DF800
0019F800
0038FC00
0070FC00
0070FC00
00E0FC00
00E0FC00
01FFFE00
01FFFE00
03807E00
07007E00
0F007E00
0E003F00
3E003F00
FFC3FFE0
FFC3FFE0
00060000
000C0000
00198000
001F0000
000E0000
ENDCHAR
STARTCHAR aogonek
ENCODING 261
SWIDTH 667 0
DWIDTH 21 0
BBX 20 21 0 -5
BITMAP
01E3E0
07FBE0
1F8FE0
3F0FC0
3E0FC0
7E0FC0
7C0F80
FC0F80
FC0F80
F81F80
F81F10
F83F30
FC3F70
7CFFE0
7FDFC0
1F0F00
006000
00C000
019800
01F000
00E000
ENDCHAR
STARTCHAR Cacute
ENCODING 262
SWIDTH 759 0
DWIDTH 24 0
BBX 24 32 1 0
BITMAP
000180
0003C0
0007C0
000F80
001E00
001800
000000
001F81
00FFE3
01F877
07E01F
0FC01E
1F800E
3F800E
3F000E
7F000C
7F000C
7E0000
FE0000
FE0000
FE0000
FC0000
FC0000
FC0000
FC0000
FC0018
7E0030
7E0070
3F00E0
1FC3C0
0FFF80
01FE00
ENDCHAR
STARTCHAR cacute
ENCODING 263
SWIDTH 537 0
DWIDTH 17 0
BBX 16 23 0 0
BITMAP
0030
0078
00F8
01F0
03C0
0300
0000
03FC
0FCE
1F0F
3F1F
7E1F
7E1F
FC0E
FC00
FC00
F800
F800
F804
FC0C
7E38
3FF0
0FC0
ENDCHAR
STARTCHAR Ccircumflex
ENCODING 264
SWIDTH 759 0
DWIDTH 24 0
BBX 24 32 1 0
BITMAP
000700
000F00
001F80
003F80
0070C0
00C040
000000
001F81
00FFE3
01F877
07E01F
0FC01E
1F800E
3F800E
3F000E
7F000C
7F000C
7E0000
FE0000
FE0000
FE0000
FC0000
FC0000
FC0000
FC0000
FC0018
7E0030
7E0070
3F00E0
1FC3C0
0FFF80
01FE00
ENDCHAR
STARTCHAR ccircumflex
ENCODING 265
SWIDTH 537 0
DWIDTH 17 0
BBX 16 23 0 0
BITMAP
0070
00F0
01F8
03F8
070C
0C04
0000
03FC
0FCE
1F0F
3F1F
7E1F
7E1F
FC0E
FC00
FC00
F800
F800
F804
FC0C
7E38
3FF0
0FC0
ENDCHAR
STARTCHAR Cdotaccent
ENCODING 266
SWIDTH 759 0
DWIDTH 24 0
BBX 24 31 1 0
BITMAP
001C00
003E00
003E00
003E00
001C00
000000
001F81
00FFE3
01F877
07E01F
0FC01E
1F800E
3F800E
3F000E
7F000C
7F000C
7E0000
FE0000
FE0000
FE0000
FC0000
FC0000
FC0000
FC0000
FC0018
7E0030
7E0070
3F00E0
1FC3C0
0FFF80
01FE00
ENDCHAR
STARTCHAR cdotaccent
ENCODING 267
SWIDTH 537 0
DWIDTH 17 0
BBX 16 22 0 0
BITMAP
01C0
03E0
03E0
03E0
01C0
0000
03FC
0FCE
1F0F
3F1F
7E1F
7E1F
FC0E
FC00
FC00
F800
F800
F804
FC0C
7E38
3FF0
0FC0
ENDCHAR
STARTCHAR Ccaron
ENCODING 268
SWIDTH 759 0
DWIDTH 24 0
BBX 24 32 1 0
BITMAP
004060
0061C0
003F80
003F00
001E00
001C00
000000
001F81
00FFE3
01F877
07E01F
0FC01E
1F800E
3F800E
3F000E
7F000C
7F000C
7E0000
FE0000
FE0000
FE0000
FC0000
FC0000
FC0000
FC0000
FC0018
7E0030
7E0070
3F00E0
1FC3C0
0FFF80
01FE00
ENDCHAR
STARTCHAR ccaron
ENCODING 269
SWIDTH 537 0
DWIDTH 17 0
BBX 16 23 0 0
BITMAP
0406
061C
03F8
03F0
01E0
01C0
0000
03FC
0FCE
1F0F
3F1F
7E1F
7E1F
FC0E
FC00
FC00
F800
F800
F804
FC0C
7E38
3FF0
0FC0
ENDCHAR
STARTCHAR Dcaron
ENCODING 270
SWIDTH 833 0
DWIDTH 27 0
BBX 28 32 -2 0
BITMAP
00101800
00187000
000FE000
000FC000
00078000
00070000
00000000
07FFF800
07FFFF00
00FE1F80
00FC07C0
00FC07E0
00FC03E0
01F803F0
01F803F0
01F803F0
01F003F0
03F003F0
03F007F0
03F007F0
07E007F0
07E007E0
07E00FE0
07E00FE0
0FC00FC0
0FC01FC0
0FC01F80
0FC03F00
1F807E00
1F81FC00
FFFFF000
FFFF0000
ENDCHAR
STARTCHAR dcaron
ENCODING 271
SWIDTH 893 0
DWIDTH 30 0
BBX 31 25 0 0
BITMAP
00003C1C
0003FC3E
0000FC7E
0000FC7E
0000F87E
0000F83C
0000F80C
0001F018
0001F030
01F1F060
07FFE0C0
1F8FE180
3F07E000
3E07E000
7E07C000
7E07C000
FC0FC000
FC0F8000
FC0F8000
F81F8800
F81F9800
FC3F3000
7C6FE000
7FCFC000
1F8F8000
ENDCHAR
STARTCHAR Dcroat
ENCODING 272
SWIDTH 833 0
DWIDTH 27 0
BBX 28 25 -2 0
BITMAP
07FFF800
07FFFF00
00FE1F80
00FC07C0
00FC07E0
00FC03E0
01F803F0
01F803F0
01F803F0
01F803F0
3FFF83F0
3FFF87F0
03F007F0
07E007F0
07E007E0
07E00FE0
07E00FE0
0FC00FC0
0FC01FC0
0FC01F80
0FC03F00
1F807E00
1F81FC00
FFFFF000
FFFF0000
ENDCHAR
STARTCHAR dcroat
ENCODING 273
SWIDTH 667 0
DWIDTH 22 0
BBX 26 25 0 0
BITMAP
00003C00
0003FC00
0000FC00
0000FC00
0000F800
0000F800
0000F800
007FFFC0
007FFFC0
01F1F000
07FFE000
1F8FE000
3F07E000
3E07E000
7E07C000
7E07C000
FC0FC000
FC0F8000
FC0F8000
F81F8800
F81F9800
FC3F3000
7C6FE000
7FCFC000
1F8F8000
ENDCHAR
STARTCHAR Emacron
ENCODING 274
SWIDTH 741 0
DWIDTH 24 0
BBX 26 29 -1 0
BITMAP
001FF000
003FF000
003FE000
00000000
07FFFFC0
07FFFFC0
00FC0FC0
00FC0780
00FC0380
01F80380
01F80380
01F83300
01F87300
03F06000
03F1E000
03FFE000
03FFE000
07E3C000
07E1C000
07E1C000
07E1C300
0FC18700
0FC18600
0FC00E00
0FC01E00
0F803C00
1F80FC00
FFFFFC00
FFFFFC00
ENDCHAR
STARTCHAR emacron
ENCODING 275
SWIDTH 519 0
DWIDTH 17 0
BBX 16 20 0 0
BITMAP
07FC
0FFC
0FF8
0000
03FC
079E
1F0F
3E0F
3E1F
7C1F
7C3E
FCFC
FFE0
FC00
F800
F800
FC0C
7C38
3FF0
0FC0
ENDCHAR
STARTCHAR Ebreve
ENCODING 276
SWIDTH 741 0
DWIDTH 24 0
BBX 26 32 -1 0
BITMAP
00301800
00301800
00383000
001FF000
001FE000
00078000
00000000
07FFFFC0
07FFFFC0
00FC0FC0
00FC0780
00FC0380
01F80380
01F80380
01F83300
01F87300
03F06000
03F1E000
03FFE000
03FFE000
07E3C000
07E1C000
07E1C000
07E1C300
0FC18700
0FC18600
0FC00E00
0FC01E00
0F803C00
1F80FC00
FFFFFC00
FFFFFC00
ENDCHAR
STARTCHAR ebreve
ENCODING 277
SWIDTH 519 0
DWIDTH 17 0
BBX 16 23 0 0
BITMAP
0C06
0C06
0E0C
07FC
07F8
01E0
0000
03FC
079E
1F0F
3E0F
3E1F
7C1F
7C3E
FCFC
FFE0
FC00
F800
F800
FC0C
7C38
3FF0
0FC0
ENDCHAR
STARTCHAR Edotaccent
ENCODING 278
SWIDTH 741 0
DWIDTH 24 0
BBX 26 31 -1 0
BITMAP
00070000
000F8000
000F8000
000F8000
00070000
00000000
07FFFFC0
07FFFFC0
00FC0FC0
00FC0780
00FC0380
01F80380
01F80380
01F83300
01F87300
03F06000
03F1E000
03FFE000
03FFE000
07E3C000
07E1C000
07E1C000
07E1C300
0FC18700
0FC18600
0FC00E00
0FC01E00
0F803C00
1F80FC00
FFFFFC00
FFFFFC00
ENDCHAR
STARTCHAR edotaccent
ENCODING 279
SWIDTH 519 0
DWIDTH 17 0
BBX 16 22 0 0
BITMAP
01C0
03E0
03E0
03E0
01C0
0000
03FC
079E
1F0F
3E0F
3E1F
7C1F
7C3E
FCFC
FFE0
FC00
F800
F800
FC0C
7C38
3FF0
0FC0
ENDCHAR
STARTCHAR Eogonek
ENCODING 280
SWIDTH 741 0
DWIDTH 24 0
BBX 26 30 -1 -5
BITMAP
07FFFFC0
07FFFFC0
00FC0FC0
00FC0780
00FC0380
01F80380
01F80380
01F83300
01F87300
03F06000
03F1E000
03FFE000
03FFE000
07E3C000
07E1C000
07E1C000
07E1C300
0FC18700
0FC18600
0FC00E00
0FC01E00
0F803C00
1F80FC00
FFFFFC00
FFFFFC00
00180000
00300000
00660000
007C0000
00380000
ENDCHAR
STARTCHAR eogonek
ENCODING 281
SWIDTH 519 0
DWIDTH 17 0
BBX 16 21 0 -5
BITMAP
03FC
079E
1F0F
3E0F
3E1F
7C1F
7C3E
FCFC
FFE0
FC00
F800
F800
FC0C
7C38
3FF0
0FC0
0300
0600
0CC0
0F80
0700
ENDCHAR
STARTCHAR Ecaron
ENCODING 282
SWIDTH 741 0
DWIDTH 24 0
BBX 26 32 -1 0
BITMAP
00203000
0030E000
001FC000
001F8000
000F0000
000E0000
00000000
07FFFFC0
07FFFFC0
00FC0FC0
00FC0780
00FC0380
01F80380
01F80380
01F83300
01F87300
03F06000
03F1E000
03FFE000
03FFE000
07E3C000
07E1C000
07E1C000
07E1C300
0FC18700
0FC18600
0FC00E00
0FC01E00
0F803C00
1F80FC00
FFFFFC00
FFFFFC00
ENDCHAR
STARTCHAR ecaron
ENCODING 283
SWIDTH 519 0
DWIDTH 17 0
BBX 16 23 0 0
BITMAP
0406
061C
03F8
03F0
01E0
01C0
0000
03FC
079E
1F0F
3E0F
3E1F
7C1F
7C3E
FCFC
FFE0
FC00
F800
F800
FC0C
7C38
3FF0
0FC0
ENDCHAR
STARTCHAR Gcircumflex
ENCODING 284
SWIDTH 815 0
DWIDTH 25 0
BBX 25 32 0 0
BITMAP
00038000
00078000
000FC000
001FC000
00386000
00602000
00000000
000F8080
007FF180
01F83F80
03F01F80
07E00F00
0FC00F00
1F800F00
3F800600
3F000600
7F000600
7F000600
FE000000
FE000000
FE000000
FE07FF80
FC07FF80
FC00FC00
FC00FC00
FC00FC00
7C00F800
7E01F800
3E03F800
1F87B000
07FF3000
00F83000
ENDCHAR
STARTCHAR gcircumflex
ENCODING 285
SWIDTH 611 0
DWIDTH 20 0
BBX 22 32 -2 -7
BITMAP
000380
000780
000FC0
001FC0
003860
006020
000000
00003C
00007C
007FDC
01F3DC
03E1E0
07C1F0
07C1F0
07C1F0
07C3F0
07C3F0
03C7E0
07EFC0
0F7E00
1C0000
3E0000
3FFC00
3FFF00
1FFF80
1FFF80
7C1F80
F00780
F00780
F80F00
7F3E00
0FF000
ENDCHAR
STARTCHAR Gbreve
ENCODING 286
SWIDTH 815 0
DWIDTH 25 0
BBX 25 32 0 0
BITMAP
00603000
00603000
00706000
003FE000
003FC000
000F0000
00000000
000F8080
007FF180
01F83F80
03F01F80
07E00F00
0FC00F00
1F800F00
3F800600
3F000600
7F000600
7F000600
FE000000
FE000000
FE000000
FE07FF80
FC07FF80
FC00FC00
FC00FC00
FC00FC00
7C00F800
7E01F800
3E03F800
1F87B000
07FF3000
00F83000
ENDCHAR
STARTCHAR gbreve
ENCODING 287
SWIDTH 611 0
DWIDTH 20 0
BBX 22 32 -2 -7
BITMAP
00C060
00C060
00E0C0
007FC0
007F80
001E00
000000
00003C
00007C
007FDC
01F3DC
03E1E0
07C1F0
07C1F0
07C1F0
07C3F0
07C3F0
03C7E0
07EFC0
0F7E00
1C0000
3E0000
3FFC00
3FFF00
1FFF80
1FFF80
7C1F80
F00780
F00780
F80F00
7F3E00
0FF000
ENDCHAR
STARTCHAR Gdotaccent
ENCODING 288
SWIDTH 815 0
DWIDTH 25 0
BBX 25 31 0 0
BITMAP
000E0000
001F0000
001F0000
001F0000
000E0000
00000000
000F8080
007FF180
01F83F80
03F01F80
07E00F00
0FC00F00
1F800F00
3F800600
3F000600
7F000600
7F000600
FE000000
FE000000
FE000000
FE07FF80
FC07FF80
FC00FC00
FC00FC00
FC00FC00
7C00F800
7E01F800
3E03F800
1F87B000
07FF3000
00F83000
ENDCHAR
STARTCHAR gdotaccent
ENCODING 289
SWIDTH 611 0
DWIDTH 20 0
BBX 22 31 -2 -7
BITMAP
000E00
001F00
001F00
001F00
000E00
000000
00003C
00007C
007FDC
01F3DC
03E1E0
07C1F0
07C1F0
07C1F0
07C3F0
07C3F0
03C7E0
07EFC0
0F7E00
1C0000
3E0000
3FFC00
3FFF00
1FFF80
1FFF80
7C1F80
F00780
F00780
F80F00
7F3E00
0FF000
ENDCHAR
STARTCHAR Gcommaaccent
ENCODING 290
SWIDTH 815 0
DWIDTH 25 0
BBX 25 38 0 -13
BITMAP
000F8080
007FF180
01F83F80
03F01F80
07E00F00
0FC00F00
1F800F00
3F800600
3F000600
7F000600
7F000600
FE000000
FE000000
FE000000
FE07FF80
FC07FF80
FC00FC00
FC00FC00
FC00FC00
7C00F800
7E01F800
3E03F800
1F87B000
07FF3000
00F83000
00000000
001C0000
003E0000
007E0000
007E0000
007E0000
003C0000
000C0000
00180000
00300000
00600000
00C00000
01800000
ENDCHAR
STARTCHAR gcommaaccent
ENCODING 291
SWIDTH 611 0
DWIDTH 20 0
BBX 22 38 -2 -7
BITMAP
0000C0
000180
000300
000600
000C00
001800
001E00
003F00
003F00
003F00
003E00
001C00
000000
00003C
00007C
007FDC
01F3DC
03E1E0
07C1F0
07C1F0
07C1F0
07C3F0
07C3F0
03C7E0
07EFC0
0F7E00
1C0000
3E0000
3FFC00
3FFF00
1FFF80
1FFF80
7C1F80
F00780
F00780
F80F00
7F3E00
0FF000
ENDCHAR
STARTCHAR Hcircumflex
ENCODING 292
SWIDTH 870 0
DWIDTH 29 0
BBX 31 32 -1 0
BITMAP
00007000
0000F000
0001F800
0003F800
00070C00
000C0400
00000000
07FF9FFE
07FF9FFE
00FC03F0
00FC03F0
00F803F0
01F807E0
01F807E0
01F807E0
01F807C0
03F00FC0
03F00FC0
03FFFFC0
03FFFF80
07E01F80
07E01F80
07E01F80
07E01F00
0FC03F00
0FC03F00
0FC03F00
0F803E00
1F807E00
1F807E00
FFF3FFC0
FFF3FFC0
ENDCHAR
STARTCHAR hcircumflex
ENCODING 293
SWIDTH 685 0
DWIDTH 22 0
BBX 21 32 0 0
BITMAP
003800
007800
00FC00
01FC00
038600
060200
000000
00F000
07F000
01F000
01F000
03E000
03E000
03E000
07C000
07C000
07C780
0F9FC0
0FBFE0
0FF3E0
1FC3E0
1F87E0
1F07C0
1F07C0
3E0FC0
3E0F80
3E0F98
7E1F18
7C1F70
7C1FE0
FC0FC0
FC0700
ENDCHAR
STARTCHAR Hbar
ENCODING 294
SWIDTH 870 0
DWIDTH 29 0
BBX 31 25 -1 0
BITMAP
07FF9FFE
07FF9FFE
00FC03F0
00FC03F0
00F803F0
01F807E0
01F807E0
01F807E0
FFFFFFFE
FFFFFFFE
03F00FC0
03FFFFC0
03FFFF80
07E01F80
07E01F80
07E01F80
07E01F00
0FC03F00
0FC03F00
0FC03F00
0F803E00
1F807E00
1F807E00
FFF3FFC0
FFF3FFC0
ENDCHAR
STARTCHAR hbar
ENCODING 295
SWIDTH 685 0
DWIDTH 22 0
BBX 24 25 -3 0
BITMAP
001E00
00FE00
003E00
003E00
007C00
007C00
007C00
FFFF80
FFFF80
00F8F0
01F3F8
01F7FC
01FE7C
03F87C
03F0FC
03E0F8
03E0F8
07C1F8
07C1F0
07C1F3
0FC3E3
0F83EE
0F83FC
1F81F8
1F80E0
ENDCHAR
STARTCHAR Itilde
ENCODING 296
SWIDTH 444 0
DWIDTH 15 0
BBX 17 30 -1 0
BITMAP
00E300
01FF00
03FE00
071C00
000000
07FF80
07FF80
00FC00
00FC00
00FC00
01F800
01F800
01F800
01F800
03F000
03F000
03F000
03F000
07E000
07E000
07E000
0FC000
0FC000
0FC000
0FC000
1F8000
1F8000
1FC000
FFF000
FFF000
ENDCHAR
STARTCHAR itilde
ENCODING 297
SWIDTH 389 0
DWIDTH 13 0
BBX 11 21 1 0
BITMAP
1C60
3FE0
7FC0
E380
0000
1F00
FF00
3F00
3F00
3E00
3E00
7E00
7C00
7C00
7C00
FCC0
F8C0
F980
FB00
FE00
7C00
ENDCHAR
STARTCHAR Imacron
ENCODING 298
SWIDTH 444 0
DWIDTH 15 0
BBX 17 29 -1 0
BITMAP
03FE00
07FE00
07FC00
000000
07FF80
07FF80
00FC00
00FC00
00FC00
01F800
01F800
01F800
01F800
03F000
03F000
03F000
03F000
07E000
07E000
07E000
0FC000
0FC000
0FC000
0FC000
1F8000
1F8000
1FC000
FFF000
FFF000
ENDCHAR
STARTCHAR imacron
ENCODING 299
SWIDTH 389 0
DWIDTH 13 0
BBX 10 20 1 0
BITMAP
7FC0
FFC0
FF80
0000
1F00
FF00
3F00
3F00
3E00
3E00
7E00
7C00
7C00
7C00
FCC0
F8C0
F980
FB00
FE00
7C00
ENDCHAR
STARTCHAR Ibreve
ENCODING 300
SWIDTH 444 0
DWIDTH 15 0
BBX 17 32 -1 0
BITMAP
060300
060300
070600
03FE00
03FC00
00F000
000000
07FF80
07FF80
00FC00
00FC00
00FC00
01F800
01F800
01F800
01F800
03F000
03F000
03F000
03F000
07E000
07E000
07E000
0FC000
0FC000
0FC000
0FC000
1F8000
1F8000
1FC000
FFF000
FFF000
ENDCHAR
STARTCHAR ibreve
ENCODING 301
SWIDTH 389 0
DWIDTH 13 0
BBX 11 23 1 0
BITMAP
C060
C060
E0C0
7FC0
7F80
1E00
0000
1F00
FF00
3F00
3F00
3E00
3E00
7E00
7C00
7C00
7C00
FCC0
F8C0
F980
FB00
FE00
7C00
ENDCHAR
STARTCHAR Iogonek
ENCODING 302
SWIDTH 444 0
DWIDTH 15 0
BBX 17 30 -1 -5
BITMAP
07FF80
07FF80
00FC00
00FC00
00FC00
01F800
01F800
01F800
01F800
03F000
03F000
03F000
03F000
07E000
07E000
07E000
0FC000
0FC000
0FC000
0FC000
1F8000
1F8000
1FC000
FFF000
FFF000
030000
060000
0CC000
0F8000
070000
ENDCHAR
STARTCHAR iogonek
ENCODING 303
SWIDTH 389 0
DWIDTH 12 0
BBX 10 30 1 -5
BITMAP
0300
0780
0FC0
0FC0
0780
0300
0000
0000
0000
1F00
FF00
3F00
3F00
3E00
3E00
7E00
7C00
7C00
7C00
FCC0
F8C0
F980
FB00
FE00
7C00
0C00
1800
3300
3E00
1C00
ENDCHAR
STARTCHAR Idotaccent
ENCODING 304
SWIDTH 444 0
DWIDTH 15 0
BBX 17 31 -1 0
BITMAP
007000
00F800
00F800
00F800
007000
000000
07FF80
07FF80
00FC00
00FC00
00FC00
01F800
01F800
01F800
01F800
03F000
03F000
03F000
03F000
07E000
07E000
07E000
0FC000
0FC000
0FC000
0FC000
1F8000
1F8000
1FC000
FFF000
FFF000
ENDCHAR
STARTCHAR dotlessi
ENCODING 305
SWIDTH 389 0
DWIDTH 13 0
BBX 10 16 1 0
BITMAP
1F00
FF00
3F00
3F00
3E00
3E00
7E00
7C00
7C00
7C00
FCC0
F8C0
F980
FB00
FE00
7C00
ENDCHAR
STARTCHAR IJ
ENCODING 306
SWIDTH 1089 0
DWIDTH 35 0
BBX 38 25 -1 0
BITMAP
07FF807FFC
07FF807FFC
00FC0007E0
00FC0007E0
00FC000FC0
01F8000FC0
01F8000FC0
01F8000FC0
01F8001F80
03F0001F80
03F0001F80
03F0001F80
03F0003F00
07E0003F00
07E0F03F00
07E1F83F00
0FC3F87E00
0FC3F87E00
0FC3F87E00
0FC370FC00
1F8300FC00
1F8381F800
1FC1C3F800
FFF0FFE000
FFF03F8000
ENDCHAR
STARTCHAR ij
ENCODING 307
SWIDTH 740 0
DWIDTH 22 0
BBX 22 32 1 -7
BITMAP
030030
078078
0FC0FC
0FC0FC
078078
030030
000000
000000
000000
1F00F8
FF07F8
3F01F0
3F01F0
3E03F0
3E03E0
7E03E0
7C03E0
7C07E0
7C07C0
FCC7C0
F8C7C0
F98F80
FB0F80
FE0F80
7C0F80
001F00
0E1F00
1F1E00
1F3E00
0F3C00
0FF800
07F000
ENDCHAR
STARTCHAR Jcircumflex
ENCODING 308
SWIDTH 667 0
DWIDTH 21 0
BBX 24 32 -1 0
BITMAP
0000E0
0001E0
0003F0
0007F0
000E18
001808
000000
001FFF
001FFF
0001F8
0001F8
0003F0
0003F0
0003F0
0003F0
0007E0
0007E0
0007E0
0007E0
000FC0
000FC0
3C0FC0
7E0FC0
FE1F80
FE1F80
FE1F80
DC3F00
C03F00
E07E00
70FE00
3FF800
0FE000
ENDCHAR
STARTCHAR jcircumflex
ENCODING 309
SWIDTH 370 0
DWIDTH 11 0
BBX 19 30 -7 -7
BITMAP
000700
000F00
001F80
003F80
0070C0
00C040
000000
0007C0
003FC0
000F80
000F80
001F80
001F00
001F00
001F00
003F00
003E00
003E00
003E00
007C00
007C00
007C00
007C00
00F800
70F800
F8F000
F9F000
79E000
7FC000
3F8000
ENDCHAR
STARTCHAR Kcommaaccent
ENCODING 310
SWIDTH 778 0
DWIDTH 26 0
BBX 29 38 -1 -13
BITMAP
07FF9FF8
07FF9FF8
00FE07C0
00FC0780
00FC0E00
01F81C00
01F83800
01F87000
01F8E000
03F1C000
03F3C000
03F7C000
03FFE000
07FFE000
07FBF000
07F3F000
07E3F800
0FC1F800
0FC1FC00
0FC0FC00
0F80FC00
1F807E00
1F807F00
FFF3FFC0
FFF3FFC0
00000000
00070000
000F8000
001F8000
001F8000
001F8000
000F0000
00030000
00060000
000C0000
00180000
00300000
00600000
ENDCHAR
STARTCHAR kcommaaccent
ENCODING 311
SWIDTH 648 0
DWIDTH 20 0
BBX 19 38 0 -13
BITMAP
01F000
0FF000
03F000
03E000
03E000
07E000
07C000
07C000
07C000
0FC780
0F9FE0
0FBFE0
1FE3E0
1FC1E0
1F83C0
3F0780
3FFF00
3EF800
7C3C00
7C3E00
7C3E60
7C3E60
F83FC0
F83F80
F80E00
000000
00E000
01F000
03F000
03F000
03F000
01E000
006000
00C000
018000
030000
060000
0C0000
ENDCHAR
STARTCHAR kgreenlandic
ENCODING 312
SWIDTH 648 0
DWIDTH 20 0
BBX 19 16 0 0
BITMAP
0FC780
0F9FE0
0FBFE0
1FE3E0
1FC1E0
1F83C0
3F0780
3FFF00
3EF800
7C3C00
7C3E00
7C3E60
7C3E60
F83FC0
F83F80
F80E00
ENDCHAR
STARTCHAR Lacute
ENCODING 313
SWIDTH 704 0
DWIDTH 22 0
BBX 24 32 -1 0
BITMAP
000600
000F00
001F00
003E00
007800
006000
000000
07FFC0
07FFC0
00FC00
00FC00
00FC00
01F800
01F800
01F800
01F800
03F000
03F000
03F000
03F000
07E000
07E000
07E000
07E003
0FC006
0FC00E
0FC00E
0FC01C
1F803C
1F80FC
FFFFF8
FFFFF8
ENDCHAR
STARTCHAR lacute
ENCODING 314
SWIDTH 389 0
DWIDTH 12 0
BBX 12 32 1 0
BITMAP
0060
00F0
01F0
03E0
0780
0600
0000
03E0
1FE0
07E0
07C0
07C0
07C0
0FC0
0F80
0F80
1F80
1F00
1F00
3F00
3E00
3E00
3E00
7E00
7C00
7C00
FC40
F8C0
F9C0
FB80
FF00
7C00
ENDCHAR
STARTCHAR Lcommaaccent
ENCODING 315
SWIDTH 704 0
DWIDTH 22 0
BBX 24 38 -1 -13
BITMAP
07FFC0
07FFC0
00FC00
00FC00
00FC00
01F800
01F800
01F800
01F800
03F000
03F000
03F000
03F000
07E000
07E000
07E000
07E003
0FC006
0FC00E
0FC00E
0FC01C
1F803C
1F80FC
FFFFF8
FFFFF8
000000
001C00
003E00
007E00
007E00
007E00
003C00
000C00
001800
003000
006000
00C000
018000
ENDCHAR
STARTCHAR lcommaaccent
ENCODING 316
SWIDTH 389 0
DWIDTH 12 0
BBX 11 38 1 -13
BITMAP
03E0
1FE0
07E0
07C0
07C0
07C0
0FC0
0F80
0F80
1F80
1F00
1F00
3F00
3E00
3E00
3E00
7E00
7C00
7C00
FC40
F8C0
F9C0
FB80
FF00
7C00
0000
0E00
1F00
3F00
3F00
3F00
1E00
0600
0C00
1800
3000
6000
C000
ENDCHAR
STARTCHAR Lcaron
ENCODING 317
SWIDTH 928 0
DWIDTH 30 0
BBX 32 25 -1 0
BITMAP
07FFC00E
07FFC01F
00FC003F
00FC003F
00FC003F
01F8001E
01F80006
01F8000C
01F80018
03F00030
03F00060
03F000C0
03F00000
07E00000
07E00000
07E00000
07E00300
0FC00600
0FC00E00
0FC00E00
0FC01C00
1F803C00
1F80FC00
FFFFF800
FFFFF800
ENDCHAR
STARTCHAR lcaron
ENCODING 318
SWIDTH 629 0
DWIDTH 20 0
BBX 20 25 1 0
BITMAP
03E0E0
1FE1F0
07E3F0
07C3F0
07C3F0
07C1E0
0FC060
0F80C0
0F8180
1F8300
1F0600
1F0C00
3F0000
3E0000
3E0000
3E0000
7E0000
7C0000
7C0000
FC4000
F8C000
F9C000
FB8000
FF0000
7C0000
ENDCHAR
STARTCHAR Ldot
ENCODING 319
SWIDTH 956 0
DWIDTH 30 0
BBX 29 25 -1 0
BITMAP
07FFC000
07FFC000
00FC0000
00FC0000
00FC0000
01F80000
01F80000
01F80000
01F80000
03F00000
03F00000
03F00000
03F00000
07E00000
07E000F0
07E001F8
07E003F8
0FC007F8
0FC00EF0
0FC00E00
0FC01C00
1F803C00
1F80FC00
FFFFF800
FFFFF800
ENDCHAR
STARTCHAR ldot
ENCODING 320
SWIDTH 657 0
DWIDTH 20 0
BBX 17 25 1 0
BITMAP
03E000
1FE000
07E000
07C000
07C000
07C000
0FC000
0F8000
0F8000
1F8000
1F0000
1F0000
3F0000
3E0000
3E0F00
3E1F80
7E1F80
7C1F80
7C0F00
FC4000
F8C000
F9C000
FB8000
FF0000
7C0000
ENDCHAR
STARTCHAR Lslash
ENCODING 321
SWIDTH 704 0
DWIDTH 22 0
BBX 23 25 -1 0
BITMAP
07FFC0
07FFC0
00FC00
00FC00
00FC00
01F800
01F800
01F800
01F800
03F180
03FF80
03FC00
0FF000
7FE000
67E000
07E000
07E002
0FC006
0FC00E
0FC01E
0FC03E
1F807C
1F81FC
FFFFFC
FFFFFC
ENDCHAR
STARTCHAR lslash
ENCODING 322
SWIDTH 389 0
DWIDTH 12 0
BBX 12 25 1 0
BITMAP
03E0
1FE0
07E0
07C0
07C0
07C0
0FC0
0F80
0FB0
1FF0
1F80
FF00
DF00
3E00
3E00
3E00
7E00
7C00
7C00
FC40
F8C0
F9C0
FB80
FF00
7C00
ENDCHAR
STARTCHAR Nacute
ENCODING 323
SWIDTH 852 0
DWIDTH 28 0
BBX 33 32 -2 0
BITMAP
0000180000
00003C0000
00007C0000
0000F80000
0001E00000
0001800000
0000000000
07FC01FF80
07FE01FF80
007E003C00
007F003800
007F003800
00FF803800
00DF803000
00DFC03000
00CFC03000
01CFE07000
0187E06000
0187F06000
0183F0E000
0383F8C000
0301F8C000
0300FCC000
0700FFC000
06007F8000
06007F8000
06003F8000
0E003F8000
0E001F0000
1F001F0000
FFC00F0000
FFC00F0000
ENDCHAR
STARTCHAR nacute
ENCODING 324
SWIDTH 685 0
DWIDTH 22 0
BBX 21 23 0 0
BITMAP
000C00
001E00
003E00
007C00
00F000
00C000
000000
0F8780
7F9FC0
0FBFE0
0FF3E0
0FC3E0
1FC3E0
1F87E0
1F07C0
3F0FC0
3E0F80
3E0F88
7E0F98
7C1F30
7C1FE0
F81FC0
F80F00
ENDCHAR
STARTCHAR Ncommaaccent
ENCODING 325
SWIDTH 852 0
DWIDTH 28 0
BBX 33 38 -2 -13
BITMAP
07FC01FF80
07FE01FF80
007E003C00
007F003800
007F003800
00FF803800
00DF803000
00DFC03000
00CFC03000
01CFE07000
0187E06000
0187F06000
0183F0E000
0383F8C000
0301F8C000
0300FCC000
0700FFC000
06007F8000
06007F8000
06003F8000
0E003F8000
0E001F0000
1F001F0000
FFC00F0000
FFC00F0000
0000000000
0003800000
0007C00000
000FC00000
000FC00000
000FC00000
0007800000
0001800000
0003000000
0006000000
000C000000
0018000000
0030000000
ENDCHAR
STARTCHAR ncommaaccent
ENCODING 326
SWIDTH 685 0
DWIDTH 22 0
BBX 21 29 0 -13
BITMAP
0F8780
7F9FC0
0FBFE0
0FF3E0
0FC3E0
1FC3E0
1F87E0
1F07C0
3F0FC0
3E0F80
3E0F88
7E0F98
7C1F30
7C1FE0
F81FC0
F80F00
000000
007000
00F800
01F800
01F800
01F800
00F000
003000
006000
00C000
018000
030000
060000
ENDCHAR
STARTCHAR Ncaron
ENCODING 327
SWIDTH 852 0
DWIDTH 28 0
BBX 33 32 -2 0
BITMAP
0004060000
00061C0000
0003F80000
0003F00000
0001E00000
0001C00000
0000000000
07FC01FF80
07FE01FF80
007E003C00
007F003800
007F003800
00FF803800
00DF803000
00DFC03000
00CFC03000
01CFE07000
0187E06000
0187F06000
0183F0E000
0383F8C000
0301F8C000
0300FCC000
0700FFC000
06007F8000
06007F8000
06003F8000
0E003F8000
0E001F0000
1F001F0000
FFC00F0000
FFC00F0000
ENDCHAR
STARTCHAR ncaron
ENCODING 328
SWIDTH 685 0
DWIDTH 22 0
BBX 21 23 0 0
BITMAP
020300
030E00
01FC00
01F800
00F000
00E000
000000
0F8780
7F9FC0
0FBFE0
0FF3E0
0FC3E0
1FC3E0
1F87E0
1F07C0
3F0FC0
3E0F80
3E0F88
7E0F98
7C1F30
7C1FE0
F81FC0
F80F00
ENDCHAR
STARTCHAR napostrophe
ENCODING 329
SWIDTH 931 0
DWIDTH 31 0
BBX 28 25 2 0
BITMAP
0E000000
1F000000
3F000000
3F000000
3F000000
1E000000
06000000
0C000000
18000000
301F0F00
60FF3F80
C01F7FC0
001FE7C0
001F87C0
003F87C0
003F0FC0
003E0F80
007E1F80
007C1F00
007C1F10
00FC1F30
00F83E60
00F83FC0
01F03F80
01F01E00
ENDCHAR
STARTCHAR Eng
ENCODING 330
SWIDTH 852 0
DWIDTH 28 0
BBX 33 32 -2 -7
BITMAP
07FC01FF80
07FE01FF80
007E003C00
007F003800
007F003800
00FF803800
00DF803000
00DFC03000
00CFC03000
01CFE07000
0187E06000
0187F06000
0183F0E000
0383F8C000
0301F8C000
0300FCC000
0700FFC000
06007F8000
06007F8000
06003F8000
0E003F8000
0E001F0000
1F001F0000
FFC01F0000
FFC01F0000
00003E0000
001C3E0000
003E3C0000
003E7C0000
001E780000
001FF00000
000FE00000
ENDCHAR
STARTCHAR eng
ENCODING 331
SWIDTH 685 0
DWIDTH 22 0
BBX 19 23 0 -7
BITMAP
0F8780
7F9FC0
0FBFE0
0FF3E0
0FC3E0
1FC3E0
1F87E0
1F07C0
3F0FC0
3E0F80
3E0F80
7E0F80
7C1F00
7C1F00
F81F00
F81F00
003E00
1C3E00
3E3C00
3E7C00
1E7800
1FF000
0FE000
ENDCHAR
STARTCHAR Omacron
ENCODING 332
SWIDTH 833 0
DWIDTH 27 0
BBX 26 29 0 0
BITMAP
003FE000
007FE000
007FC000
00000000
000FC000
007FF800
01FC3E00
03F01F00
07E01F00
0FC00F80
1F800F80
3F800FC0
3F000FC0
7F000FC0
7F001FC0
FE001FC0
FE001FC0
FE001FC0
FC003F80
FC003F80
FC003F00
FC007F00
7C007E00
7C00FC00
7E01FC00
3E03F000
1F0FE000
07FF8000
00FC0000
ENDCHAR
STARTCHAR omacron
ENCODING 333
SWIDTH 574 0
DWIDTH 19 0
BBX 18 20 0 0
BITMAP
03FE00
07FE00
07FC00
000000
03FC00
0FCF00
1F0F80
3F07C0
7E07C0
7E07C0
FC0FC0
FC0FC0
FC0FC0
FC0FC0
F81F80
F81F80
F83F00
7C3E00
3CF800
0FE000
ENDCHAR
STARTCHAR Obreve
ENCODING 334
SWIDTH 833 0
DWIDTH 27 0
BBX 26 32 0 0
BITMAP
00603000
00603000
00706000
003FE000
003FC000
000F0000
00000000
000FC000
007FF800
01FC3E00
03F01F00
07E01F00
0FC00F80
1F800F80
3F800FC0
3F000FC0
7F000FC0
7F001FC0
FE001FC0
FE001FC0
FE001FC0
FC003F80
FC003F80
FC003F00
FC007F00
7C007E00
7C00FC00
7E01FC00
3E03F000
1F0FE000
07FF8000
00FC0000
ENDCHAR
STARTCHAR obreve
ENCODING 335
SWIDTH 574 0
DWIDTH 19 0
BBX 18 23 0 0
BITMAP
0C0600
0C0600
0E0C00
07FC00
07F800
01E000
000000
03FC00
0FCF00
1F0F80
3F07C0
7E07C0
7E07C0
FC0FC0
FC0FC0
FC0FC0
FC0FC0
F81F80
F81F80
F83F00
7C3E00
3CF800
0FE000
ENDCHAR
STARTCHAR Ohungarumlaut
ENCODING 336
SWIDTH 833 0
DWIDTH 27 0
BBX 26 33 0 0
BITMAP
00061800
000F3C00
001E7800
001C7000
0038E000
0071C000
00618000
00000000
000FC000
007FF800
01FC3E00
03F01F00
07E01F00
0FC00F80
1F800F80
3F800FC0
3F000FC0
7F000FC0
7F001FC0
FE001FC0
FE001FC0
FE001FC0
FC003F80
FC003F80
FC003F00
FC007F00
7C007E00
7C00FC00
7E01FC00
3E03F000
1F0FE000
07FF8000
00FC0000
ENDCHAR
STARTCHAR ohungarumlaut
ENCODING 337
SWIDTH 574 0
DWIDTH 19 0
BBX 18 24 0 0
BITMAP
00C300
01E780
03CF00
038E00
071C00
0E3800
0C3000
000000
03FC00
0FCF00
1F0F80
3F07C0
7E07C0
7E07C0
FC0FC0
FC0FC0
FC0FC0
FC0FC0
F81F80
F81F80
F83F00
7C3E00
3CF800
0FE000
ENDCHAR
STARTCHAR OE
ENCODING 338
SWIDTH 963 0
DWIDTH 32 0
BBX 32 25 0 0
BITMAP
001FFFFF
00FFFFFF
01F0FE1F
07E0FC0F
0FC0FC07
0F80FC07
1F80FC06
3F00F866
3F01F866
7E01F8E0
7E01F9E0
7E01FFC0
FC01FFC0
FC03F3C0
FC03F380
FC03E180
FC03E18C
FC07E18C
7C07E01C
7C07C01C
7E0FC03C
3E0FC078
1F1FC1F8
0FFFFFF8
03FFFFF8
ENDCHAR
STARTCHAR oe
ENCODING 339
SWIDTH 852 0
DWIDTH 28 0
BBX 27 16 0 0
BITMAP
03F83F80
0F9EF3C0
1F0FE1E0
3E0FC1E0
7E0FC3E0
7C0F83E0
FC0F87C0
FC0F9F00
F81FFC00
F81FE000
F81F0000
F83F0000
783F0180
7C7F8700
3FF7FE00
0FC1F800
ENDCHAR
STARTCHAR Racute
ENCODING 340
SWIDTH 796 0
DWIDTH 26 0
BBX 26 32 -1 0
BITMAP
0000C000
0001E000
0003E000
0007C000
000F0000
000C0000
00000000
07FFF800
07FFFF00
00FC3F80
00FC1F80
00FC0FC0
01F80FC0
01F80FC0
01F80FC0
01F81FC0
03F01F80
03F03F00
03F07E00
03FFF800
07FF8000
07E1E000
07E1F000
07E1F800
0FC1F800
0FC1F800
0FC1F800
1F81F8C0
1F81F8C0
1F80FD80
FFF0FF00
FFF07E00
ENDCHAR
STARTCHAR racute
ENCODING 341
SWIDTH 519 0
DWIDTH 16 0
BBX 17 23 0 0
BITMAP
001800
003C00
007C00
00F800
01E000
018000
000000
0F9F00
7FBF80
1F6F80
1FCF80
1F8F00
1F8000
3F0000
3F0000
3E0000
7E0000
7C0000
7C0000
7C0000
FC0000
F80000
F80000
ENDCHAR
STARTCHAR Rcommaaccent
ENCODING 342
SWIDTH 796 0
DWIDTH 26 0
BBX 26 38 -1 -13
BITMAP
07FFF800
07FFFF00
00FC3F80
00FC1F80
00FC0FC0
01F80FC0
01F80FC0
01F80FC0
01F81FC0
03F01F80
03F03F00
03F07E00
03FFF800
07FF8000
07E1E000
07E1F000
07E1F800
0FC1F800
0FC1F800
0FC1F800
1F81F8C0
1F81F8C0
1F80FD80
FFF0FF00
FFF07E00
00000000
000E0000
001F0000
003F0000
003F0000
003F0000
001E0000
00060000
000C0000
00180000
00300000
00600000
00C00000
ENDCHAR
STARTCHAR rcommaaccent
ENCODING 343
SWIDTH 519 0
DWIDTH 16 0
BBX 17 29 0 -13
BITMAP
0F9F00
7FBF80
1F6F80
1FCF80
1F8F00
1F8000
3F0000
3F0000
3E0000
7E0000
7C0000
7C0000
7C0000
FC0000
F80000
F80000
000000
0E0000
1F0000
3F0000
3F0000
3F0000
1E0000
060000
0C0000
180000
300000
600000
C00000
ENDCHAR
STARTCHAR Rcaron
ENCODING 344
SWIDTH 796 0
DWIDTH 26 0
BBX 26 32 -1 0
BITMAP
00101800
00187000
000FE000
000FC000
00078000
00070000
00000000
07FFF800
07FFFF00
00FC3F80
00FC1F80
00FC0FC0
01F80FC0
01F80FC0
01F80FC0
01F81FC0
03F01F80
03F03F00
03F07E00
03FFF800
07FF8000
07E1E000
07E1F000
07E1F800
0FC1F800
0FC1F800
0FC1F800
1F81F8C0
1F81F8C0
1F80FD80
FFF0FF00
FFF07E00
ENDCHAR
STARTCHAR rcaron
ENCODING 345
SWIDTH 519 0
DWIDTH 16 0
BBX 17 23 0 0
BITMAP
040600
061C00
03F800
03F000
01E000
01C000
000000
0F9F00
7FBF80
1F6F80
1FCF80
1F8F00
1F8000
3F0000
3F0000
3E0000
7E0000
7C0000
7C0000
7C0000
FC0000
F80000
F80000
ENDCHAR
STARTCHAR Sacute
ENCODING 346
SWIDTH 685 0
DWIDTH 22 0
BBX 22 32 -1 0
BITMAP
000300
000780
000F80
001F00
003C00
003000
000000
007E00
01FFCC
03C1FC
07807C
07003C
0F0038
0F0038
0F8018
0FE018
0FF800
0FFF00
07FFC0
03FFE0
01FFE0
007FF0
300FF0
3003F0
3001F0
7000F0
7800F0
7801F0
7C01E0
FF03C0
C7FF00
C0FC00
ENDCHAR
STARTCHAR sacute
ENCODING 347
SWIDTH 481 0
DWIDTH 15 0
BBX 14 23 0 0
BITMAP
0030
0078
00F8
01F0
03C0
0300
0000
07F0
1F3C
1C3C
3C3C
3E3C
3F18
3FC0
1FF0
1FF0
07F8
71F8
F8F8
F878
F070
79E0
3FC0
ENDCHAR
STARTCHAR Scircumflex
ENCODING 348
SWIDTH 685 0
DWIDTH 22 0
BBX 22 32 -1 0
BITMAP
000700
000F00
001F80
003F80
0070C0
00C040
000000
007E00
01FFCC
03C1FC
07807C
07003C
0F0038
0F0038
0F8018
0FE018
0FF800
0FFF00
07FFC0
03FFE0
01FFE0
007FF0
300FF0
3003F0
3001F0
7000F0
7800F0
7801F0
7C01E0
FF03C0
C7FF00
C0FC00
ENDCHAR
STARTCHAR scircumflex
ENCODING 349
SWIDTH 481 0
DWIDTH 15 0
BBX 14 23 0 0
BITMAP
00E0
01E0
03F0
07F0
0E18
1808
0000
07F0
1F3C
1C3C
3C3C
3E3C
3F18
3FC0
1FF0
1FF0
07F8
71F8
F8F8
F878
F070
79E0
3FC0
ENDCHAR
STARTCHAR Scedilla
ENCODING 350
SWIDTH 685 0
DWIDTH 22 0
BBX 22 32 -1 -7
BITMAP
007E00
01FFCC
03C1FC
07807C
07003C
0F0038
0F0038
0F8018
0FE018
0FF800
0FFF00
07FFC0
03FFE0
01FFE0
007FF0
300FF0
3003F0
3001F0
7000F0
7800F0
7801F0
7C01E0
FF03C0
C7FF00
C0FC00
002000
006000
00F800
001C00
031C00
01F800
00F000
ENDCHAR
STARTCHAR scedilla
ENCODING 351
SWIDTH 481 0
DWIDTH 15 0
BBX 14 23 0 -7
BITMAP
07F0
1F3C
1C3C
3C3C
3E3C
3F18
3FC0
1FF0
1FF0
07F8
71F8
F8F8
F878
F070
79E0
3FC0
0200
0600
0F80
01C0
31C0
1F80
0F00
ENDCHAR
STARTCHAR Scaron
ENCODING 352
SWIDTH 685 0
DWIDTH 22 0
BBX 22 32 -1 0
BITMAP
003070
0030E0
0019C0
001F80
000F00
000E00
000000
007E00
01FFCC
03C1FC
07807C
07003C
0F0038
0F0038
0F8018
0FE018
0FF800
0FFF00
07FFC0
03FFE0
01FFE0
007FF0
300FF0
3003F0
3001F0
7000F0
7800F0
7801F0
7C01E0
FF03C0
C7FF00
C0FC00
ENDCHAR
STARTCHAR scaron
ENCODING 353
SWIDTH 481 0
DWIDTH 15 0
BBX 15 23 0 0
BITMAP
060E
061C
0338
03F0
01E0
01C0
0000
07F0
1F3C
1C3C
3C3C
3E3C
3F18
3FC0
1FF0
1FF0
07F8
71F8
F8F8
F878
F070
79E0
3FC0
ENDCHAR
STARTCHAR Tcommaaccent
ENCODING 354
SWIDTH 722 0
DWIDTH 23 0
BBX 23 32 1 -7
BITMAP
3FFFFE
3FFFFE
7C7E3E
787E1E
707E0E
60FC0E
E0FC0C
C0FC0C
C0FC0C
C1F80C
01F800
01F800
01F800
03F000
03F000
03F000
07E000
07E000
07E000
07E000
0FC000
0FC000
0FC000
FFF800
FFF800
008000
018000
03E000
007000
0C7000
07E000
03C000
ENDCHAR
STARTCHAR tcommaaccent
ENCODING 355
SWIDTH 407 0
DWIDTH 12 0
BBX 13 29 0 -7
BITMAP
03E0
03E0
07C0
07C0
07C0
0F80
7FF8
7FF0
1F00
1F00
1F00
3E00
3E00
3E00
7E00
7C00
7C40
FCC0
F980
FF00
7E00
3800
0400
0C00
1F00
0380
6380
3F00
1E00
ENDCHAR
STARTCHAR Tcaron
ENCODING 356
SWIDTH 722 0
DWIDTH 23 0
BBX 23 32 1 0
BITMAP
0080C0
00C380
007F00
007E00
003C00
003800
000000
3FFFFE
3FFFFE
7C7E3E
787E1E
707E0E
60FC0E
E0FC0C
C0FC0C
C0FC0C
C1F80C
01F800
01F800
01F800
03F000
03F000
03F000
07E000
07E000
07E000
07E000
0FC000
0FC000
0FC000
FFF800
FFF800
ENDCHAR
STARTCHAR tcaron
ENCODING 357
SWIDTH 646 0
DWIDTH 20 0
BBX 21 25 0 0
BITMAP
000070
0000F8
0001F8
03E1F8
03E1F8
07C0F0
07C030
07C060
0F80C0
7FF980
7FF300
1F0600
1F0000
1F0000
3E0000
3E0000
3E0000
7E0000
7C0000
7C4000
FCC000
F98000
FF0000
7E0000
380000
ENDCHAR
STARTCHAR Tbar
ENCODING 358
SWIDTH 722 0
DWIDTH 23 0
BBX 23 25 1 0
BITMAP
3FFFFE
3FFFFE
7C7E3E
787E1E
707E0E
60FC0E
E0FC0C
C0FC0C
C0FC0C
C1F80C
01F800
1FFFF0
1FFFF0
03F000
03F000
03F000
07E000
07E000
07E000
07E000
0FC000
0FC000
0FC000
FFF800
FFF800
ENDCHAR
STARTCHAR tbar
ENCODING 359
SWIDTH 407 0
DWIDTH 12 0
BBX 17 22 -2 0
BITMAP
00F800
00F800
01F000
01F000
01F000
03E000
1FFE00
1FFC00
07C000
07C000
07C000
0F8000
0F8000
0F8000
FFFF80
FFFF80
1F1000
3F3000
3E6000
3FC000
1F8000
0E0000
ENDCHAR
STARTCHAR Utilde
ENCODING 360
SWIDTH 833 0
DWIDTH 27 0
BBX 27 30 2 0
BITMAP
001C6000
003FE000
007FC000
00E38000
00000000
7FF83FE0
7FF83FE0
1FC00F80
1FC00700
1F800600
1F800600
1F800E00
3F000C00
3F000C00
3F000C00
3F001C00
7E001800
7E001800
7E003800
7E003000
FC003000
FC003000
FC007000
FC006000
FC00E000
7C00C000
7E01C000
3F078000
1FFF0000
07F80000
ENDCHAR
STARTCHAR utilde
ENCODING 361
SWIDTH 685 0
DWIDTH 21 0
BBX 20 21 0 0
BITMAP
00E300
01FF00
03FE00
071C00
000000
1F83E0
7F87E0
1F07C0
1F07C0
3F0FC0
3E0F80
3E0F80
7E1F80
7C1F00
7C3F00
7C3F30
F87E70
F9FEE0
FFBFC0
7F3F80
3C1E00
ENDCHAR
STARTCHAR Umacron
ENCODING 362
SWIDTH 833 0
DWIDTH 27 0
BBX 27 29 2 0
BITMAP
007FC000
00FFC000
00FF8000
00000000
7FF83FE0
7FF83FE0
1FC00F80
1FC00700
1F800600
1F800600
1F800E00
3F000C00
3F000C00
3F000C00
3F001C00
7E001800
7E001800
7E003800
7E003000
FC003000
FC003000
FC007000
FC006000
FC00E000
7C00C000
7E01C000
3F078000
1FFF0000
07F80000
ENDCHAR
STARTCHAR umacron
ENCODING 363
SWIDTH 685 0
DWIDTH 21 0
BBX 20 20 0 0
BITMAP
01FF00
03FF00
03FE00
000000
1F83E0
7F87E0
1F07C0
1F07C0
3F0FC0
3E0F80
3E0F80
7E1F80
7C1F00
7C3F00
7C3F30
F87E70
F9FEE0
FFBFC0
7F3F80
3C1E00
ENDCHAR
STARTCHAR Ubreve
ENCODING 364
SWIDTH 833 0
DWIDTH 27 0
BBX 27 32 2 0
BITMAP
00C06000
00C06000
00E0C000
007FC000
007F8000
001E0000
00000000
7FF83FE0
7FF83FE0
1FC00F80
1FC00700
1F800600
1F800600
1F800E00
3F000C00
3F000C00
3F000C00
3F001C00
7E001800
7E001800
7E003800
7E003000
FC003000
FC003000
FC007000
FC006000
FC00E000
7C00C000
7E01C000
3F078000
1FFF0000
07F80000
ENDCHAR
STARTCHAR ubreve
ENCODING 365
SWIDTH 685 0
DWIDTH 21 0
BBX 20 23 0 0
BITMAP
060300
060300
070600
03FE00
03FC00
00F000
000000
1F83E0
7F87E0
1F07C0
1F07C0
3F0FC0
3E0F80
3E0F80
7E1F80
7C1F00
7C3F00
7C3F30
F87E70
F9FEE0
FFBFC0
7F3F80
3C1E00
ENDCHAR
STARTCHAR Uring
ENCODING 366
SWIDTH 833 0
DWIDTH 27 0
BBX 27 32 2 0
BITMAP
001C0000
003E0000
00630000
00630000
003E0000
001C0000
00000000
7FF83FE0
7FF83FE0
1FC00F80
1FC00700
1F800600
1F800600
1F800E00
3F000C00
3F000C00
3F000C00
3F001C00
7E001800
7E001800
7E003800
7E003000
FC003000
FC003000
FC007000
FC006000
FC00E000
7C00C000
7E01C000
3F078000
1FFF0000
07F80000
ENDCHAR
STARTCHAR uring
ENCODING 367
SWIDTH 685 0
DWIDTH 21 0
BBX 20 23 0 0
BITMAP
007000
00F800
018C00
018C00
00F800
007000
000000
1F83E0
7F87E0
1F07C0
1F07C0
3F0FC0
3E0F80
3E0F80
7E1F80
7C1F00
7C3F00
7C3F30
F87E70
F9FEE0
FFBFC0
7F3F80
3C1E00
ENDCHAR
STARTCHAR Uhungarumlaut
ENCODING 368
SWIDTH 833 0
DWIDTH 27 0
BBX 27 33 2 0
BITMAP
000C3000
001E7800
003CF000
0038E000
0071C000
00E38000
00C30000
00000000
7FF83FE0
7FF83FE0
1FC00F80
1FC00700
1F800600
1F800600
1F800E00
3F000C00
3F000C00
3F000C00
3F001C00
7E001800
7E001800
7E003800
7E003000
FC003000
FC003000
FC007000
FC006000
FC00E000
7C00C000
7E01C000
3F078000
1FFF0000
07F80000
ENDCHAR
STARTCHAR uhungarumlaut
ENCODING 369
SWIDTH 685 0
DWIDTH 21 0
BBX 20 24 0 0
BITMAP
006180
00F3C0
01E780
01C700
038E00
071C00
061800
000000
1F83E0
7F87E0
1F07C0
1F07C0
3F0FC0
3E0F80
3E0F80
7E1F80
7C1F00
7C3F00
7C3F30
F87E70
F9FEE0
FFBFC0
7F3F80
3C1E00
ENDCHAR
STARTCHAR Uogonek
ENCODING 370
SWIDTH 833 0
DWIDTH 27 0
BBX 27 30 2 -5
BITMAP
7FF83FE0
7FF83FE0
1FC00F80
1FC00700
1F800600
1F800600
1F800E00
3F000C00
3F000C00
3F000C00
3F001C00
7E001800
7E001800
7E003800
7E003000
FC003000
FC003000
FC007000
FC006000
FC00E000
7C00C000
7E01C000
3F078000
1FFF0000
07F80000
00600000
00C00000
01980000
01F00000
00E00000
ENDCHAR
STARTCHAR uogonek
ENCODING 371
SWIDTH 685 0
DWIDTH 21 0
BBX 20 21 0 -5
BITMAP
1F83E0
7F87E0
1F07C0
1F07C0
3F0FC0
3E0F80
3E0F80
7E1F80
7C1F00
7C3F00
7C3F30
F87E70
F9FEE0
FFBFC0
7F3F80
3C1E00
006000
00C000
019800
01F000
00E000
ENDCHAR
STARTCHAR Wcircumflex
ENCODING 372
SWIDTH 944 0
DWIDTH 30 0
BBX 32 32 0 0
BITMAP
0000E000
0001E000
0003F000
0007F000
000E1800
00180800
00000000
FFCFFCFF
FFCFFCFF
3F03F03C
3F01F038
1F01F030
1F03F070
1F03F060
1F07F060
1F87F0E0
1F86F0C0
0F8CF8C0
0F8CF980
0F9CF980
0FD8FB80
0FF8FF00
0FF0FF00
0FF0FE00
07E07E00
07E07E00
07C07C00
07C07C00
07807800
07807800
07807000
03003000
ENDCHAR
STARTCHAR wcircumflex
ENCODING 373
SWIDTH 833 0
DWIDTH 27 0
BBX 25 23 1 0
BITMAP
00070000
000F0000
001F8000
003F8000
0070C000
00C04000
00000000
FF07CF00
FF078F80
1F0F8F80
3E0F8780
3E0F8380
3E1F0300
7C1F0300
7C1F0300
7C3F0200
F83E0600
F87E0E00
F87E0C00
F8DF1800
FF9FF000
7F1FE000
3C07C000
ENDCHAR
STARTCHAR Ycircumflex
ENCODING 374
SWIDTH 704 0
DWIDTH 23 0
BBX 25 32 1 0
BITMAP
000E0000
001E0000
003F0000
007F0000
00E18000
01808000
00000000
FFF1FF80
FFF1FF80
3F803E00
1F803800
1F807000
0FC07000
0FC0E000
0FC1C000
07E18000
07E38000
03F70000
03FE0000
03FC0000
01FC0000
01F80000
01F80000
03F00000
03F00000
03F00000
03F00000
07E00000
07E00000
07E00000
7FFE0000
7FFE0000
ENDCHAR
STARTCHAR ycircumflex
ENCODING 375
SWIDTH 519 0
DWIDTH 18 0
BBX 19 30 -2 -7
BITMAP
001C00
003C00
007E00
00FE00
01C300
030100
000000
0781C0
0FC3E0
0FE3E0
1FE1E0
1BE1C0
33F1C0
31F180
01F180
01F100
00FB00
00FA00
00FE00
00FC00
007C00
007800
007800
003000
006000
70C000
F9C000
FB8000
7F0000
3C0000
ENDCHAR
STARTCHAR Ydieresis
ENCODING 376
SWIDTH 704 0
DWIDTH 23 0
BBX 25 31 2 0
BITMAP
00E1C000
01F3E000
01F3E000
01F3E000
00E1C000
00000000
FFF1FF80
FFF1FF80
3F803E00
1F803800
1F807000
0FC07000
0FC0E000
0FC1C000
07E18000
07E38000
03F70000
03FE0000
03FC0000
01FC0000
01F80000
01F80000
03F00000
03F00000
03F00000
03F00000
07E00000
07E00000
07E00000
7FFE0000
7FFE0000
ENDCHAR
STARTCHAR Zacute
ENCODING 377
SWIDTH 704 0
DWIDTH 23 0
BBX 25 32 -1 0
BITMAP
0000C000
0001E000
0003E000
0007C000
000F0000
000C0000
00000000
07FFFF80
07FFFF00
07E07F00
0F80FE00
0F01FC00
0E03FC00
1C07F800
1807F000
180FE000
001FC000
003F8000
007F8000
007F0000
00FE0000
01FC0000
03F80000
07F80600
07F00C00
0FE01C00
1FC03C00
3F807800
7F81F800
7F07F800
FFFFF000
FFFFF000
ENDCHAR
STARTCHAR zacute
ENCODING 378
SWIDTH 519 0
DWIDTH 16 0
BBX 15 23 0 0
BITMAP
0030
0078
00F8
01F0
03C0
0300
0000
0FC6
1FFE
3FFE
3FFC
63D8
6070
00E0
03C0
0780
0E00
1C06
3786
7FFC
FFFC
CFF8
C3E0
ENDCHAR
STARTCHAR Zdotaccent
ENCODING 379
SWIDTH 704 0
DWIDTH 23 0
BBX 25 31 -1 0
BITMAP
000E0000
001F0000
001F0000
001F0000
000E0000
00000000
07FFFF80
07FFFF00
07E07F00
0F80FE00
0F01FC00
0E03FC00
1C07F800
1807F000
180FE000
001FC000
003F8000
007F8000
007F0000
00FE0000
01FC0000
03F80000
07F80600
07F00C00
0FE01C00
1FC03C00
3F807800
7F81F800
7F07F800
FFFFF000
FFFFF000
ENDCHAR
STARTCHAR zdotaccent
ENCODING 380
SWIDTH 519 0
DWIDTH 16 0
BBX 15 22 0 0
BITMAP
01C0
03E0
03E0
03E0
01C0
0000
0FC6
1FFE
3FFE
3FFC
63D8
6070
00E0
03C0
0780
0E00
1C06
3786
7FFC
FFFC
CFF8
C3E0
ENDCHAR
STARTCHAR Zcaron
ENCODING 381
SWIDTH 704 0
DWIDTH 23 0
BBX 24 32 -1 0
BITMAP
001018
001870
000FE0
000FC0
000780
000000
000000
07FFFF
07FFFF
07E07F
0F80FE
0F01FC
0E03FC
1C07F8
1807F0
180FE0
001FC0
003F80
007F80
007F00
00FE00
01FC00
03F800
07F806
07F00C
0FE01C
1FC03C
3F8078
7F81F8
7F07F8
FFFFF0
FFFFF0
ENDCHAR
STARTCHAR zcaron
ENCODING 382
SWIDTH 519 0
DWIDTH 16 0
BBX 15 23 0 0
BITMAP
0C1C
0C38
0670
07E0
03C0
0380
0000
0FC6
1FFE
3FFE
3FFC
63D8
6070
00E0
03C0
0780
0E00
1C06
3786
7FFC
FFFC
CFF8
C3E0
ENDCHAR
STARTCHAR uni0186
ENCODING 390
SWIDTH 759 0
DWIDTH 24 0
BBX 24 25 1 0
BITMAP
007F80
01FFF0
03C3F8
0700FC
0E007E
0C007E
18003F
00003F
00003F
00003F
00003F
00007F
00007F
00007F
00007E
3000FE
3000FE
7000FC
7001FC
7001F8
7803F0
F807E0
EE1F80
C7FF00
81F800
ENDCHAR
STARTCHAR uni0189
ENCODING 393
SWIDTH 833 0
DWIDTH 27 0
BBX 28 25 -2 0
BITMAP
07FFF800
07FFFF00
00FE1F80
00FC07C0
00FC07E0
00FC03E0
01F803F0
01F803F0
01F803F0
01F803F0
3FFF83F0
3FFF87F0
03F007F0
07E007F0
07E007E0
07E00FE0
07E00FE0
0FC00FC0
0FC01FC0
0FC01F80
0FC03F00
1F807E00
1F81FC00
FFFFF000
FFFF0000
ENDCHAR
STARTCHAR uni018E
ENCODING 398
SWIDTH 741 0
DWIDTH 24 0
BBX 26 25 -1 0
BITMAP
0FFFFFC0
0FFFFFC0
0FC07E00
0F007C00
1E00FC00
1C00FC00
1860FC00
3860FC00
30E1F800
00E1F800
00E1F800
00F1F800
01FFF000
01FFF000
01E3F000
0183F000
3387E000
3307E000
7007E000
7007E000
700FC000
780FC000
FC0FC000
FFFFF800
FFFFF800
ENDCHAR
STARTCHAR florin
ENCODING 402
SWIDTH 574 0
DWIDTH 19 0
BBX 20 32 -1 -7
BITMAP
0001E0
0007F0
0006F0
000EF0
001E60
001C00
003C00
003C00
003C00
007C00
07FFC0
07FFC0
007800
007800
00F800
00F800
00F800
00F800
00F000
00F000
01F000
01F000
01F000
01E000
01E000
01E000
03C000
63C000
F38000
F78000
FF0000
7C0000
ENDCHAR
STARTCHAR uni0197
ENCODING 407
SWIDTH 444 0
DWIDTH 15 0
BBX 17 25 -1 0
BITMAP
07FF80
07FF80
00FC00
00FC00
00FC00
01F800
01F800
01F800
01F800
03F000
03F000
FFFF80
FFFF80
07E000
07E000
07E000
0FC000
0FC000
0FC000
0FC000
1F8000
1F8000
1FC000
FFF000
FFF000
ENDCHAR
STARTCHAR uni019A
ENCODING 410
SWIDTH 389 0
DWIDTH 12 0
BBX 17 25 -2 0
BITMAP
007C00
03FC00
00FC00
00F800
00F800
00F800
01F800
01F000
01F000
03F000
03E000
FFFF80
FFFF80
07C000
07C000
07C000
0FC000
0F8000
0F8000
1F8800
1F1800
1F3800
1F7000
1FE000
0F8000
ENDCHAR
STARTCHAR uni019D
ENCODING 413
SWIDTH 852 0
DWIDTH 28 0
BBX 38 32 -7 -7
BITMAP
003FE00FFC
003FF00FFC
0003F001E0
0003F801C0
0003F801C0
0007FC01C0
0006FC0180
0006FE0180
00067E0180
000E7F0380
000C3F0300
000C3F8300
000C1F8700
001C1FC600
00180FC600
001807E600
003807FE00
003003FC00
003E03FC00
003E01FC00
003E01FC00
007C00F800
007C00F800
007C007800
007C007800
00F8000000
70F8000000
F8F0000000
F9F0000000
79E0000000
7FC0000000
3F80000000
ENDCHAR
STARTCHAR uni019F
ENCODING 415
SWIDTH 833 0
DWIDTH 27 0
BBX 26 25 0 0
BITMAP
000FC000
007FF800
01FC3E00
03F01F00
07E01F00
0FC00F80
1F800F80
3F800FC0
3F000FC0
7F000FC0
7F001FC0
FFFFFFC0
FFFFFFC0
FE001FC0
FC003F80
FC003F80
FC003F00
FC007F00
7C007E00
7C00FC00
7E01FC00
3E03F000
1F0FE000
07FF8000
00FC0000
ENDCHAR
STARTCHAR Ohorn
ENCODING 416
SWIDTH 833 0
DWIDTH 27 0
BBX 31 25 0 0
BITMAP
000FC01C
007FF83E
01FC3E7E
03F01F7E
07E01F7E
0FC00FBC
1F800F8C
3F800FD8
3F000FF0
7F000FE0
7F001FC0
FE001FC0
FE001FC0
FE001FC0
FC003F80
FC003F80
FC003F00
FC007F00
7C007E00
7C00FC00
7E01FC00
3E03F000
1F0FE000
07FF8000
00FC0000
ENDCHAR
STARTCHAR ohorn
ENCODING 417
SWIDTH 574 0
DWIDTH 19 0
BBX 24 16 0 0
BITMAP
03FC0E
0FCF1F
1F0FBF
3F07FF
7E07FF
7E07DE
FC0FC6
FC0FCC
FC0FD8
FC0FF0
F81FE0
F81FC0
F83F00
7C3E00
3CF800
0FE000
ENDCHAR
STARTCHAR Uhorn
ENCODING 431
SWIDTH 833 0
DWIDTH 27 0
BBX 32 25 2 0
BITMAP
7FF83FEE
7FF83FFF
1FC00FBF
1FC0073F
1F80063F
1F80061E
1F800E06
3F000C0C
3F000C18
3F000C30
3F001C60
7E0018C0
7E001800
7E003800
7E003000
FC003000
FC003000
FC007000
FC006000
FC00E000
7C00C000
7E01C000
3F078000
1FFF0000
07F80000
ENDCHAR
STARTCHAR uhorn
ENCODING 432
SWIDTH 685 0
DWIDTH 21 0
BBX 26 16 0 0
BITMAP
1F83E380
7F87E7C0
1F07CFC0
1F07CFC0
3F0FCFC0
3E0F8780
3E0F8180
7E1F8300
7C1F0600
7C3F0C00
7C3F3800
F87E7000
F9FEE000
FFBFC000
7F3F8000
3C1E0000
ENDCHAR
STARTCHAR uni01B5
ENCODING 437
SWIDTH 704 0
DWIDTH 23 0
BBX 25 25 -1 0
BITMAP
07FFFF80
07FFFF00
07E07F00
0F80FE00
0F01FC00
0E03FC00
1C07F800
1807F000
180FE000
001FC000
003F8000
0FFFF800
0FFFF800
00FE0000
01FC0000
03F80000
07F80600
07F00C00
0FE01C00
1FC03C00
3F807800
7F81F800
7F07F800
FFFFF000
FFFFF000
ENDCHAR
STARTCHAR uni01B6
ENCODING 438
SWIDTH 519 0
DWIDTH 16 0
BBX 17 16 -1 0
BITMAP
07E300
0FFF00
1FFF00
1FFE00
31EC00
303800
007000
FFFF80
FFFF80
070000
0E0300
1BC300
3FFE00
7FFE00
67FC00
61F000
ENDCHAR
STARTCHAR uni01BB
ENCODING 443
SWIDTH 574 0
DWIDTH 19 0
BBX 20 24 -2 0
BITMAP
007F00
01FFC0
0387E0
0703F0
0603F0
0F81F0
0FC1F0
0FC3F0
0FC3E0
07C7E0
0387C0
FFFFF0
FFFFF0
003E00
007C00
00F000
01E060
038060
0E00C0
1C03C0
3FFFC0
3FFF80
7FFF80
FFFF00
ENDCHAR
STARTCHAR uni01BC
ENCODING 444
SWIDTH 574 0
DWIDTH 19 0
BBX 19 24 0 0
BITMAP
03FFE0
03FFE0
03FFC0
03FF80
067F00
060000
060000
060000
0C7C00
0DFE00
0FFF00
1C3F00
381F80
101F80
000F80
000F80
780F80
F81F80
F81F00
F83F00
703E00
707C00
3FF800
0FC000
ENDCHAR
STARTCHAR uni01C0
ENCODING 448
SWIDTH 606 0
DWIDTH 20 0
BBX 3 25 9 0
BITMAP
E0
E0
E0
E0
E0
E0
E0
E0
E0
E0
E0
E0
E0
E0
E0
E0
E0
E0
E0
E0
E0
E0
E0
E0
E0
ENDCHAR
STARTCHAR uni01C2
ENCODING 450
SWIDTH 606 0
DWIDTH 20 0
BBX 17 25 1 -4
BITMAP
01C000
01C000
01C000
01C000
01C000
01C000
01C000
01C000
FFFF80
FFFF80
FFFF80
01C000
01C000
01C000
FFFF80
FFFF80
FFFF80
01C000
01C000
01C000
01C000
01C000
01C000
01C000
01C000
ENDCHAR
STARTCHAR uni01C3
ENCODING 451
SWIDTH 333 0
DWIDTH 11 0
BBX 11 25 0 0
BITMAP
03C0
07E0
07E0
07E0
07E0
07C0
07C0
0F80
0F80
0F00
0F00
0E00
0E00
1E00
1C00
1C00
1800
1800
0000
0000
7000
F800
F800
F800
7000
ENDCHAR
STARTCHAR uni01CD
ENCODING 461
SWIDTH 741 0
DWIDTH 24 0
BBX 27 32 -3 0
BITMAP
00080C00
000C3800
0007F000
0007E000
0003C000
00038000
00000000
00006000
0000F000
0001F000
0001F000
0003F000
0003F000
0007F800
000FF800
000DF800
001DF800
0019F800
0038FC00
0070FC00
0070FC00
00E0FC00
00E0FC00
01FFFE00
01FFFE00
03807E00
07007E00
0F007E00
0E003F00
3E003F00
FFC3FFE0
FFC3FFE0
ENDCHAR
STARTCHAR uni01CE
ENCODING 462
SWIDTH 667 0
DWIDTH 21 0
BBX 20 23 0 0
BITMAP
010180
018700
00FE00
00FC00
007800
007000
000000
01E3E0
07FBE0
1F8FE0
3F0FC0
3E0FC0
7E0FC0
7C0F80
FC0F80
FC0F80
F81F80
F81F10
F83F30
FC3F70
7CFFE0
7FDFC0
1F0F00
ENDCHAR
STARTCHAR uni01CF
ENCODING 463
SWIDTH 444 0
DWIDTH 15 0
BBX 17 32 -1 0
BITMAP
020300
030E00
01FC00
01F800
00F000
00E000
000000
07FF80
07FF80
00FC00
00FC00
00FC00
01F800
01F800
01F800
01F800
03F000
03F000
03F000
03F000
07E000
07E000
07E000
0FC000
0FC000
0FC000
0FC000
1F8000
1F8000
1FC000
FFF000
FFF000
ENDCHAR
STARTCHAR uni01D0
ENCODING 464
SWIDTH 389 0
DWIDTH 13 0
BBX 11 23 1 0
BITMAP
4060
61C0
3F80
3F00
1E00
1C00
0000
1F00
FF00
3F00
3F00
3E00
3E00
7E00
7C00
7C00
7C00
FCC0
F8C0
F980
FB00
FE00
7C00
ENDCHAR
STARTCHAR uni01D1
ENCODING 465
SWIDTH 833 0
DWIDTH 27 0
BBX 26 32 0 0
BITMAP
00203000
0030E000
001FC000
001F8000
000F0000
000E0000
00000000
000FC000
007FF800
01FC3E00
03F01F00
07E01F00
0FC00F80
1F800F80
3F800FC0
3F000FC0
7F000FC0
7F001FC0
FE001FC0
FE001FC0
FE001FC0
FC003F80
FC003F80
FC003F00
FC007F00
7C007E00
7C00FC00
7E01FC00
3E03F000
1F0FE000
07FF8000
00FC0000
ENDCHAR
STARTCHAR uni01D2
ENCODING 466
SWIDTH 574 0
DWIDTH 19 0
BBX 18 23 0 0
BITMAP
040600
061C00
03F800
03F000
01E000
01C000
000000
03FC00
0FCF00
1F0F80
3F07C0
7E07C0
7E07C0
FC0FC0
FC0FC0
FC0FC0
FC0FC0
F81F80
F81F80
F83F00
7C3E00
3CF800
0FE000
ENDCHAR
STARTCHAR uni01D3
ENCODING 467
SWIDTH 833 0
DWIDTH 27 0
BBX 27 32 2 0
BITMAP
00406000
0061C000
003F8000
003F0000
001E0000
001C0000
00000000
7FF83FE0
7FF83FE0
1FC00F80
1FC00700
1F800600
1F800600
1F800E00
3F000C00
3F000C00
3F000C00
3F001C00
7E001800
7E001800
7E003800
7E003000
FC003000
FC003000
FC007000
FC006000
FC00E000
7C00C000
7E01C000
3F078000
1FFF0000
07F80000
ENDCHAR
STARTCHAR uni01D4
ENCODING 468
SWIDTH 685 0
DWIDTH 21 0
BBX 20 23 0 0
BITMAP
020300
030E00
01FC00
01F800
00F000
00E000
000000
1F83E0
7F87E0
1F07C0
1F07C0
3F0FC0
3E0F80
3E0F80
7E1F80
7C1F00
7C3F00
7C3F30
F87E70
F9FEE0
FFBFC0
7F3F80
3C1E00
ENDCHAR
STARTCHAR uni01D5
ENCODING 469
SWIDTH 833 0
DWIDTH 27 0
BBX 27 36 2 0
BITMAP
001FF000
003FF000
003FE000
00000000
001C3800
003E7C00
003E7C00
003E7C00
001C3800
00000000
00000000
7FF83FE0
7FF83FE0
1FC00F80
1FC00700
1F800600
1F800600
1F800E00
3F000C00
3F000C00
3F000C00
3F001C00
7E001800
7E001800
7E003800
7E003000
FC003000
FC003000
FC007000
FC006000
FC00E000
7C00C000
7E01C000
3F078000
1FFF0000
07F80000
ENDCHAR
STARTCHAR uni01D6
ENCODING 470
SWIDTH 685 0
DWIDTH 21 0
BBX 20 27 0 0
BITMAP
01FF00
03FF00
03FE00
000000
038700
07CF80
07CF80
07CF80
038700
000000
000000
1F83E0
7F87E0
1F07C0
1F07C0
3F0FC0
3E0F80
3E0F80
7E1F80
7C1F00
7C3F00
7C3F30
F87E70
F9FEE0
FFBFC0
7F3F80
3C1E00
ENDCHAR
STARTCHAR uni01D7
ENCODING 471
SWIDTH 833 0
DWIDTH 27 0
BBX 27 39 2 0
BITMAP
0000C000
0001E000
0003E000
0007C000
000F0000
000C0000
00000000
001C3800
003E7C00
003E7C00
003E7C00
001C3800
00000000
00000000
7FF83FE0
7FF83FE0
1FC00F80
1FC00700
1F800600
1F800600
1F800E00
3F000C00
3F000C00
3F000C00
3F001C00
7E001800
7E001800
7E003800
7E003000
FC003000
FC003000
FC007000
FC006000
FC00E000
7C00C000
7E01C000
3F078000
1FFF0000
07F80000
ENDCHAR
STARTCHAR uni01D8
ENCODING 472
SWIDTH 685 0
DWIDTH 21 0
BBX 20 30 0 0
BITMAP
000C00
001E00
003E00
007C00
00F000
00C000
000000
038700
07CF80
07CF80
07CF80
038700
000000
000000
1F83E0
7F87E0
1F07C0
1F07C0
3F0FC0
3E0F80
3E0F80
7E1F80
7C1F00
7C3F00
7C3F30
F87E70
F9FEE0
FFBFC0
7F3F80
3C1E00
ENDCHAR
STARTCHAR uni01D9
ENCODING 473
SWIDTH 833 0
DWIDTH 27 0
BBX 27 39 2 0
BITMAP
00203000
0030E000
001FC000
001F8000
000F0000
000E0000
00000000
001C3800
003E7C00
003E7C00
003E7C00
001C3800
00000000
00000000
7FF83FE0
7FF83FE0
1FC00F80
1FC00700
1F800600
1F800600
1F800E00
3F000C00
3F000C00
3F000C00
3F001C00
7E001800
7E001800
7E003800
7E003000
FC003000
FC003000
FC007000
FC006000
FC00E000
7C00C000
7E01C000
3F078000
1FFF0000
07F80000
ENDCHAR
STARTCHAR uni01DA
ENCODING 474
SWIDTH 685 0
DWIDTH 21 0
BBX 20 30 0 0
BITMAP
020300
030E00
01FC00
01F800
00F000
00E000
000000
038700
07CF80
07CF80
07CF80
038700
000000
000000
1F83E0
7F87E0
1F07C0
1F07C0
3F0FC0
3E0F80
3E0F80
7E1F80
7C1F00
7C3F00
7C3F30
F87E70
F9FEE0
FFBFC0
7F3F80
3C1E00
ENDCHAR
STARTCHAR uni01DB
ENCODING 475
SWIDTH 833 0
DWIDTH 27 0
BBX 27 39 2 0
BITMAP
00180000
003C0000
003E0000
001F0000
00078000
00018000
00000000
001C3800
003E7C00
003E7C00
003E7C00
001C3800
00000000
00000000
7FF83FE0
7FF83FE0
1FC00F80
1FC00700
1F800600
1F800600
1F800E00
3F000C00
3F000C00
3F000C00
3F001C00
7E001800
7E001800
7E003800
7E003000
FC003000
FC003000
FC007000
FC006000
FC00E000
7C00C000
7E01C000
3F078000
1FFF0000
07F80000
ENDCHAR
STARTCHAR uni01DC
ENCODING 476
SWIDTH 685 0
DWIDTH 21 0
BBX 20 30 0 0
BITMAP
018000
03C000
03E000
01F000
007800
001800
000000
038700
07CF80
07CF80
07CF80
038700
000000
000000
1F83E0
7F87E0
1F07C0
1F07C0
3F0FC0
3E0F80
3E0F80
7E1F80
7C1F00
7C3F00
7C3F30
F87E70
F9FEE0
FFBFC0
7F3F80
3C1E00
ENDCHAR
STARTCHAR uni01DD
ENCODING 477
SWIDTH 519 0
DWIDTH 17 0
BBX 16 16 0 0
BITMAP
03F0
0FFC
1C3E
303F
001F
001F
003F
07FF
3F3F
7C3E
F83E
F87C
F07C
F0F8
79E0
3FC0
ENDCHAR
STARTCHAR uni01DE
ENCODING 478
SWIDTH 741 0
DWIDTH 24 0
BBX 27 36 -3 0
BITMAP
0007FC00
000FFC00
000FF800
00000000
00070E00
000F9F00
000F9F00
000F9F00
00070E00
00000000
00000000
00006000
0000F000
0001F000
0001F000
0003F000
0003F000
0007F800
000FF800
000DF800
001DF800
0019F800
0038FC00
0070FC00
0070FC00
00E0FC00
00E0FC00
01FFFE00
01FFFE00
03807E00
07007E00
0F007E00
0E003F00
3E003F00
FFC3FFE0
FFC3FFE0
ENDCHAR
STARTCHAR uni01DF
ENCODING 479
SWIDTH 667 0
DWIDTH 21 0
BBX 20 27 0 0
BITMAP
00FF80
01FF80
01FF00
000000
01C380
03E7C0
03E7C0
03E7C0
01C380
000000
000000
01E3E0
07FBE0
1F8FE0
3F0FC0
3E0FC0
7E0FC0
7C0F80
FC0F80
FC0F80
F81F80
F81F10
F83F30
FC3F70
7CFFE0
7FDFC0
1F0F00
ENDCHAR
STARTCHAR uni01E0
ENCODING 480
SWIDTH 741 0
DWIDTH 24 0
BBX 27 35 -3 0
BITMAP
000FF800
001FF800
001FF000
00000000
0001C000
0003E000
0003E000
0003E000
0001C000
00000000
00006000
0000F000
0001F000
0001F000
0003F000
0003F000
0007F800
000FF800
000DF800
001DF800
0019F800
0038FC00
0070FC00
0070FC00
00E0FC00
00E0FC00
01FFFE00
01FFFE00
03807E00
07007E00
0F007E00
0E003F00
3E003F00
FFC3FFE0
FFC3FFE0
ENDCHAR
STARTCHAR uni01E1
ENCODING 481
SWIDTH 667 0
DWIDTH 21 0
BBX 20 26 0 0
BITMAP
01FF00
03FF00
03FE00
000000
007000
00F800
00F800
00F800
007000
000000
01E3E0
07FBE0
1F8FE0
3F0FC0
3E0FC0
7E0FC0
7C0F80
FC0F80
FC0F80
F81F80
F81F10
F83F30
FC3F70
7CFFE0
7FDFC0
1F0F00
ENDCHAR
STARTCHAR uni01E2
ENCODING 482
SWIDTH 889 0
DWIDTH 30 0
BBX 33 29 -3 0
BITMAP
0000FF8000
0001FF8000
0001FF0000
0000000000
003FFFFF80
003FFFFF80
000FFE0F80
00077E0700
00067E0700
000E7C0300
000CFC0300
001CFC3300
0038FC7300
0030F86000
0071F8E000
00E1FFE000
00C1FFE000
01C3F3C000
01FFF1C000
03FFF1C000
0703E1C600
0607E18600
0E07E18E00
1C07E01E00
1C07C01C00
380FC07C00
780FC0FC00
FE7FFFFC00
FE7FFFF800
ENDCHAR
STARTCHAR uni01E3
ENCODING 483
SWIDTH 815 0
DWIDTH 27 0
BBX 27 20 -1 0
BITMAP
001FF000
003FF000
003FE000
00000000
07F83F80
0F3EF3C0
1F0FE1E0
1F07C1E0
1F0FC3E0
0F0FC3E0
000F8F80
00FFFF00
0FFFF000
3E1F0000
7C1F0000
F83F0000
FC3F8180
FCEF8380
FFC7FE00
7F03F800
ENDCHAR
STARTCHAR uni01E4
ENCODING 484
SWIDTH 815 0
DWIDTH 25 0
BBX 31 25 0 0
BITMAP
000F8080
007FF180
01F83F80
03F01F80
07E00F00
0FC00F00
1F800F00
3F800600
3F000600
7F000600
7F000600
FE000000
FE000000
FE000000
FE07FF80
FC07FF80
FC00FC00
FC00FC00
FC00FC00
7C00F800
7E03FFFE
3E03FFFE
1F87B000
07FF3000
00F83000
ENDCHAR
STARTCHAR uni01E5
ENCODING 485
SWIDTH 611 0
DWIDTH 20 0
BBX 22 25 -2 -7
BITMAP
00003C
00007C
007FDC
01F3DC
03E1E0
07C1F0
07C1F0
07C1F0
07C3F0
07C3F0
03C7E0
07EFC0
0F7E00
1C0000
3E0000
3FFC00
3FFF00
1FFF80
FFFFFC
FFFFFC
F00780
F00780
F80F00
7F3E00
0FF000
ENDCHAR
STARTCHAR Gcaron
ENCODING 486
SWIDTH 815 0
DWIDTH 25 0
BBX 25 32 0 0
BITMAP
00203000
0030E000
001FC000
001F8000
000F0000
000E0000
00000000
000F8080
007FF180
01F83F80
03F01F80
07E00F00
0FC00F00
1F800F00
3F800600
3F000600
7F000600
7F000600
FE000000
FE000000
FE000000
FE07FF80
FC07FF80
FC00FC00
FC00FC00
FC00FC00
7C00F800
7E01F800
3E03F800
1F87B000
07FF3000
00F83000
ENDCHAR
STARTCHAR gcaron
ENCODING 487
SWIDTH 611 0
DWIDTH 20 0
BBX 22 32 -2 -7
BITMAP
004060
0061C0
003F80
003F00
001E00
001C00
000000
00003C
00007C
007FDC
01F3DC
03E1E0
07C1F0
07C1F0
07C1F0
07C3F0
07C3F0
03C7E0
07EFC0
0F7E00
1C0000
3E0000
3FFC00
3FFF00
1FFF80
1FFF80
7C1F80
F00780
F00780
F80F00
7F3E00
0FF000
ENDCHAR
STARTCHAR uni01E8
ENCODING 488
SWIDTH 778 0
DWIDTH 26 0
BBX 29 32 -1 0
BITMAP
00101800
00187000
000FE000
000FC000
00078000
00070000
00000000
07FF9FF8
07FF9FF8
00FE07C0
00FC0780
00FC0E00
01F81C00
01F83800
01F87000
01F8E000
03F1C000
03F3C000
03F7C000
03FFE000
07FFE000
07FBF000
07F3F000
07E3F800
0FC1F800
0FC1FC00
0FC0FC00
0F80FC00
1F807E00
1F807F00
FFF3FFC0
FFF3FFC0
ENDCHAR
STARTCHAR uni01E9
ENCODING 489
SWIDTH 648 0
DWIDTH 20 0
BBX 19 32 0 0
BITMAP
040600
061C00
03F800
03F000
01E000
01C000
000000
01F000
0FF000
03F000
03E000
03E000
07E000
07C000
07C000
07C000
0FC780
0F9FE0
0FBFE0
1FE3E0
1FC1E0
1F83C0
3F0780
3FFF00
3EF800
7C3C00
7C3E00
7C3E60
7C3E60
F83FC0
F83F80
F80E00
ENDCHAR
STARTCHAR uni01EA
ENCODING 490
SWIDTH 833 0
DWIDTH 27 0
BBX 26 30 0 -5
BITMAP
000FC000
007FF800
01FC3E00
03F01F00
07E01F00
0FC00F80
1F800F80
3F800FC0
3F000FC0
7F000FC0
7F001FC0
FE001FC0
FE001FC0
FE001FC0
FC003F80
FC003F80
FC003F00
FC007F00
7C007E00
7C00FC00
7E01FC00
3E03F000
1F0FE000
07FF8000
00FC0000
00180000
00300000
00660000
007C0000
00380000
ENDCHAR
STARTCHAR uni01EB
ENCODING 491
SWIDTH 574 0
DWIDTH 19 0
BBX 18 21 0 -5
BITMAP
03FC00
0FCF00
1F0F80
3F07C0
7E07C0
7E07C0
FC0FC0
FC0FC0
FC0FC0
FC0FC0
F81F80
F81F80
F83F00
7C3E00
3CF800
0FE000
00C000
018000
033000
03E000
01C000
ENDCHAR
STARTCHAR uni01EC
ENCODING 492
SWIDTH 833 0
DWIDTH 27 0
BBX 26 34 0 -5
BITMAP
003FE000
007FE000
007FC000
00000000
000FC000
007FF800
01FC3E00
03F01F00
07E01F00
0FC00F80
1F800F80
3F800FC0
3F000FC0
7F000FC0
7F001FC0
FE001FC0
FE001FC0
FE001FC0
FC003F80
FC003F80
FC003F00
FC007F00
7C007E00
7C00FC00
7E01FC00
3E03F000
1F0FE000
07FF8000
00FC0000
00180000
00300000
00660000
007C0000
00380000
ENDCHAR
STARTCHAR uni01ED
ENCODING 493
SWIDTH 574 0
DWIDTH 19 0
BBX 18 25 0 -5
BITMAP
03FE00
07FE00
07FC00
000000
03FC00
0FCF00
1F0F80
3F07C0
7E07C0
7E07C0
FC0FC0
FC0FC0
FC0FC0
FC0FC0
F81F80
F81F80
F83F00
7C3E00
3CF800
0FE000
00C000
018000
033000
03E000
01C000
ENDCHAR
STARTCHAR uni01F0
ENCODING 496
SWIDTH 370 0
DWIDTH 11 0
BBX 19 30 -7 -7
BITMAP
004060
0061C0
003F80
003F00
001E00
001C00
000000
0007C0
003FC0
000F80
000F80
001F80
001F00
001F00
001F00
003F00
003E00
003E00
003E00
007C00
007C00
007C00
007C00
00F800
70F800
F8F000
F9F000
79E000
7FC000
3F8000
ENDCHAR
STARTCHAR uni01F4
ENCODING 500
SWIDTH 815 0
DWIDTH 25 0
BBX 25 32 0 0
BITMAP
0000C000
0001E000
0003E000
0007C000
000F0000
000C0000
00000000
000F8080
007FF180
01F83F80
03F01F80
07E00F00
0FC00F00
1F800F00
3F800600
3F000600
7F000600
7F000600
FE000000
FE000000
FE000000
FE07FF80
FC07FF80
FC00FC00
FC00FC00
FC00FC00
7C00F800
7E01F800
3E03F800
1F87B000
07FF3000
00F83000
ENDCHAR
STARTCHAR uni01F5
ENCODING 501
SWIDTH 611 0
DWIDTH 20 0
BBX 22 32 -2 -7
BITMAP
000180
0003C0
0007C0
000F80
001E00
001800
000000
00003C
00007C
007FDC
01F3DC
03E1E0
07C1F0
07C1F0
07C1F0
07C3F0
07C3F0
03C7E0
07EFC0
0F7E00
1C0000
3E0000
3FFC00
3FFF00
1FFF80
1FFF80
7C1F80
F00780
F00780
F80F00
7F3E00
0FF000
ENDCHAR
STARTCHAR uni01F8
ENCODING 504
SWIDTH 852 0
DWIDTH 28 0
BBX 33 32 -2 0
BITMAP
0003000000
0007800000
0007C00000
0003E00000
0000F00000
0000300000
0000000000
07FC01FF80
07FE01FF80
007E003C00
007F003800
007F003800
00FF803800
00DF803000
00DFC03000
00CFC03000
01CFE07000
0187E06000
0187F06000
0183F0E000
0383F8C000
0301F8C000
0300FCC000
0700FFC000
06007F8000
06007F8000
06003F8000
0E003F8000
0E001F0000
1F001F0000
FFC00F0000
FFC00F0000
ENDCHAR
STARTCHAR uni01F9
ENCODING 505
SWIDTH 685 0
DWIDTH 22 0
BBX 21 23 0 0
BITMAP
018000
03C000
03E000
01F000
007800
001800
000000
0F8780
7F9FC0
0FBFE0
0FF3E0
0FC3E0
1FC3E0
1F87E0
1F07C0
3F0FC0
3E0F80
3E0F88
7E0F98
7C1F30
7C1FE0
F81FC0
F80F00
ENDCHAR
STARTCHAR Aringacute
ENCODING 506
SWIDTH 741 0
DWIDTH 24 0
BBX 27 39 -3 0
BITMAP
00003000
00007800
0000F800
0001F000
0003C000
00030000
00000000
00007000
0000F800
00018C00
00018C00
0000F800
00007000
00000000
00006000
0000F000
0001F000
0001F000
0003F000
0003F000
0007F800
000FF800
000DF800
001DF800
0019F800
0038FC00
0070FC00
0070FC00
00E0FC00
00E0FC00
01FFFE00
01FFFE00
03807E00
07007E00
0F007E00
0E003F00
3E003F00
FFC3FFE0
FFC3FFE0
ENDCHAR
STARTCHAR aringacute
ENCODING 507
SWIDTH 667 0
DWIDTH 21 0
BBX 20 30 0 0
BITMAP
000600
000F00
001F00
003E00
007800
006000
000000
003800
007C00
00C600
00C600
007C00
003800
000000
01E3E0
07FBE0
1F8FE0
3F0FC0
3E0FC0
7E0FC0
7C0F80
FC0F80
FC0F80
F81F80
F81F10
F83F30
FC3F70
7CFFE0
7FDFC0
1F0F00
ENDCHAR
STARTCHAR AEacute
ENCODING 508
SWIDTH 889 0
DWIDTH 30 0
BBX 33 32 -3 0
BITMAP
0000060000
00000F0000
00001F0000
00003E0000
0000780000
0000600000
0000000000
003FFFFF80
003FFFFF80
000FFE0F80
00077E0700
00067E0700
000E7C0300
000CFC0300
001CFC3300
0038FC7300
0030F86000
0071F8E000
00E1FFE000
00C1FFE000
01C3F3C000
01FFF1C000
03FFF1C000
0703E1C600
0607E18600
0E07E18E00
1C07E01E00
1C07C01C00
380FC07C00
780FC0FC00
FE7FFFFC00
FE7FFFF800
ENDCHAR
STARTCHAR aeacute
ENCODING 509
SWIDTH 815 0
DWIDTH 27 0
BBX 27 23 -1 0
BITMAP
0000C000
0001E000
0003E000
0007C000
000F0000
000C0000
00000000
07F83F80
0F3EF3C0
1F0FE1E0
1F07C1E0
1F0FC3E0
0F0FC3E0
000F8F80
00FFFF00
0FFFF000
3E1F0000
7C1F0000
F83F0000
FC3F8180
FCEF8380
FFC7FE00
7F03F800
ENDCHAR
STARTCHAR Oslashacute
ENCODING 510
SWIDTH 833 0
DWIDTH 27 0
BBX 26 35 0 -2
BITMAP
0000C000
0001E000
0003E000
0007C000
000F0000
000C0000
00000000
00000180
000FE300
007FFE00
01F87E00
03F03F00
07E03F00
0FC03F80
1F806F80
3F80CFC0
3F01CFC0
7F038FC0
7F071FC0
FE0E1FC0
FE0C1FC0
FE181FC0
FC303F80
FC603F80
FCE03F00
FDC07F00
7F807E00
7F00FC00
7E01FC00
3E03F000
1F87E000
3FFF8000
30FC0000
60000000
C0000000
ENDCHAR
STARTCHAR oslashacute
ENCODING 511
SWIDTH 574 0
DWIDTH 19 0
BBX 18 31 0 -4
BITMAP
000C00
001E00
003E00
007C00
00F000
00C000
000000
000100
000300
000300
000600
01FE00
07DF00
1F1F80
3F17C0
3E37C0
7C67C0
7C67C0
FCCFC0
F8CFC0
F98FC0
FB9F80
FB1F80
7A3F00
7E3E00
3EFC00
0FF000
180000
300000
300000
200000
ENDCHAR
STARTCHAR Scommaaccent
ENCODING 536
SWIDTH 685 0
DWIDTH 22 0
BBX 22 38 -1 -13
BITMAP
007E00
01FFCC
03C1FC
07807C
07003C
0F0038
0F0038
0F8018
0FE018
0FF800
0FFF00
07FFC0
03FFE0
01FFE0
007FF0
300FF0
3003F0
3001F0
7000F0
7800F0
7801F0
7C01E0
FF03C0
C7FF00
C0FC00
000000
007000
00F800
01F800
01F800
01F800
00F000
003000
006000
00C000
018000
030000
060000
ENDCHAR
STARTCHAR scommaaccent
ENCODING 537
SWIDTH 481 0
DWIDTH 15 0
BBX 14 29 0 -13
BITMAP
07F0
1F3C
1C3C
3C3C
3E3C
3F18
3FC0
1FF0
1FF0
07F8
71F8
F8F8
F878
F070
79E0
3FC0
0000
0380
07C0
0FC0
0FC0
0FC0
0780
0180
0300
0600
0C00
1800
3000
ENDCHAR
STARTCHAR Tcommaaccent
ENCODING 538
SWIDTH 722 0
DWIDTH 23 0
BBX 23 38 1 -13
BITMAP
3FFFFE
3FFFFE
7C7E3E
787E1E
707E0E
60FC0E
E0FC0C
C0FC0C
C0FC0C
C1F80C
01F800
01F800
01F800
03F000
03F000
03F000
07E000
07E000
07E000
07E000
0FC000
0FC000
0FC000
FFF800
FFF800
000000
00E000
01F000
03F000
03F000
03F000
01E000
006000
00C000
018000
030000
060000
0C0000
ENDCHAR
STARTCHAR tcommaaccent
ENCODING 539
SWIDTH 407 0
DWIDTH 12 0
BBX 13 35 0 -13
BITMAP
03E0
03E0
07C0
07C0
07C0
0F80
7FF8
7FF0
1F00
1F00
1F00
3E00
3E00
3E00
7E00
7C00
7C40
FCC0
F980
FF00
7E00
3800
0000
0E00
1F00
3F00
3F00
3F00
1E00
0600
0C00
1800
3000
6000
C000
ENDCHAR
STARTCHAR uni021E
ENCODING 542
SWIDTH 870 0
DWIDTH 29 0
BBX 31 32 -1 0
BITMAP
00040600
00061C00
0003F800
0003F000
0001E000
0001C000
00000000
07FF9FFE
07FF9FFE
00FC03F0
00FC03F0
00F803F0
01F807E0
01F807E0
01F807E0
01F807C0
03F00FC0
03F00FC0
03FFFFC0
03FFFF80
07E01F80
07E01F80
07E01F80
07E01F00
0FC03F00
0FC03F00
0FC03F00
0F803E00
1F807E00
1F807E00
FFF3FFC0
FFF3FFC0
ENDCHAR
STARTCHAR uni021F
ENCODING 543
SWIDTH 685 0
DWIDTH 22 0
BBX 21 32 0 0
BITMAP
040600
061C00
03F800
03F000
01E000
01C000
000000
00F000
07F000
01F000
01F000
03E000
03E000
03E000
07C000
07C000
07C780
0F9FC0
0FBFE0
0FF3E0
1FC3E0
1F87E0
1F07C0
1F07C0
3E0FC0
3E0F80
3E0F98
7E1F18
7C1F70
7C1FE0
FC0FC0
FC0700
ENDCHAR
STARTCHAR uni0226
ENCODING 550
SWIDTH 741 0
DWIDTH 24 0
BBX 27 31 -3 0
BITMAP
0001C000
0003E000
0003E000
0003E000
0001C000
00000000
00006000
0000F000
0001F000
0001F000
0003F000
0003F000
0007F800
000FF800
000DF800
001DF800
0019F800
0038FC00
0070FC00
0070FC00
00E0FC00
00E0FC00
01FFFE00
01FFFE00
03807E00
07007E00
0F007E00
0E003F00
3E003F00
FFC3FFE0
FFC3FFE0
ENDCHAR
STARTCHAR uni0227
ENCODING 551
SWIDTH 667 0
DWIDTH 21 0
BBX 20 22 0 0
BITMAP
007000
00F800
00F800
00F800
007000
000000
01E3E0
07FBE0
1F8FE0
3F0FC0
3E0FC0
7E0FC0
7C0F80
FC0F80
FC0F80
F81F80
F81F10
F83F30
FC3F70
7CFFE0
7FDFC0
1F0F00
ENDCHAR
STARTCHAR uni0228
ENCODING 552
SWIDTH 741 0
DWIDTH 24 0
BBX 26 32 -1 -7
BITMAP
07FFFFC0
07FFFFC0
00FC0FC0
00FC0780
00FC0380
01F80380
01F80380
01F83300
01F87300
03F06000
03F1E000
03FFE000
03FFE000
07E3C000
07E1C000
07E1C000
07E1C300
0FC18700
0FC18600
0FC00E00
0FC01E00
0F803C00
1F80FC00
FFFFFC00
FFFFFC00
00080000
00180000
003E0000
00070000
00C70000
007E0000
003C0000
ENDCHAR
STARTCHAR uni0229
ENCODING 553
SWIDTH 519 0
DWIDTH 17 0
BBX 16 23 0 -7
BITMAP
03FC
079E
1F0F
3E0F
3E1F
7C1F
7C3E
FCFC
FFE0
FC00
F800
F800
FC0C
7C38
3FF0
0FC0
0100
0300
07C0
00E0
18E0
0FC0
0780
ENDCHAR
STARTCHAR uni022A
ENCODING 554
SWIDTH 833 0
DWIDTH 27 0
BBX 26 36 0 0
BITMAP
001FF000
003FF000
003FE000
00000000
001C3800
003E7C00
003E7C00
003E7C00
001C3800
00000000
00000000
000FC000
007FF800
01FC3E00
03F01F00
07E01F00
0FC00F80
1F800F80
3F800FC0
3F000FC0
7F000FC0
7F001FC0
FE001FC0
FE001FC0
FE001FC0
FC003F80
FC003F80
FC003F00
FC007F00
7C007E00
7C00FC00
7E01FC00
3E03F000
1F0FE000
07FF8000
00FC0000
ENDCHAR
STARTCHAR uni022B
ENCODING 555
SWIDTH 574 0
DWIDTH 19 0
BBX 18 27 0 0
BITMAP
01FF00
03FF00
03FE00
000000
038700
07CF80
07CF80
07CF80
038700
000000
000000
03FC00
0FCF00
1F0F80
3F07C0
7E07C0
7E07C0
FC0FC0
FC0FC0
FC0FC0
FC0FC0
F81F80
F81F80
F83F00
7C3E00
3CF800
0FE000
ENDCHAR
STARTCHAR uni022C
ENCODING 556
SWIDTH 833 0
DWIDTH 27 0
BBX 26 35 0 0
BITMAP
001FF000
003FF000
003FE000
00000000
00038C00
0007FC00
000FF800
001C7000
00000000
00000000
000FC000
007FF800
01FC3E00
03F01F00
07E01F00
0FC00F80
1F800F80
3F800FC0
3F000FC0
7F000FC0
7F001FC0
FE001FC0
FE001FC0
FE001FC0
FC003F80
FC003F80
FC003F00
FC007F00
7C007E00
7C00FC00
7E01FC00
3E03F000
1F0FE000
07FF8000
00FC0000
ENDCHAR
STARTCHAR uni022D
ENCODING 557
SWIDTH 574 0
DWIDTH 19 0
BBX 18 26 0 0
BITMAP
01FF00
03FF00
03FE00
000000
007180
00FF80
01FF00
038E00
000000
000000
03FC00
0FCF00
1F0F80
3F07C0
7E07C0
7E07C0
FC0FC0
FC0FC0
FC0FC0
FC0FC0
F81F80
F81F80
F83F00
7C3E00
3CF800
0FE000
ENDCHAR
STARTCHAR uni022E
ENCODING 558
SWIDTH 833 0
DWIDTH 27 0
BBX 26 31 0 0
BITMAP
000E0000
001F0000
001F0000
001F0000
000E0000
00000000
000FC000
007FF800
01FC3E00
03F01F00
07E01F00
0FC00F80
1F800F80
3F800FC0
3F000FC0
7F000FC0
7F001FC0
FE001FC0
FE001FC0
FE001FC0
FC003F80
FC003F80
FC003F00
FC007F00
7C007E00
7C00FC00
7E01FC00
3E03F000
1F0FE000
07FF8000
00FC0000
ENDCHAR
STARTCHAR uni022F
ENCODING 559
SWIDTH 574 0
DWIDTH 19 0
BBX 18 22 0 0
BITMAP
00E000
01F000
01F000
01F000
00E000
000000
03FC00
0FCF00
1F0F80
3F07C0
7E07C0
7E07C0
FC0FC0
FC0FC0
FC0FC0
FC0FC0
F81F80
F81F80
F83F00
7C3E00
3CF800
0FE000
ENDCHAR
STARTCHAR uni0230
ENCODING 560
SWIDTH 833 0
DWIDTH 27 0
BBX 26 35 0 0
BITMAP
003FE000
007FE000
007FC000
00000000
000E0000
001F0000
001F0000
001F0000
000E0000
00000000
000FC000
007FF800
01FC3E00
03F01F00
07E01F00
0FC00F80
1F800F80
3F800FC0
3F000FC0
7F000FC0
7F001FC0
FE001FC0
FE001FC0
FE001FC0
FC003F80
FC003F80
FC003F00
FC007F00
7C007E00
7C00FC00
7E01FC00
3E03F000
1F0FE000
07FF8000
00FC0000
ENDCHAR
STARTCHAR uni0231
ENCODING 561
SWIDTH 574 0
DWIDTH 19 0
BBX 18 26 0 0
BITMAP
03FE00
07FE00
07FC00
000000
00E000
01F000
01F000
01F000
00E000
000000
03FC00
0FCF00
1F0F80
3F07C0
7E07C0
7E07C0
FC0FC0
FC0FC0
FC0FC0
FC0FC0
F81F80
F81F80
F83F00
7C3E00
3CF800
0FE000
ENDCHAR
STARTCHAR uni0232
ENCODING 562
SWIDTH 704 0
DWIDTH 23 0
BBX 25 29 1 0
BITMAP
00FF8000
01FF8000
01FF0000
00000000
FFF1FF80
FFF1FF80
3F803E00
1F803800
1F807000
0FC07000
0FC0E000
0FC1C000
07E18000
07E38000
03F70000
03FE0000
03FC0000
01FC0000
01F80000
01F80000
03F00000
03F00000
03F00000
03F00000
07E00000
07E00000
07E00000
7FFE0000
7FFE0000
ENDCHAR
STARTCHAR uni0233
ENCODING 563
SWIDTH 519 0
DWIDTH 18 0
BBX 19 27 -2 -7
BITMAP
01FF00
03FF00
03FE00
000000
0781C0
0FC3E0
0FE3E0
1FE1E0
1BE1C0
33F1C0
31F180
01F180
01F100
00FB00
00FA00
00FE00
00FC00
007C00
007800
007800
003000
006000
70C000
F9C000
FB8000
7F0000
3C0000
ENDCHAR
STARTCHAR uni0250
ENCODING 592
SWIDTH 667 0
DWIDTH 21 0
BBX 20 16 0 0
BITMAP
0F0F80
3FBFE0
7FF3E0
EFC3F0
CFC1F0
8F81F0
1F81F0
1F03F0
1F03F0
1F03E0
3F07E0
3F07C0
3F0FC0
7F1F80
7DFE00
7C7800
ENDCHAR
STARTCHAR uni0259
ENCODING 601
SWIDTH 519 0
DWIDTH 17 0
BBX 16 16 0 0
BITMAP
03F0
0FFC
1C3E
303F
001F
001F
003F
07FF
3F3F
7C3E
F83E
F87C
F07C
F0F8
79E0
3FC0
ENDCHAR
STARTCHAR uni025F
ENCODING 607
SWIDTH 389 0
DWIDTH 12 0
BBX 19 32 -1 -16
BITMAP
0003E0
0003E0
0003E0
0007C0
0007C0
0007C0
0007C0
000F80
000F80
000F80
000F80
001F00
001F00
001F00
001F00
003E00
003E00
003E00
003E00
007C00
007C00
07FF80
07FF80
00F800
00F800
00F800
71F000
F9F000
F9F000
FBE000
77C000
3F0000
ENDCHAR
STARTCHAR uni0265
ENCODING 613
SWIDTH 685 0
DWIDTH 22 0
BBX 21 25 0 -9
BITMAP
0701F8
1F81F8
3FC1F0
77C1F0
C7C3F0
CF83E0
0F83E0
1F83E0
1F07C0
1F07C0
3F0FC0
3E1FC0
3E7F80
3FEF80
1FCF80
0F1F00
001F00
001F00
003E00
003E00
003E00
007C00
007C00
007F00
007800
ENDCHAR
STARTCHAR uni0275
ENCODING 629
SWIDTH 574 0
DWIDTH 19 0
BBX 18 16 0 0
BITMAP
03FC00
0FCF00
1F0F80
3F07C0
7E07C0
7E07C0
FC0FC0
FFFFC0
FFFFC0
FC0FC0
F81F80
F81F80
F83F00
7C3E00
3CF800
0FE000
ENDCHAR
STARTCHAR uni0279
ENCODING 633
SWIDTH 519 0
DWIDTH 16 0
BBX 17 16 0 0
BITMAP
000F80
000F80
001F80
001F00
001F00
001F00
003F00
003E00
007E00
007E00
00FC00
78FC00
F9FC00
FB7C00
FEFF00
7CF800
ENDCHAR
STARTCHAR uni0287
ENCODING 647
SWIDTH 407 0
DWIDTH 12 0
BBX 13 22 0 0
BITMAP
00E0
03F0
07F8
0CF8
19F8
11F0
01F0
03F0
03E0
03E0
03E0
07C0
07C0
07C0
7FF0
FFF0
0F80
1F00
1F00
1F00
3E00
3E00
ENDCHAR
STARTCHAR uni0289
ENCODING 649
SWIDTH 685 0
DWIDTH 21 0
BBX 20 16 0 0
BITMAP
1F83E0
7F87E0
1F07C0
1F07C0
3F0FC0
3E0F80
3E0F80
FFFFF0
FFFFF0
7C3F00
7C3F30
F87E70
F9FEE0
FFBFC0
7F3F80
3C1E00
ENDCHAR
STARTCHAR uni028C
ENCODING 652
SWIDTH 556 0
DWIDTH 17 0
BBX 15 16 1 0
BITMAP
01F0
07FC
0E7C
183E
383E
303E
603E
607C
607C
C07C
C0FC
E0F8
F0F8
F9F8
F9FE
71FE
ENDCHAR
STARTCHAR uni028D
ENCODING 653
SWIDTH 833 0
DWIDTH 27 0
BBX 25 16 1 0
BITMAP
01F01E00
03FC7F00
07FCFF80
0C7D8F80
183F0F80
383F0F80
303E0F80
207E1F00
607C1F00
607C1F00
607C3E00
E0F83E00
F0F83E00
F8F87C00
F8F07F80
79F07F80
ENDCHAR
STARTCHAR uni028E
ENCODING 654
SWIDTH 519 0
DWIDTH 18 0
BBX 19 23 -2 0
BITMAP
000780
001FC0
003BE0
0073E0
0061C0
00C000
018000
03C000
03C000
07C000
07E000
0FE000
0BE000
1BE000
11F000
31F000
31F180
71F980
70FB00
F0FF00
F8FE00
F87E00
703C00
ENDCHAR
STARTCHAR uni029E
ENCODING 670
SWIDTH 648 0
DWIDTH 20 0
BBX 19 25 0 -9
BITMAP
0E03E0
3F83E0
7F83E0
CF87C0
CF87C0
0F87C0
0787C0
03EF80
1FFF80
3C1F80
783F00
F07F00
F8FF00
FFBE00
FF3E00
3C7E00
007C00
007C00
007C00
00FC00
00F800
00F800
01F800
01FE00
01F000
ENDCHAR
STARTCHAR uni02BB
ENCODING 699
SWIDTH 259 0
DWIDTH 9 0
BBX 8 12 1 13
BITMAP
03
06
0C
18
30
60
78
FC
FC
FC
F8
70
ENDCHAR
STARTCHAR afii57929
ENCODING 700
SWIDTH 259 0
DWIDTH 9 0
BBX 8 12 2 13
BITMAP
0E
1F
3F
3F
3F
1E
06
0C
18
30
60
C0
ENDCHAR
STARTCHAR afii64937
ENCODING 701
SWIDTH 259 0
DWIDTH 9 0
BBX 8 12 2 13
BITMAP
70
F8
FC
FC
FC
78
60
30
18
0C
06
03
ENDCHAR
STARTCHAR circumflex
ENCODING 710
SWIDTH 333 0
DWIDTH 11 0
BBX 10 6 1 17
BITMAP
0700
0F00
1F80
3F80
70C0
C040
ENDCHAR
STARTCHAR caron
ENCODING 711
SWIDTH 333 0
DWIDTH 11 0
BBX 10 6 0 17
BITMAP
80C0
C380
7F00
7E00
3C00
3800
ENDCHAR
STARTCHAR uni02C8
ENCODING 712
SWIDTH 287 0
DWIDTH 10 0
BBX 6 11 3 14
BITMAP
38
7C
7C
7C
78
78
F0
E0
E0
C0
C0
ENDCHAR
STARTCHAR macron
ENCODING 713
SWIDTH 333 0
DWIDTH 11 0
BBX 10 3 2 18
BITMAP
7FC0
FFC0
FF80
ENDCHAR
STARTCHAR uni02CA
ENCODING 714
SWIDTH 333 0
DWIDTH 11 0
BBX 7 6 3 18
BITMAP
0C
1E
3E
7C
F0
C0
ENDCHAR
STARTCHAR uni02CB
ENCODING 715
SWIDTH 333 0
DWIDTH 11 0
BBX 7 6 2 17
BITMAP
60
F0
F8
7C
1E
06
ENDCHAR
STARTCHAR uni02CD
ENCODING 717
SWIDTH 333 0
DWIDTH 11 0
BBX 10 3 2 -4
BITMAP
7FC0
FFC0
FF80
ENDCHAR
STARTCHAR uni02CE
ENCODING 718
SWIDTH 333 0
DWIDTH 11 0
BBX 7 6 2 -7
BITMAP
60
F0
F8
7C
1E
06
ENDCHAR
STARTCHAR uni02CF
ENCODING 719
SWIDTH 333 0
DWIDTH 11 0
BBX 7 6 3 -7
BITMAP
0C
1E
3E
7C
F0
C0
ENDCHAR
STARTCHAR breve
ENCODING 728
SWIDTH 333 0
DWIDTH 12 0
BBX 11 6 0 17
BITMAP
C060
C060
E0C0
7FC0
7F80
1E00
ENDCHAR
STARTCHAR dotaccent
ENCODING 729
SWIDTH 333 0
DWIDTH 11 0
BBX 5 5 3 18
BITMAP
70
F8
F8
F8
70
ENDCHAR
STARTCHAR ring
ENCODING 730
SWIDTH 333 0
DWIDTH 11 0
BBX 7 6 2 17
BITMAP
38
7C
C6
C6
7C
38
ENDCHAR
STARTCHAR ogonek
ENCODING 731
SWIDTH 333 0
DWIDTH 11 0
BBX 6 5 2 -5
BITMAP
30
60
CC
F8
70
ENDCHAR
STARTCHAR tilde
ENCODING 732
SWIDTH 333 0
DWIDTH 12 0
BBX 11 4 0 18
BITMAP
1C60
3FE0
7FC0
E380
ENDCHAR
STARTCHAR hungarumlaut
ENCODING 733
SWIDTH 333 0
DWIDTH 13 0
BBX 13 7 0 17
BITMAP
0C30
1E78
3CF0
38E0
71C0
E380
C300
ENDCHAR
STARTCHAR uni02EE
ENCODING 750
SWIDTH 481 0
DWIDTH 16 0
BBX 15 12 1 13
BITMAP
0E1C
1F3E
3F7E
3F7E
3F7E
1E3C
060C
0C18
1830
3060
60C0
C180
ENDCHAR
STARTCHAR uni037E
ENCODING 894
SWIDTH 287 0
DWIDTH 9 0
BBX 10 22 -2 -6
BITMAP
0780
0FC0
0FC0
0FC0
0780
0000
0000
0000
0000
0000
0E00
1F00
3F00
3F00
3F00
1E00
0600
0C00
1800
3000
6000
C000
ENDCHAR
STARTCHAR tonos
ENCODING 900
SWIDTH 333 0
DWIDTH 11 0
BBX 7 6 3 18
BITMAP
0C
1E
3E
7C
F0
C0
ENDCHAR
STARTCHAR dieresistonos
ENCODING 901
SWIDTH 333 0
DWIDTH 14 0
BBX 12 12 3 18
BITMAP
00C0
01E0
03E0
07C0
0F00
0C00
0000
70E0
F9F0
F9F0
F9F0
70E0
ENDCHAR
STARTCHAR anoteleia
ENCODING 903
SWIDTH 287 0
DWIDTH 9 0
BBX 6 5 1 6
BITMAP
78
FC
FC
FC
78
ENDCHAR
STARTCHAR mu
ENCODING 956
SWIDTH 576 0
DWIDTH 22 0
BBX 24 23 -3 -7
BITMAP
00F83E
07F87E
01F07C
01F07C
03F0FC
03E0F8
03E0F8
07E1F8
07C1F0
07C3F0
0FC7F3
0F87E7
1F9FEE
1FFBFC
1FF3F8
3BC1E0
380000
700000
700000
F00000
E00000
E00000
400000
ENDCHAR
STARTCHAR uni1E00
ENCODING 7680
SWIDTH 741 0
DWIDTH 24 0
BBX 27 32 -3 -7
BITMAP
00006000
0000F000
0001F000
0001F000
0003F000
0003F000
0007F800
000FF800
000DF800
001DF800
0019F800
0038FC00
0070FC00
0070FC00
00E0FC00
00E0FC00
01FFFE00
01FFFE00
03807E00
07007E00
0F007E00
0E003F00
3E003F00
FFC3FFE0
FFC3FFE0
00000000
00070000
000F8000
0018C000
0018C000
000F8000
00070000
ENDCHAR
STARTCHAR uni1E01
ENCODING 7681
SWIDTH 667 0
DWIDTH 21 0
BBX 20 23 0 -7
BITMAP
01E3E0
07FBE0
1F8FE0
3F0FC0
3E0FC0
7E0FC0
7C0F80
FC0F80
FC0F80
F81F80
F81F10
F83F30
FC3F70
7CFFE0
7FDFC0
1F0F00
000000
00E000
01F000
031800
031800
01F000
00E000
ENDCHAR
STARTCHAR uni1E02
ENCODING 7682
SWIDTH 759 0
DWIDTH 25 0
BBX 26 31 -2 0
BITMAP
00070000
000F8000
000F8000
000F8000
00070000
00000000
07FFF800
07FFFF00
00FC3F80
00FC0FC0
00FC0FC0
00FC0FC0
01FC0FC0
01F80FC0
01F80FC0
01F81FC0
03F83F80
03FFFF00
03FFF800
03F0F800
07E07E00
07E03F00
07E03F80
0FE01F80
0FC03F80
0FC03F80
0FC03F80
1F807F00
1F80FF00
FFFFFC00
FFFFE000
ENDCHAR
STARTCHAR uni1E03
ENCODING 7683
SWIDTH 611 0
DWIDTH 18 0
BBX 17 31 0 0
BITMAP
038000
07C000
07C000
07C000
038000
000000
03C000
1FC000
07C000
07C000
0F8000
0F8000
0F8000
1F0000
1F0000
1F7C00
1FFF00
3F9F00
3F0F80
3E0F80
7E0F80
7C0F80
7C1F80
FC1F80
F81F00
F81F00
F83E00
F83E00
787C00
7DF000
1FE000
ENDCHAR
STARTCHAR uni1E04
ENCODING 7684
SWIDTH 759 0
DWIDTH 25 0
BBX 26 31 -2 -6
BITMAP
07FFF800
07FFFF00
00FC3F80
00FC0FC0
00FC0FC0
00FC0FC0
01FC0FC0
01F80FC0
01F80FC0
01F81FC0
03F83F80
03FFFF00
03FFF800
03F0F800
07E07E00
07E03F00
07E03F80
0FE01F80
0FC03F80
0FC03F80
0FC03F80
1F807F00
1F80FF00
FFFFFC00
FFFFE000
00000000
001C0000
003E0000
003E0000
003E0000
001C0000
ENDCHAR
STARTCHAR uni1E05
ENCODING 7685
SWIDTH 611 0
DWIDTH 18 0
BBX 17 31 0 -6
BITMAP
03C000
1FC000
07C000
07C000
0F8000
0F8000
0F8000
1F0000
1F0000
1F7C00
1FFF00
3F9F00
3F0F80
3E0F80
7E0F80
7C0F80
7C1F80
FC1F80
F81F00
F81F00
F83E00
F83E00
787C00
7DF000
1FE000
000000
038000
07C000
07C000
07C000
038000
ENDCHAR
STARTCHAR uni1E06
ENCODING 7686
SWIDTH 759 0
DWIDTH 25 0
BBX 26 29 -2 -4
BITMAP
07FFF800
07FFFF00
00FC3F80
00FC0FC0
00FC0FC0
00FC0FC0
01FC0FC0
01F80FC0
01F80FC0
01F81FC0
03F83F80
03FFFF00
03FFF800
03F0F800
07E07E00
07E03F00
07E03F80
0FE01F80
0FC03F80
0FC03F80
0FC03F80
1F807F00
1F80FF00
FFFFFC00
FFFFE000
00000000
007FC000
00FFC000
00FF8000
ENDCHAR
STARTCHAR uni1E07
ENCODING 7687
SWIDTH 611 0
DWIDTH 18 0
BBX 17 29 0 -4
BITMAP
03C000
1FC000
07C000
07C000
0F8000
0F8000
0F8000
1F0000
1F0000
1F7C00
1FFF00
3F9F00
3F0F80
3E0F80
7E0F80
7C0F80
7C1F80
FC1F80
F81F00
F81F00
F83E00
F83E00
787C00
7DF000
1FE000
000000
1FF000
3FF000
3FE000
ENDCHAR
STARTCHAR uni1E08
ENCODING 7688
SWIDTH 759 0
DWIDTH 24 0
BBX 24 39 0 -7
BITMAP
000300
000780
000F80
001F00
003C00
003000
000000
001F80
00FFE3
01F877
07E01F
0FC01E
1F800E
3F800E
3F000E
7F000E
7F000C
7E0000
FE0000
FE0000
FE0000
FC0000
FC0000
FC0000
FC0000
FC0018
7E0030
7E0070
3F00E0
1FC3C0
0FFF80
00FE00
004000
00C000
01F000
003800
063800
03F000
01E000
ENDCHAR
STARTCHAR uni1E09
ENCODING 7689
SWIDTH 537 0
DWIDTH 17 0
BBX 16 30 0 -7
BITMAP
0030
0078
00F8
01F0
03C0
0300
0000
03FC
0FCE
1F0F
3F1F
7E1F
7E1F
FC0E
FC00
FC00
F800
F800
F804
FC0C
7E38
3FF0
0FC0
0200
0600
0F80
01C0
31C0
1F80
0F00
ENDCHAR
STARTCHAR uni1E0A
ENCODING 7690
SWIDTH 833 0
DWIDTH 27 0
BBX 28 31 -2 0
BITMAP
00038000
0007C000
0007C000
0007C000
00038000
00000000
07FFF800
07FFFF00
00FE1F80
00FC07C0
00FC07E0
00FC03E0
01F803F0
01F803F0
01F803F0
01F003F0
03F003F0
03F007F0
03F007F0
07E007F0
07E007E0
07E00FE0
07E00FE0
0FC00FC0
0FC01FC0
0FC01F80
0FC03F00
1F807E00
1F81FC00
FFFFF000
FFFF0000
ENDCHAR
STARTCHAR uni1E0B
ENCODING 7691
SWIDTH 667 0
DWIDTH 22 0
BBX 22 31 0 0
BITMAP
0001C0
0003E0
0003E0
0003E0
0001C0
000000
00003C
0003FC
0000FC
0000FC
0000F8
0000F8
0000F8
0001F0
0001F0
01F1F0
07FFE0
1F8FE0
3F07E0
3E07E0
7E07C0
7E07C0
FC0FC0
FC0F80
FC0F80
F81F88
F81F98
FC3F30
7C6FE0
7FCFC0
1F8F80
ENDCHAR
STARTCHAR uni1E0C
ENCODING 7692
SWIDTH 833 0
DWIDTH 27 0
BBX 28 31 -2 -6
BITMAP
07FFF800
07FFFF00
00FE1F80
00FC07C0
00FC07E0
00FC03E0
01F803F0
01F803F0
01F803F0
01F003F0
03F003F0
03F007F0
03F007F0
07E007F0
07E007E0
07E00FE0
07E00FE0
0FC00FC0
0FC01FC0
0FC01F80
0FC03F00
1F807E00
1F81FC00
FFFFF000
FFFF0000
00000000
001C0000
003E0000
003E0000
003E0000
001C0000
ENDCHAR
STARTCHAR uni1E0D
ENCODING 7693
SWIDTH 667 0
DWIDTH 22 0
BBX 22 31 0 -6
BITMAP
00003C
0003FC
0000FC
0000FC
0000F8
0000F8
0000F8
0001F0
0001F0
01F1F0
07FFE0
1F8FE0
3F07E0
3E07E0
7E07C0
7E07C0
FC0FC0
FC0F80
FC0F80
F81F88
F81F98
FC3F30
7C6FE0
7FCFC0
1F8F80
000000
007000
00F800
00F800
00F800
007000
ENDCHAR
STARTCHAR uni1E0E
ENCODING 7694
SWIDTH 833 0
DWIDTH 27 0
BBX 28 29 -2 -4
BITMAP
07FFF800
07FFFF00
00FE1F80
00FC07C0
00FC07E0
00FC03E0
01F803F0
01F803F0
01F803F0
01F003F0
03F003F0
03F007F0
03F007F0
07E007F0
07E007E0
07E00FE0
07E00FE0
0FC00FC0
0FC01FC0
0FC01F80
0FC03F00
1F807E00
1F81FC00
FFFFF000
FFFF0000
00000000
00FF8000
01FF8000
01FF0000
ENDCHAR
STARTCHAR uni1E0F
ENCODING 7695
SWIDTH 667 0
DWIDTH 22 0
BBX 22 29 0 -4
BITMAP
00003C
0003FC
0000FC
0000FC
0000F8
0000F8
0000F8
0001F0
0001F0
01F1F0
07FFE0
1F8FE0
3F07E0
3E07E0
7E07C0
7E07C0
FC0FC0
FC0F80
FC0F80
F81F88
F81F98
FC3F30
7C6FE0
7FCFC0
1F8F80
000000
03FE00
07FE00
07FC00
ENDCHAR
STARTCHAR uni1E10
ENCODING 7696
SWIDTH 833 0
DWIDTH 27 0
BBX 28 32 -2 -7
BITMAP
07FFF800
07FFFF00
00FE1F80
00FC07C0
00FC07E0
00FC03E0
01F803F0
01F803F0
01F803F0
01F003F0
03F003F0
03F007F0
03F007F0
07E007F0
07E007E0
07E00FE0
07E00FE0
0FC00FC0
0FC01FC0
0FC01F80
0FC03F00
1F807E00
1F81FC00
FFFFF000
FFFF0000
00040000
000C0000
001F0000
00038000
00638000
003F0000
001E0000
ENDCHAR
STARTCHAR uni1E11
ENCODING 7697
SWIDTH 667 0
DWIDTH 22 0
BBX 22 32 0 -7
BITMAP
00003C
0003FC
0000FC
0000FC
0000F8
0000F8
0000F8
0001F0
0001F0
01F1F0
07FFE0
1F8FE0
3F07E0
3E07E0
7E07C0
7E07C0
FC0FC0
FC0F80
FC0F80
F81F88
F81F98
FC3F30
7C6FE0
7FCFC0
1F8F80
002000
006000
00F800
001C00
031C00
01F800
00F000
ENDCHAR
STARTCHAR uni1E12
ENCODING 7698
SWIDTH 833 0
DWIDTH 27 0
BBX 28 32 -2 -7
BITMAP
07FFF800
07FFFF00
00FE1F80
00FC07C0
00FC07E0
00FC03E0
01F803F0
01F803F0
01F803F0
01F003F0
03F003F0
03F007F0
03F007F0
07E007F0
07E007E0
07E00FE0
07E00FE0
0FC00FC0
0FC01FC0
0FC01F80
0FC03F00
1F807E00
1F81FC00
FFFFF000
FFFF0000
00000000
000E0000
001E0000
003F0000
007F0000
00E18000
01808000
ENDCHAR
STARTCHAR uni1E13
ENCODING 7699
SWIDTH 667 0
DWIDTH 22 0
BBX 22 32 0 -7
BITMAP
00003C
0003FC
0000FC
0000FC
0000F8
0000F8
0000F8
0001F0
0001F0
01F1F0
07FFE0
1F8FE0
3F07E0
3E07E0
7E07C0
7E07C0
FC0FC0
FC0F80
FC0F80
F81F88
F81F98
FC3F30
7C6FE0
7FCFC0
1F8F80
000000
007000
00F000
01F800
03F800
070C00
0C0400
ENDCHAR
STARTCHAR uni1E14
ENCODING 7700
SWIDTH 741 0
DWIDTH 24 0
BBX 26 36 -1 0
BITMAP
00180000
003C0000
003E0000
001F0000
00078000
00018000
00000000
001FF000
003FF000
003FE000
00000000
07FFFFC0
07FFFFC0
00FC0FC0
00FC0780
00FC0380
01F80380
01F80380
01F83300
01F87300
03F06000
03F1E000
03FFE000
03FFE000
07E3C000
07E1C000
07E1C000
07E1C300
0FC18700
0FC18600
0FC00E00
0FC01E00
0F803C00
1F80FC00
FFFFFC00
FFFFFC00
ENDCHAR
STARTCHAR uni1E15
ENCODING 7701
SWIDTH 519 0
DWIDTH 17 0
BBX 16 27 0 0
BITMAP
0600
0F00
0F80
07C0
01E0
0060
0000
07FC
0FFC
0FF8
0000
03FC
079E
1F0F
3E0F
3E1F
7C1F
7C3E
FCFC
FFE0
FC00
F800
F800
FC0C
7C38
3FF0
0FC0
ENDCHAR
STARTCHAR uni1E16
ENCODING 7702
SWIDTH 741 0
DWIDTH 24 0
BBX 26 36 -1 0
BITMAP
0000C000
0001E000
0003E000
0007C000
000F0000
000C0000
00000000
001FF000
003FF000
003FE000
00000000
07FFFFC0
07FFFFC0
00FC0FC0
00FC0780
00FC0380
01F80380
01F80380
01F83300
01F87300
03F06000
03F1E000
03FFE000
03FFE000
07E3C000
07E1C000
07E1C000
07E1C300
0FC18700
0FC18600
0FC00E00
0FC01E00
0F803C00
1F80FC00
FFFFFC00
FFFFFC00
ENDCHAR
STARTCHAR uni1E17
ENCODING 7703
SWIDTH 519 0
DWIDTH 17 0
BBX 16 27 0 0
BITMAP
0018
003C
007C
00F8
01E0
0180
0000
07FC
0FFC
0FF8
0000
03FC
079E
1F0F
3E0F
3E1F
7C1F
7C3E
FCFC
FFE0
FC00
F800
F800
FC0C
7C38
3FF0
0FC0
ENDCHAR
STARTCHAR uni1E18
ENCODING 7704
SWIDTH 741 0
DWIDTH 24 0
BBX 26 32 -1 -7
BITMAP
07FFFFC0
07FFFFC0
00FC0FC0
00FC0780
00FC0380
01F80380
01F80380
01F83300
01F87300
03F06000
03F1E000
03FFE000
03FFE000
07E3C000
07E1C000
07E1C000
07E1C300
0FC18700
0FC18600
0FC00E00
0FC01E00
0F803C00
1F80FC00
FFFFFC00
FFFFFC00
00000000
001C0000
003C0000
007E0000
00FE0000
01C30000
03010000
ENDCHAR
STARTCHAR uni1E19
ENCODING 7705
SWIDTH 519 0
DWIDTH 17 0
BBX 16 23 0 -7
BITMAP
03FC
079E
1F0F
3E0F
3E1F
7C1F
7C3E
FCFC
FFE0
FC00
F800
F800
FC0C
7C38
3FF0
0FC0
0000
0380
0780
0FC0
1FC0
3860
6020
ENDCHAR
STARTCHAR uni1E1A
ENCODING 7706
SWIDTH 741 0
DWIDTH 24 0
BBX 26 30 -1 -5
BITMAP
07FFFFC0
07FFFFC0
00FC0FC0
00FC0780
00FC0380
01F80380
01F80380
01F83300
01F87300
03F06000
03F1E000
03FFE000
03FFE000
07E3C000
07E1C000
07E1C000
07E1C300
0FC18700
0FC18600
0FC00E00
0FC01E00
0F803C00
1F80FC00
FFFFFC00
FFFFFC00
00000000
00718000
00FF8000
01FF0000
038E0000
ENDCHAR
STARTCHAR uni1E1B
ENCODING 7707
SWIDTH 519 0
DWIDTH 17 0
BBX 16 21 0 -5
BITMAP
03FC
079E
1F0F
3E0F
3E1F
7C1F
7C3E
FCFC
FFE0
FC00
F800
F800
FC0C
7C38
3FF0
0FC0
0000
1C60
3FE0
7FC0
E380
ENDCHAR
STARTCHAR uni1E1C
ENCODING 7708
SWIDTH 741 0
DWIDTH 24 0
BBX 26 39 -1 -7
BITMAP
00603000
00603000
00706000
003FE000
003FC000
000F0000
00000000
07FFFFC0
07FFFFC0
00FC0FC0
00FC0780
00FC0380
01F80380
01F80380
01F83300
01F87300
03F06000
03F1E000
03FFE000
03FFE000
07E3C000
07E1C000
07E1C000
07E1C300
0FC18700
0FC18600
0FC00E00
0FC01E00
0F803C00
1F80FC00
FFFFFC00
FFFFFC00
00080000
00180000
003E0000
00070000
00C70000
007E0000
003C0000
ENDCHAR
STARTCHAR uni1E1D
ENCODING 7709
SWIDTH 519 0
DWIDTH 17 0
BBX 16 30 0 -7
BITMAP
0C06
0C06
0E0C
07FC
07F8
01E0
0000
03FC
079E
1F0F
3E0F
3E1F
7C1F
7C3E
FCFC
FFE0
FC00
F800
F800
FC0C
7C38
3FF0
0FC0
0100
0300
07C0
00E0
18E0
0FC0
0780
ENDCHAR
STARTCHAR uni1E1E
ENCODING 7710
SWIDTH 704 0
DWIDTH 23 0
BBX 26 31 -1 0
BITMAP
00070000
000F8000
000F8000
000F8000
00070000
00000000
07FFFFC0
07FFFFC0
00FE0FC0
00FC0780
00FC0380
00FC0380
01F80380
01F83300
01F83300
01F87000
03F1E000
03FFE000
03FFE000
03E3C000
07E1C000
07E1C000
07E1C000
0FC18000
0FC18000
0FC00000
0FC00000
1F800000
1F800000
FFF80000
FFF80000
ENDCHAR
STARTCHAR uni1E1F
ENCODING 7711
SWIDTH 389 0
DWIDTH 12 0
BBX 19 38 -1 -7
BITMAP
003800
007C00
007C00
007C00
003800
000000
001F80
007DC0
00FBE0
01F3E0
01F3E0
01F1C0
03E000
03E000
03E000
3FFC00
3FFC00
07C000
07C000
0F8000
0F8000
0F8000
0F8000
1F0000
1F0000
1F0000
1F0000
3E0000
3E0000
3E0000
3E0000
7C0000
7C0000
7C0000
7C0000
F80000
F80000
F80000
ENDCHAR
STARTCHAR uni1E20
ENCODING 7712
SWIDTH 815 0
DWIDTH 25 0
BBX 25 29 0 0
BITMAP
003FE000
007FE000
007FC000
00000000
000F8080
007FF180
01F83F80
03F01F80
07E00F00
0FC00F00
1F800F00
3F800600
3F000600
7F000600
7F000600
FE000000
FE000000
FE000000
FE07FF80
FC07FF80
FC00FC00
FC00FC00
FC00FC00
7C00F800
7E01F800
3E03F800
1F87B000
07FF3000
00F83000
ENDCHAR
STARTCHAR uni1E21
ENCODING 7713
SWIDTH 611 0
DWIDTH 20 0
BBX 22 29 -2 -7
BITMAP
003FE0
007FE0
007FC0
000000
00003C
00007C
007FDC
01F3DC
03E1E0
07C1F0
07C1F0
07C1F0
07C3F0
07C3F0
03C7E0
07EFC0
0F7E00
1C0000
3E0000
3FFC00
3FFF00
1FFF80
1FFF80
7C1F80
F00780
F00780
F80F00
7F3E00
0FF000
ENDCHAR
STARTCHAR uni1E22
ENCODING 7714
SWIDTH 870 0
DWIDTH 29 0
BBX 31 31 -1 0
BITMAP
0000E000
0001F000
0001F000
0001F000
0000E000
00000000
07FF9FFE
07FF9FFE
00FC03F0
00FC03F0
00F803F0
01F807E0
01F807E0
01F807E0
01F807C0
03F00FC0
03F00FC0
03FFFFC0
03FFFF80
07E01F80
07E01F80
07E01F80
07E01F00
0FC03F00
0FC03F00
0FC03F00
0F803E00
1F807E00
1F807E00
FFF3FFC0
FFF3FFC0
ENDCHAR
STARTCHAR uni1E23
ENCODING 7715
SWIDTH 685 0
DWIDTH 22 0
BBX 21 31 0 0
BITMAP
00E000
01F000
01F000
01F000
00E000
000000
00F000
07F000
01F000
01F000
03E000
03E000
03E000
07C000
07C000
07C780
0F9FC0
0FBFE0
0FF3E0
1FC3E0
1F87E0
1F07C0
1F07C0
3E0FC0
3E0F80
3E0F98
7E1F18
7C1F70
7C1FE0
FC0FC0
FC0700
ENDCHAR
STARTCHAR uni1E24
ENCODING 7716
SWIDTH 870 0
DWIDTH 29 0
BBX 31 31 -1 -6
BITMAP
07FF9FFE
07FF9FFE
00FC03F0
00FC03F0
00F803F0
01F807E0
01F807E0
01F807E0
01F807C0
03F00FC0
03F00FC0
03FFFFC0
03FFFF80
07E01F80
07E01F80
07E01F80
07E01F00
0FC03F00
0FC03F00
0FC03F00
0F803E00
1F807E00
1F807E00
FFF3FFC0
FFF3FFC0
00000000
00070000
000F8000
000F8000
000F8000
00070000
ENDCHAR
STARTCHAR uni1E25
ENCODING 7717
SWIDTH 685 0
DWIDTH 22 0
BBX 21 31 0 -6
BITMAP
00F000
07F000
01F000
01F000
03E000
03E000
03E000
07C000
07C000
07C780
0F9FC0
0FBFE0
0FF3E0
1FC3E0
1F87E0
1F07C0
1F07C0
3E0FC0
3E0F80
3E0F98
7E1F18
7C1F70
7C1FE0
FC0FC0
FC0700
000000
007000
00F800
00F800
00F800
007000
ENDCHAR
STARTCHAR uni1E26
ENCODING 7718
SWIDTH 870 0
DWIDTH 29 0
BBX 31 31 -1 0
BITMAP
000E1C00
001F3E00
001F3E00
001F3E00
000E1C00
00000000
07FF9FFE
07FF9FFE
00FC03F0
00FC03F0
00F803F0
01F807E0
01F807E0
01F807E0
01F807C0
03F00FC0
03F00FC0
03FFFFC0
03FFFF80
07E01F80
07E01F80
07E01F80
07E01F00
0FC03F00
0FC03F00
0FC03F00
0F803E00
1F807E00
1F807E00
FFF3FFC0
FFF3FFC0
ENDCHAR
STARTCHAR uni1E27
ENCODING 7719
SWIDTH 685 0
DWIDTH 22 0
BBX 21 31 0 0
BITMAP
0E1C00
1F3E00
1F3E00
1F3E00
0E1C00
000000
00F000
07F000
01F000
01F000
03E000
03E000
03E000
07C000
07C000
07C780
0F9FC0
0FBFE0
0FF3E0
1FC3E0
1F87E0
1F07C0
1F07C0
3E0FC0
3E0F80
3E0F98
7E1F18
7C1F70
7C1FE0
FC0FC0
FC0700
ENDCHAR
STARTCHAR uni1E28
ENCODING 7720
SWIDTH 870 0
DWIDTH 29 0
BBX 31 32 -1 -7
BITMAP
07FF9FFE
07FF9FFE
00FC03F0
00FC03F0
00F803F0
01F807E0
01F807E0
01F807E0
01F807C0
03F00FC0
03F00FC0
03FFFFC0
03FFFF80
07E01F80
07E01F80
07E01F80
07E01F00
0FC03F00
0FC03F00
0FC03F00
0F803E00
1F807E00
1F807E00
FFF3FFC0
FFF3FFC0
00020000
00060000
000F8000
0001C000
0031C000
001F8000
000F0000
ENDCHAR
STARTCHAR uni1E29
ENCODING 7721
SWIDTH 685 0
DWIDTH 22 0
BBX 21 32 0 -7
BITMAP
00F000
07F000
01F000
01F000
03E000
03E000
03E000
07C000
07C000
07C780
0F9FC0
0FBFE0
0FF3E0
1FC3E0
1F87E0
1F07C0
1F07C0
3E0FC0
3E0F80
3E0F98
7E1F18
7C1F70
7C1FE0
FC0FC0
FC0700
002000
006000
00F800
001C00
031C00
01F800
00F000
ENDCHAR
STARTCHAR uni1E2A
ENCODING 7722
SWIDTH 870 0
DWIDTH 29 0
BBX 31 32 -1 -7
BITMAP
07FF9FFE
07FF9FFE
00FC03F0
00FC03F0
00F803F0
01F807E0
01F807E0
01F807E0
01F807C0
03F00FC0
03F00FC0
03FFFFC0
03FFFF80
07E01F80
07E01F80
07E01F80
07E01F00
0FC03F00
0FC03F00
0FC03F00
0F803E00
1F807E00
1F807E00
FFF3FFC0
FFF3FFC0
00000000
00603000
00603000
00706000
003FE000
003FC000
000F0000
ENDCHAR
STARTCHAR uni1E2B
ENCODING 7723
SWIDTH 685 0
DWIDTH 22 0
BBX 21 32 0 -7
BITMAP
00F000
07F000
01F000
01F000
03E000
03E000
03E000
07C000
07C000
07C780
0F9FC0
0FBFE0
0FF3E0
1FC3E0
1F87E0
1F07C0
1F07C0
3E0FC0
3E0F80
3E0F98
7E1F18
7C1F70
7C1FE0
FC0FC0
FC0700
000000
060300
060300
070600
03FE00
03FC00
00F000
ENDCHAR
STARTCHAR uni1E2C
ENCODING 7724
SWIDTH 444 0
DWIDTH 15 0
BBX 17 30 -1 -5
BITMAP
07FF80
07FF80
00FC00
00FC00
00FC00
01F800
01F800
01F800
01F800
03F000
03F000
03F000
03F000
07E000
07E000
07E000
0FC000
0FC000
0FC000
0FC000
1F8000
1F8000
1FC000
FFF000
FFF000
000000
0E3000
1FF000
3FE000
71C000
ENDCHAR
STARTCHAR uni1E2D
ENCODING 7725
SWIDTH 389 0
DWIDTH 12 0
BBX 12 30 -1 -5
BITMAP
00C0
01E0
03F0
03F0
01E0
00C0
0000
0000
0000
07C0
3FC0
0FC0
0FC0
0F80
0F80
1F80
1F00
1F00
1F00
3F30
3E30
3E60
3EC0
3F80
1F00
0000
1C60
3FE0
7FC0
E380
ENDCHAR
STARTCHAR uni1E2E
ENCODING 7726
SWIDTH 444 0
DWIDTH 15 0
BBX 18 39 -1 0
BITMAP
000C00
001E00
003E00
007C00
00F000
00C000
000000
01C380
03E7C0
03E7C0
03E7C0
01C380
000000
000000
07FF80
07FF80
00FC00
00FC00
00FC00
01F800
01F800
01F800
01F800
03F000
03F000
03F000
03F000
07E000
07E000
07E000
0FC000
0FC000
0FC000
0FC000
1F8000
1F8000
1FC000
FFF000
FFF000
ENDCHAR
STARTCHAR uni1E2F
ENCODING 7727
SWIDTH 389 0
DWIDTH 13 0
BBX 13 30 1 0
BITMAP
0060
00F0
01F0
03E0
0780
0600
0000
3870
7CF8
7CF8
7CF8
3870
0000
0000
0F80
7F80
1F80
1F00
3F00
3F00
3E00
3E00
7E00
7C00
7C40
FCC0
F980
FB80
FF00
7C00
ENDCHAR
STARTCHAR uni1E30
ENCODING 7728
SWIDTH 778 0
DWIDTH 26 0
BBX 29 32 -1 0
BITMAP
00006000
0000F000
0001F000
0003E000
00078000
00060000
00000000
07FF9FF8
07FF9FF8
00FE07C0
00FC0780
00FC0E00
01F81C00
01F83800
01F87000
01F8E000
03F1C000
03F3C000
03F7C000
03FFE000
07FFE000
07FBF000
07F3F000
07E3F800
0FC1F800
0FC1FC00
0FC0FC00
0F80FC00
1F807E00
1F807F00
FFF3FFC0
FFF3FFC0
ENDCHAR
STARTCHAR uni1E31
ENCODING 7729
SWIDTH 648 0
DWIDTH 20 0
BBX 19 32 0 0
BITMAP
003000
007800
00F800
01F000
03C000
030000
000000
01F000
0FF000
03F000
03E000
03E000
07E000
07C000
07C000
07C000
0FC780
0F9FE0
0FBFE0
1FE3E0
1FC1E0
1F83C0
3F0780
3FFF00
3EF800
7C3C00
7C3E00
7C3E60
7C3E60
F83FC0
F83F80
F80E00
ENDCHAR
STARTCHAR uni1E32
ENCODING 7730
SWIDTH 778 0
DWIDTH 26 0
BBX 29 31 -1 -6
BITMAP
07FF9FF8
07FF9FF8
00FE07C0
00FC0780
00FC0E00
01F81C00
01F83800
01F87000
01F8E000
03F1C000
03F3C000
03F7C000
03FFE000
07FFE000
07FBF000
07F3F000
07E3F800
0FC1F800
0FC1FC00
0FC0FC00
0F80FC00
1F807E00
1F807F00
FFF3FFC0
FFF3FFC0
00000000
000E0000
001F0000
001F0000
001F0000
000E0000
ENDCHAR
STARTCHAR uni1E33
ENCODING 7731
SWIDTH 648 0
DWIDTH 20 0
BBX 19 31 0 -6
BITMAP
01F000
0FF000
03F000
03E000
03E000
07E000
07C000
07C000
07C000
0FC780
0F9FE0
0FBFE0
1FE3E0
1FC1E0
1F83C0
3F0780
3FFF00
3EF800
7C3C00
7C3E00
7C3E60
7C3E60
F83FC0
F83F80
F80E00
000000
01C000
03E000
03E000
03E000
01C000
ENDCHAR
STARTCHAR uni1E34
ENCODING 7732
SWIDTH 778 0
DWIDTH 26 0
BBX 29 29 -1 -4
BITMAP
07FF9FF8
07FF9FF8
00FE07C0
00FC0780
00FC0E00
01F81C00
01F83800
01F87000
01F8E000
03F1C000
03F3C000
03F7C000
03FFE000
07FFE000
07FBF000
07F3F000
07E3F800
0FC1F800
0FC1FC00
0FC0FC00
0F80FC00
1F807E00
1F807F00
FFF3FFC0
FFF3FFC0
00000000
007FC000
00FFC000
00FF8000
ENDCHAR
STARTCHAR uni1E35
ENCODING 7733
SWIDTH 648 0
DWIDTH 20 0
BBX 19 29 0 -4
BITMAP
01F000
0FF000
03F000
03E000
03E000
07E000
07C000
07C000
07C000
0FC780
0F9FE0
0FBFE0
1FE3E0
1FC1E0
1F83C0
3F0780
3FFF00
3EF800
7C3C00
7C3E00
7C3E60
7C3E60
F83FC0
F83F80
F80E00
000000
07FC00
0FFC00
0FF800
ENDCHAR
STARTCHAR uni1E36
ENCODING 7734
SWIDTH 704 0
DWIDTH 22 0
BBX 24 31 -1 -6
BITMAP
07FFC0
07FFC0
00FC00
00FC00
00FC00
01F800
01F800
01F800
01F800
03F000
03F000
03F000
03F000
07E000
07E000
07E000
07E003
0FC006
0FC00E
0FC00E
0FC01C
1F803C
1F80FC
FFFFF8
FFFFF8
000000
003800
007C00
007C00
007C00
003800
ENDCHAR
STARTCHAR uni1E37
ENCODING 7735
SWIDTH 389 0
DWIDTH 12 0
BBX 11 31 1 -6
BITMAP
03E0
1FE0
07E0
07C0
07C0
07C0
0FC0
0F80
0F80
1F80
1F00
1F00
3F00
3E00
3E00
3E00
7E00
7C00
7C00
FC40
F8C0
F9C0
FB80
FF00
7C00
0000
1C00
3E00
3E00
3E00
1C00
ENDCHAR
STARTCHAR uni1E38
ENCODING 7736
SWIDTH 704 0
DWIDTH 22 0
BBX 24 35 -1 -6
BITMAP
00FF80
01FF80
01FF00
000000
07FFC0
07FFC0
00FC00
00FC00
00FC00
01F800
01F800
01F800
01F800
03F000
03F000
03F000
03F000
07E000
07E000
07E000
07E003
0FC006
0FC00E
0FC00E
0FC01C
1F803C
1F80FC
FFFFF8
FFFFF8
000000
003800
007C00
007C00
007C00
003800
ENDCHAR
STARTCHAR uni1E39
ENCODING 7737
SWIDTH 389 0
DWIDTH 12 0
BBX 12 35 1 -6
BITMAP
1FF0
3FF0
3FE0
0000
03E0
1FE0
07E0
07C0
07C0
07C0
0FC0
0F80
0F80
1F80
1F00
1F00
3F00
3E00
3E00
3E00
7E00
7C00
7C00
FC40
F8C0
F9C0
FB80
FF00
7C00
0000
1C00
3E00
3E00
3E00
1C00
ENDCHAR
STARTCHAR uni1E3A
ENCODING 7738
SWIDTH 704 0
DWIDTH 22 0
BBX 24 29 -1 -4
BITMAP
07FFC0
07FFC0
00FC00
00FC00
00FC00
01F800
01F800
01F800
01F800
03F000
03F000
03F000
03F000
07E000
07E000
07E000
07E003
0FC006
0FC00E
0FC00E
0FC01C
1F803C
1F80FC
FFFFF8
FFFFF8
000000
01FF00
03FF00
03FE00
ENDCHAR
STARTCHAR uni1E3B
ENCODING 7739
SWIDTH 389 0
DWIDTH 12 0
BBX 12 29 0 -4
BITMAP
01F0
0FF0
03F0
03E0
03E0
03E0
07E0
07C0
07C0
0FC0
0F80
0F80
1F80
1F00
1F00
1F00
3F00
3E00
3E00
7E20
7C60
7CE0
7DC0
7F80
3E00
0000
7FC0
FFC0
FF80
ENDCHAR
STARTCHAR uni1E3C
ENCODING 7740
SWIDTH 704 0
DWIDTH 22 0
BBX 24 32 -1 -7
BITMAP
07FFC0
07FFC0
00FC00
00FC00
00FC00
01F800
01F800
01F800
01F800
03F000
03F000
03F000
03F000
07E000
07E000
07E000
07E003
0FC006
0FC00E
0FC00E
0FC01C
1F803C
1F80FC
FFFFF8
FFFFF8
000000
001C00
003C00
007E00
00FE00
01C300
030100
ENDCHAR
STARTCHAR uni1E3D
ENCODING 7741
SWIDTH 389 0
DWIDTH 12 0
BBX 12 32 0 -7
BITMAP
01F0
0FF0
03F0
03E0
03E0
03E0
07E0
07C0
07C0
0FC0
0F80
0F80
1F80
1F00
1F00
1F00
3F00
3E00
3E00
7E20
7C60
7CE0
7DC0
7F80
3E00
0000
0700
0F00
1F80
3F80
70C0
C040
ENDCHAR
STARTCHAR uni1E3E
ENCODING 7742
SWIDTH 944 0
DWIDTH 31 0
BBX 34 32 -1 0
BITMAP
00000C0000
00001E0000
00003E0000
00007C0000
0000F00000
0000C00000
0000000000
0FFE007FC0
0FFE00FFC0
01FE00FE00
01FE01FE00
01FE03FE00
01FE03FC00
01BE077C00
03BE06FC00
033E0EF800
033E1DF800
033E19F800
073E39F800
063E31F000
063E73F000
0E3E63F000
0E3FC3F000
0C3FC3E000
0C3F87E000
1C3F87E000
1C3F07E000
183E0FC000
383E0FC000
781C1FC000
FE1C7FF800
FE187FF800
ENDCHAR
STARTCHAR uni1E3F
ENCODING 7743
SWIDTH 944 0
DWIDTH 30 0
BBX 29 23 0 0
BITMAP
0000C000
0001E000
0003E000
0007C000
000F0000
000C0000
00000000
0F870380
7F9F8FC0
1F7FDFE0
1FE7F3E0
1FC7E3E0
1F87C3E0
3F0FC7C0
3F0F87C0
3E0F87C0
7E1F07C0
7C1F0F98
7C1F0F98
7C1F0FB0
F83E0FE0
F83E0FC0
F83E0700
ENDCHAR
STARTCHAR uni1E40
ENCODING 7744
SWIDTH 944 0
DWIDTH 31 0
BBX 34 31 -1 0
BITMAP
0000700000
0000F80000
0000F80000
0000F80000
0000700000
0000000000
0FFE007FC0
0FFE00FFC0
01FE00FE00
01FE01FE00
01FE03FE00
01FE03FC00
01BE077C00
03BE06FC00
033E0EF800
033E1DF800
033E19F800
073E39F800
063E31F000
063E73F000
0E3E63F000
0E3FC3F000
0C3FC3E000
0C3F87E000
1C3F87E000
1C3F07E000
183E0FC000
383E0FC000
781C1FC000
FE1C7FF800
FE187FF800
ENDCHAR
STARTCHAR uni1E41
ENCODING 7745
SWIDTH 944 0
DWIDTH 30 0
BBX 29 22 0 0
BITMAP
00070000
000F8000
000F8000
000F8000
00070000
00000000
0F870380
7F9F8FC0
1F7FDFE0
1FE7F3E0
1FC7E3E0
1F87C3E0
3F0FC7C0
3F0F87C0
3E0F87C0
7E1F07C0
7C1F0F98
7C1F0F98
7C1F0FB0
F83E0FE0
F83E0FC0
F83E0700
ENDCHAR
STARTCHAR uni1E42
ENCODING 7746
SWIDTH 944 0
DWIDTH 31 0
BBX 34 31 -1 -6
BITMAP
0FFE007FC0
0FFE00FFC0
01FE00FE00
01FE01FE00
01FE03FE00
01FE03FC00
01BE077C00
03BE06FC00
033E0EF800
033E1DF800
033E19F800
073E39F800
063E31F000
063E73F000
0E3E63F000
0E3FC3F000
0C3FC3E000
0C3F87E000
1C3F87E000
1C3F07E000
183E0FC000
383E0FC000
781C1FC000
FE1C7FF800
FE187FF800
0000000000
0003800000
0007C00000
0007C00000
0007C00000
0003800000
ENDCHAR
STARTCHAR uni1E43
ENCODING 7747
SWIDTH 944 0
DWIDTH 30 0
BBX 29 22 0 -6
BITMAP
0F870380
7F9F8FC0
1F7FDFE0
1FE7F3E0
1FC7E3E0
1F87C3E0
3F0FC7C0
3F0F87C0
3E0F87C0
7E1F07C0
7C1F0F98
7C1F0F98
7C1F0FB0
F83E0FE0
F83E0FC0
F83E0700
00000000
00070000
000F8000
000F8000
000F8000
00070000
ENDCHAR
STARTCHAR uni1E44
ENCODING 7748
SWIDTH 852 0
DWIDTH 28 0
BBX 33 31 -2 0
BITMAP
0000E00000
0001F00000
0001F00000
0001F00000
0000E00000
0000000000
07FC01FF80
07FE01FF80
007E003C00
007F003800
007F003800
00FF803800
00DF803000
00DFC03000
00CFC03000
01CFE07000
0187E06000
0187F06000
0183F0E000
0383F8C000
0301F8C000
0300FCC000
0700FFC000
06007F8000
06007F8000
06003F8000
0E003F8000
0E001F0000
1F001F0000
FFC00F0000
FFC00F0000
ENDCHAR
STARTCHAR uni1E45
ENCODING 7749
SWIDTH 685 0
DWIDTH 22 0
BBX 21 22 0 0
BITMAP
007000
00F800
00F800
00F800
007000
000000
0F8780
7F9FC0
0FBFE0
0FF3E0
0FC3E0
1FC3E0
1F87E0
1F07C0
3F0FC0
3E0F80
3E0F88
7E0F98
7C1F30
7C1FE0
F81FC0
F80F00
ENDCHAR
STARTCHAR uni1E46
ENCODING 7750
SWIDTH 852 0
DWIDTH 28 0
BBX 33 31 -2 -6
BITMAP
07FC01FF80
07FE01FF80
007E003C00
007F003800
007F003800
00FF803800
00DF803000
00DFC03000
00CFC03000
01CFE07000
0187E06000
0187F06000
0183F0E000
0383F8C000
0301F8C000
0300FCC000
0700FFC000
06007F8000
06007F8000
06003F8000
0E003F8000
0E001F0000
1F001F0000
FFC00F0000
FFC00F0000
0000000000
0007000000
000F800000
000F800000
000F800000
0007000000
ENDCHAR
STARTCHAR uni1E47
ENCODING 7751
SWIDTH 685 0
DWIDTH 22 0
BBX 21 22 0 -6
BITMAP
0F8780
7F9FC0
0FBFE0
0FF3E0
0FC3E0
1FC3E0
1F87E0
1F07C0
3F0FC0
3E0F80
3E0F88
7E0F98
7C1F30
7C1FE0
F81FC0
F80F00
000000
007000
00F800
00F800
00F800
007000
ENDCHAR
STARTCHAR uni1E48
ENCODING 7752
SWIDTH 852 0
DWIDTH 28 0
BBX 33 29 -2 -4
BITMAP
07FC01FF80
07FE01FF80
007E003C00
007F003800
007F003800
00FF803800
00DF803000
00DFC03000
00CFC03000
01CFE07000
0187E06000
0187F06000
0183F0E000
0383F8C000
0301F8C000
0300FCC000
0700FFC000
06007F8000
06007F8000
06003F8000
0E003F8000
0E001F0000
1F001F0000
FFC00F0000
FFC00F0000
0000000000
003FE00000
007FE00000
007FC00000
ENDCHAR
STARTCHAR uni1E49
ENCODING 7753
SWIDTH 685 0
DWIDTH 22 0
BBX 21 20 0 -4
BITMAP
0F8780
7F9FC0
0FBFE0
0FF3E0
0FC3E0
1FC3E0
1F87E0
1F07C0
3F0FC0
3E0F80
3E0F88
7E0F98
7C1F30
7C1FE0
F81FC0
F80F00
000000
03FE00
07FE00
07FC00
ENDCHAR
STARTCHAR uni1E4A
ENCODING 7754
SWIDTH 852 0
DWIDTH 28 0
BBX 33 32 -2 -7
BITMAP
07FC01FF80
07FE01FF80
007E003C00
007F003800
007F003800
00FF803800
00DF803000
00DFC03000
00CFC03000
01CFE07000
0187E06000
0187F06000
0183F0E000
0383F8C000
0301F8C000
0300FCC000
0700FFC000
06007F8000
06007F8000
06003F8000
0E003F8000
0E001F0000
1F001F0000
FFC00F0000
FFC00F0000
0000000000
0003800000
0007800000
000FC00000
001FC00000
0038600000
0060200000
ENDCHAR
STARTCHAR uni1E4B
ENCODING 7755
SWIDTH 685 0
DWIDTH 22 0
BBX 21 23 0 -7
BITMAP
0F8780
7F9FC0
0FBFE0
0FF3E0
0FC3E0
1FC3E0
1F87E0
1F07C0
3F0FC0
3E0F80
3E0F88
7E0F98
7C1F30
7C1FE0
F81FC0
F80F00
000000
007000
00F000
01F800
03F800
070C00
0C0400
ENDCHAR
STARTCHAR uni1E4C
ENCODING 7756
SWIDTH 833 0
DWIDTH 27 0
BBX 26 38 0 0
BITMAP
00006000
0000F000
0001F000
0003E000
00078000
00060000
00000000
00038C00
0007FC00
000FF800
001C7000
00000000
00000000
000FC000
007FF800
01FC3E00
03F01F00
07E01F00
0FC00F80
1F800F80
3F800FC0
3F000FC0
7F000FC0
7F001FC0
FE001FC0
FE001FC0
FE001FC0
FC003F80
FC003F80
FC003F00
FC007F00
7C007E00
7C00FC00
7E01FC00
3E03F000
1F0FE000
07FF8000
00FC0000
ENDCHAR
STARTCHAR uni1E4D
ENCODING 7757
SWIDTH 574 0
DWIDTH 19 0
BBX 18 29 0 0
BITMAP
000600
000F00
001F00
003E00
007800
006000
000000
007180
00FF80
01FF00
038E00
000000
000000
03FC00
0FCF00
1F0F80
3F07C0
7E07C0
7E07C0
FC0FC0
FC0FC0
FC0FC0
FC0FC0
F81F80
F81F80
F83F00
7C3E00
3CF800
0FE000
ENDCHAR
STARTCHAR uni1E4E
ENCODING 7758
SWIDTH 833 0
DWIDTH 27 0
BBX 26 37 0 0
BITMAP
00387000
007CF800
007CF800
007CF800
00387000
00000000
00038C00
0007FC00
000FF800
001C7000
00000000
00000000
000FC000
007FF800
01FC3E00
03F01F00
07E01F00
0FC00F80
1F800F80
3F800FC0
3F000FC0
7F000FC0
7F001FC0
FE001FC0
FE001FC0
FE001FC0
FC003F80
FC003F80
FC003F00
FC007F00
7C007E00
7C00FC00
7E01FC00
3E03F000
1F0FE000
07FF8000
00FC0000
ENDCHAR
STARTCHAR uni1E4F
ENCODING 7759
SWIDTH 574 0
DWIDTH 19 0
BBX 18 28 0 0
BITMAP
038700
07CF80
07CF80
07CF80
038700
000000
007180
00FF80
01FF00
038E00
000000
000000
03FC00
0FCF00
1F0F80
3F07C0
7E07C0
7E07C0
FC0FC0
FC0FC0
FC0FC0
FC0FC0
F81F80
F81F80
F83F00
7C3E00
3CF800
0FE000
ENDCHAR
STARTCHAR uni1E50
ENCODING 7760
SWIDTH 833 0
DWIDTH 27 0
BBX 26 36 0 0
BITMAP
00300000
00780000
007C0000
003E0000
000F0000
00030000
00000000
003FE000
007FE000
007FC000
00000000
000FC000
007FF800
01FC3E00
03F01F00
07E01F00
0FC00F80
1F800F80
3F800FC0
3F000FC0
7F000FC0
7F001FC0
FE001FC0
FE001FC0
FE001FC0
FC003F80
FC003F80
FC003F00
FC007F00
7C007E00
7C00FC00
7E01FC00
3E03F000
1F0FE000
07FF8000
00FC0000
ENDCHAR
STARTCHAR uni1E51
ENCODING 7761
SWIDTH 574 0
DWIDTH 19 0
BBX 18 27 0 0
BITMAP
030000
078000
07C000
03E000
00F000
003000
000000
03FE00
07FE00
07FC00
000000
03FC00
0FCF00
1F0F80
3F07C0
7E07C0
7E07C0
FC0FC0
FC0FC0
FC0FC0
FC0FC0
F81F80
F81F80
F83F00
7C3E00
3CF800
0FE000
ENDCHAR
STARTCHAR uni1E52
ENCODING 7762
SWIDTH 833 0
DWIDTH 27 0
BBX 26 36 0 0
BITMAP
0000C000
0001E000
0003E000
0007C000
000F0000
000C0000
00000000
003FE000
007FE000
007FC000
00000000
000FC000
007FF800
01FC3E00
03F01F00
07E01F00
0FC00F80
1F800F80
3F800FC0
3F000FC0
7F000FC0
7F001FC0
FE001FC0
FE001FC0
FE001FC0
FC003F80
FC003F80
FC003F00
FC007F00
7C007E00
7C00FC00
7E01FC00
3E03F000
1F0FE000
07FF8000
00FC0000
ENDCHAR
STARTCHAR uni1E53
ENCODING 7763
SWIDTH 574 0
DWIDTH 19 0
BBX 18 27 0 0
BITMAP
001800
003C00
007C00
00F800
01E000
018000
000000
03FE00
07FE00
07FC00
000000
03FC00
0FCF00
1F0F80
3F07C0
7E07C0
7E07C0
FC0FC0
FC0FC0
FC0FC0
FC0FC0
F81F80
F81F80
F83F00
7C3E00
3CF800
0FE000
ENDCHAR
STARTCHAR uni1E54
ENCODING 7764
SWIDTH 741 0
DWIDTH 24 0
BBX 25 32 -1 0
BITMAP
0000C000
0001E000
0003E000
0007C000
000F0000
000C0000
00000000
07FFF000
07FFFC00
00FC3F00
00FC1F00
00F80F80
01F80F80
01F80F80
01F80F80
01F01F80
03F01F80
03F03F00
03F07F00
03E1FE00
07FFFC00
07FFE000
07E00000
07C00000
0FC00000
0FC00000
0FC00000
0F800000
1F800000
1F800000
FFF00000
FFF00000
ENDCHAR
STARTCHAR uni1E55
ENCODING 7765
SWIDTH 648 0
DWIDTH 20 0
BBX 23 30 -4 -7
BITMAP
000180
0003C0
0007C0
000F80
001E00
001800
000000
00F9F0
07FFFC
01FC7C
01F87E
01F83E
01F03E
03F07E
03E07E
03E07E
07E07C
07E0FC
07C0F8
07E1F8
0FE3F0
0FBFC0
0F9F00
1F8000
1F0000
1F0000
1F0000
3F0000
FFC000
FFC000
ENDCHAR
STARTCHAR uni1E56
ENCODING 7766
SWIDTH 741 0
DWIDTH 24 0
BBX 25 31 -1 0
BITMAP
00070000
000F8000
000F8000
000F8000
00070000
00000000
07FFF000
07FFFC00
00FC3F00
00FC1F00
00F80F80
01F80F80
01F80F80
01F80F80
01F01F80
03F01F80
03F03F00
03F07F00
03E1FE00
07FFFC00
07FFE000
07E00000
07C00000
0FC00000
0FC00000
0FC00000
0F800000
1F800000
1F800000
FFF00000
FFF00000
ENDCHAR
STARTCHAR uni1E57
ENCODING 7767
SWIDTH 648 0
DWIDTH 20 0
BBX 23 29 -4 -7
BITMAP
000E00
001F00
001F00
001F00
000E00
000000
00F9F0
07FFFC
01FC7C
01F87E
01F83E
01F03E
03F07E
03E07E
03E07E
07E07C
07E0FC
07C0F8
07E1F8
0FE3F0
0FBFC0
0F9F00
1F8000
1F0000
1F0000
1F0000
3F0000
FFC000
FFC000
ENDCHAR
STARTCHAR uni1E58
ENCODING 7768
SWIDTH 796 0
DWIDTH 26 0
BBX 26 31 -1 0
BITMAP
00070000
000F8000
000F8000
000F8000
00070000
00000000
07FFF800
07FFFF00
00FC3F80
00FC1F80
00FC0FC0
01F80FC0
01F80FC0
01F80FC0
01F81FC0
03F01F80
03F03F00
03F07E00
03FFF800
07FF8000
07E1E000
07E1F000
07E1F800
0FC1F800
0FC1F800
0FC1F800
1F81F8C0
1F81F8C0
1F80FD80
FFF0FF00
FFF07E00
ENDCHAR
STARTCHAR uni1E59
ENCODING 7769
SWIDTH 519 0
DWIDTH 16 0
BBX 17 22 0 0
BITMAP
00E000
01F000
01F000
01F000
00E000
000000
0F9F00
7FBF80
1F6F80
1FCF80
1F8F00
1F8000
3F0000
3F0000
3E0000
7E0000
7C0000
7C0000
7C0000
FC0000
F80000
F80000
ENDCHAR
STARTCHAR uni1E5A
ENCODING 7770
SWIDTH 796 0
DWIDTH 26 0
BBX 26 31 -1 -6
BITMAP
07FFF800
07FFFF00
00FC3F80
00FC1F80
00FC0FC0
01F80FC0
01F80FC0
01F80FC0
01F81FC0
03F01F80
03F03F00
03F07E00
03FFF800
07FF8000
07E1E000
07E1F000
07E1F800
0FC1F800
0FC1F800
0FC1F800
1F81F8C0
1F81F8C0
1F80FD80
FFF0FF00
FFF07E00
00000000
001C0000
003E0000
003E0000
003E0000
001C0000
ENDCHAR
STARTCHAR uni1E5B
ENCODING 7771
SWIDTH 519 0
DWIDTH 16 0
BBX 17 22 0 -6
BITMAP
0F9F00
7FBF80
1F6F80
1FCF80
1F8F00
1F8000
3F0000
3F0000
3E0000
7E0000
7C0000
7C0000
7C0000
FC0000
F80000
F80000
000000
1C0000
3E0000
3E0000
3E0000
1C0000
ENDCHAR
STARTCHAR uni1E5C
ENCODING 7772
SWIDTH 796 0
DWIDTH 26 0
BBX 26 35 -1 -6
BITMAP
001FF000
003FF000
003FE000
00000000
07FFF800
07FFFF00
00FC3F80
00FC1F80
00FC0FC0
01F80FC0
01F80FC0
01F80FC0
01F81FC0
03F01F80
03F03F00
03F07E00
03FFF800
07FF8000
07E1E000
07E1F000
07E1F800
0FC1F800
0FC1F800
0FC1F800
1F81F8C0
1F81F8C0
1F80FD80
FFF0FF00
FFF07E00
00000000
001C0000
003E0000
003E0000
003E0000
001C0000
ENDCHAR
STARTCHAR uni1E5D
ENCODING 7773
SWIDTH 519 0
DWIDTH 16 0
BBX 17 26 0 -6
BITMAP
07FC00
0FFC00
0FF800
000000
0F9F00
7FBF80
1F6F80
1FCF80
1F8F00
1F8000
3F0000
3F0000
3E0000
7E0000
7C0000
7C0000
7C0000
FC0000
F80000
F80000
000000
1C0000
3E0000
3E0000
3E0000
1C0000
ENDCHAR
STARTCHAR uni1E5E
ENCODING 7774
SWIDTH 796 0
DWIDTH 26 0
BBX 26 29 -1 -4
BITMAP
07FFF800
07FFFF00
00FC3F80
00FC1F80
00FC0FC0
01F80FC0
01F80FC0
01F80FC0
01F81FC0
03F01F80
03F03F00
03F07E00
03FFF800
07FF8000
07E1E000
07E1F000
07E1F800
0FC1F800
0FC1F800
0FC1F800
1F81F8C0
1F81F8C0
1F80FD80
FFF0FF00
FFF07E00
00000000
00FF8000
01FF8000
01FF0000
ENDCHAR
STARTCHAR uni1E5F
ENCODING 7775
SWIDTH 519 0
DWIDTH 16 0
BBX 17 20 0 -4
BITMAP
0F9F00
7FBF80
1F6F80
1FCF80
1F8F00
1F8000
3F0000
3F0000
3E0000
7E0000
7C0000
7C0000
7C0000
FC0000
F80000
F80000
000000
7FC000
FFC000
FF8000
ENDCHAR
STARTCHAR uni1E60
ENCODING 7776
SWIDTH 685 0
DWIDTH 22 0
BBX 22 31 -1 0
BITMAP
001C00
003E00
003E00
003E00
001C00
000000
007E00
01FFCC
03C1FC
07807C
07003C
0F0038
0F0038
0F8018
0FE018
0FF800
0FFF00
07FFC0
03FFE0
01FFE0
007FF0
300FF0
3003F0
3001F0
7000F0
7800F0
7801F0
7C01E0
FF03C0
C7FF00
C0FC00
ENDCHAR
STARTCHAR uni1E61
ENCODING 7777
SWIDTH 481 0
DWIDTH 15 0
BBX 14 22 0 0
BITMAP
0380
07C0
07C0
07C0
0380
0000
07F0
1F3C
1C3C
3C3C
3E3C
3F18
3FC0
1FF0
1FF0
07F8
71F8
F8F8
F878
F070
79E0
3FC0
ENDCHAR
STARTCHAR uni1E62
ENCODING 7778
SWIDTH 685 0
DWIDTH 22 0
BBX 22 31 -1 -6
BITMAP
007E00
01FFCC
03C1FC
07807C
07003C
0F0038
0F0038
0F8018
0FE018
0FF800
0FFF00
07FFC0
03FFE0
01FFE0
007FF0
300FF0
3003F0
3001F0
7000F0
7800F0
7801F0
7C01E0
FF03C0
C7FF00
C0FC00
000000
007000
00F800
00F800
00F800
007000
ENDCHAR
STARTCHAR uni1E63
ENCODING 7779
SWIDTH 481 0
DWIDTH 15 0
BBX 14 22 0 -6
BITMAP
07F0
1F3C
1C3C
3C3C
3E3C
3F18
3FC0
1FF0
1FF0
07F8
71F8
F8F8
F878
F070
79E0
3FC0
0000
0700
0F80
0F80
0F80
0700
ENDCHAR
STARTCHAR uni1E64
ENCODING 7780
SWIDTH 685 0
DWIDTH 22 0
BBX 22 38 -1 0
BITMAP
001C00
003E00
003E00
003E00
001C00
000000
000300
000780
000F80
001F00
003C00
003000
000000
007E00
01FFCC
03C1FC
07807C
07003C
0F0038
0F0038
0F8018
0FE018
0FF800
0FFF00
07FFC0
03FFE0
01FFE0
007FF0
300FF0
3003F0
3001F0
7000F0
7800F0
7801F0
7C01E0
FF03C0
C7FF00
C0FC00
ENDCHAR
STARTCHAR uni1E65
ENCODING 7781
SWIDTH 481 0
DWIDTH 15 0
BBX 14 29 0 0
BITMAP
01C0
03E0
03E0
03E0
01C0
0000
0030
0078
00F8
01F0
03C0
0300
0000
07F0
1F3C
1C3C
3C3C
3E3C
3F18
3FC0
1FF0
1FF0
07F8
71F8
F8F8
F878
F070
79E0
3FC0
ENDCHAR
STARTCHAR uni1E66
ENCODING 7782
SWIDTH 685 0
DWIDTH 22 0
BBX 22 38 -1 0
BITMAP
001C00
003E00
003E00
003E00
001C00
000000
003070
0030E0
0019C0
001F80
000F00
000E00
000000
007E00
01FFCC
03C1FC
07807C
07003C
0F0038
0F0038
0F8018
0FE018
0FF800
0FFF00
07FFC0
03FFE0
01FFE0
007FF0
300FF0
3003F0
3001F0
7000F0
7800F0
7801F0
7C01E0
FF03C0
C7FF00
C0FC00
ENDCHAR
STARTCHAR uni1E67
ENCODING 7783
SWIDTH 481 0
DWIDTH 15 0
BBX 15 29 0 0
BITMAP
01C0
03E0
03E0
03E0
01C0
0000
060E
061C
0338
03F0
01E0
01C0
0000
07F0
1F3C
1C3C
3C3C
3E3C
3F18
3FC0
1FF0
1FF0
07F8
71F8
F8F8
F878
F070
79E0
3FC0
ENDCHAR
STARTCHAR uni1E68
ENCODING 7784
SWIDTH 685 0
DWIDTH 22 0
BBX 22 37 -1 -6
BITMAP
001C00
003E00
003E00
003E00
001C00
000000
007E00
01FFCC
03C1FC
07807C
07003C
0F0038
0F0038
0F8018
0FE018
0FF800
0FFF00
07FFC0
03FFE0
01FFE0
007FF0
300FF0
3003F0
3001F0
7000F0
7800F0
7801F0
7C01E0
FF03C0
C7FF00
C0FC00
000000
007000
00F800
00F800
00F800
007000
ENDCHAR
STARTCHAR uni1E69
ENCODING 7785
SWIDTH 481 0
DWIDTH 15 0
BBX 14 28 0 -6
BITMAP
0380
07C0
07C0
07C0
0380
0000
07F0
1F3C
1C3C
3C3C
3E3C
3F18
3FC0
1FF0
1FF0
07F8
71F8
F8F8
F878
F070
79E0
3FC0
0000
0700
0F80
0F80
0F80
0700
ENDCHAR
STARTCHAR uni1E6A
ENCODING 7786
SWIDTH 722 0
DWIDTH 23 0
BBX 23 31 1 0
BITMAP
003800
007C00
007C00
007C00
003800
000000
3FFFFE
3FFFFE
7C7E3E
787E1E
707E0E
60FC0E
E0FC0C
C0FC0C
C0FC0C
C1F80C
01F800
01F800
01F800
03F000
03F000
03F000
07E000
07E000
07E000
07E000
0FC000
0FC000
0FC000
FFF800
FFF800
ENDCHAR
STARTCHAR uni1E6B
ENCODING 7787
SWIDTH 407 0
DWIDTH 12 0
BBX 13 28 0 0
BITMAP
0380
07C0
07C0
07C0
0380
0000
03E0
03E0
07C0
07C0
07C0
0F80
7FF8
7FF0
1F00
1F00
1F00
3E00
3E00
3E00
7E00
7C00
7C40
FCC0
F980
FF00
7E00
3800
ENDCHAR
STARTCHAR uni1E6C
ENCODING 7788
SWIDTH 722 0
DWIDTH 23 0
BBX 23 31 1 -6
BITMAP
3FFFFE
3FFFFE
7C7E3E
787E1E
707E0E
60FC0E
E0FC0C
C0FC0C
C0FC0C
C1F80C
01F800
01F800
01F800
03F000
03F000
03F000
07E000
07E000
07E000
07E000
0FC000
0FC000
0FC000
FFF800
FFF800
000000
01C000
03E000
03E000
03E000
01C000
ENDCHAR
STARTCHAR uni1E6D
ENCODING 7789
SWIDTH 407 0
DWIDTH 12 0
BBX 13 28 0 -6
BITMAP
03E0
03E0
07C0
07C0
07C0
0F80
7FF8
7FF0
1F00
1F00
1F00
3E00
3E00
3E00
7E00
7C00
7C40
FCC0
F980
FF00
7E00
3800
0000
1C00
3E00
3E00
3E00
1C00
ENDCHAR
STARTCHAR uni1E6E
ENCODING 7790
SWIDTH 722 0
DWIDTH 23 0
BBX 23 29 1 -4
BITMAP
3FFFFE
3FFFFE
7C7E3E
787E1E
707E0E
60FC0E
E0FC0C
C0FC0C
C0FC0C
C1F80C
01F800
01F800
01F800
03F000
03F000
03F000
07E000
07E000
07E000
07E000
0FC000
0FC000
0FC000
FFF800
FFF800
000000
0FF800
1FF800
1FF000
ENDCHAR
STARTCHAR uni1E6F
ENCODING 7791
SWIDTH 407 0
DWIDTH 12 0
BBX 13 26 0 -4
BITMAP
03E0
03E0
07C0
07C0
07C0
0F80
7FF8
7FF0
1F00
1F00
1F00
3E00
3E00
3E00
7E00
7C00
7C40
FCC0
F980
FF00
7E00
3800
0000
7FC0
FFC0
FF80
ENDCHAR
STARTCHAR uni1E70
ENCODING 7792
SWIDTH 722 0
DWIDTH 23 0
BBX 23 32 1 -7
BITMAP
3FFFFE
3FFFFE
7C7E3E
787E1E
707E0E
60FC0E
E0FC0C
C0FC0C
C0FC0C
C1F80C
01F800
01F800
01F800
03F000
03F000
03F000
07E000
07E000
07E000
07E000
0FC000
0FC000
0FC000
FFF800
FFF800
000000
00E000
01E000
03F000
07F000
0E1800
180800
ENDCHAR
STARTCHAR uni1E71
ENCODING 7793
SWIDTH 407 0
DWIDTH 12 0
BBX 14 29 -1 -7
BITMAP
01F0
01F0
03E0
03E0
03E0
07C0
3FFC
3FF8
0F80
0F80
0F80
1F00
1F00
1F00
3F00
3E00
3E20
7E60
7CC0
7F80
3F00
1C00
0000
0700
0F00
1F80
3F80
70C0
C040
ENDCHAR
STARTCHAR uni1E72
ENCODING 7794
SWIDTH 833 0
DWIDTH 27 0
BBX 27 31 2 -6
BITMAP
7FF83FE0
7FF83FE0
1FC00F80
1FC00700
1F800600
1F800600
1F800E00
3F000C00
3F000C00
3F000C00
3F001C00
7E001800
7E001800
7E003800
7E003000
FC003000
FC003000
FC007000
FC006000
FC00E000
7C00C000
7E01C000
3F078000
1FFF0000
07F80000
00000000
070E0000
0F9F0000
0F9F0000
0F9F0000
070E0000
ENDCHAR
STARTCHAR uni1E73
ENCODING 7795
SWIDTH 685 0
DWIDTH 21 0
BBX 20 22 0 -6
BITMAP
1F83E0
7F87E0
1F07C0
1F07C0
3F0FC0
3E0F80
3E0F80
7E1F80
7C1F00
7C3F00
7C3F30
F87E70
F9FEE0
FFBFC0
7F3F80
3C1E00
000000
070E00
0F9F00
0F9F00
0F9F00
070E00
ENDCHAR
STARTCHAR uni1E74
ENCODING 7796
SWIDTH 833 0
DWIDTH 27 0
BBX 27 30 2 -5
BITMAP
7FF83FE0
7FF83FE0
1FC00F80
1FC00700
1F800600
1F800600
1F800E00
3F000C00
3F000C00
3F000C00
3F001C00
7E001800
7E001800
7E003800
7E003000
FC003000
FC003000
FC007000
FC006000
FC00E000
7C00C000
7E01C000
3F078000
1FFF0000
07F80000
00000000
01C60000
03FE0000
07FC0000
0E380000
ENDCHAR
STARTCHAR uni1E75
ENCODING 7797
SWIDTH 685 0
DWIDTH 21 0
BBX 20 21 0 -5
BITMAP
1F83E0
7F87E0
1F07C0
1F07C0
3F0FC0
3E0F80
3E0F80
7E1F80
7C1F00
7C3F00
7C3F30
F87E70
F9FEE0
FFBFC0
7F3F80
3C1E00
000000
038C00
07FC00
0FF800
1C7000
ENDCHAR
STARTCHAR uni1E76
ENCODING 7798
SWIDTH 833 0
DWIDTH 27 0
BBX 27 32 2 -7
BITMAP
7FF83FE0
7FF83FE0
1FC00F80
1FC00700
1F800600
1F800600
1F800E00
3F000C00
3F000C00
3F000C00
3F001C00
7E001800
7E001800
7E003800
7E003000
FC003000
FC003000
FC007000
FC006000
FC00E000
7C00C000
7E01C000
3F078000
1FFF0000
07F80000
00000000
00700000
00F00000
01F80000
03F80000
070C0000
0C040000
ENDCHAR
STARTCHAR uni1E77
ENCODING 7799
SWIDTH 685 0
DWIDTH 21 0
BBX 20 23 0 -7
BITMAP
1F83E0
7F87E0
1F07C0
1F07C0
3F0FC0
3E0F80
3E0F80
7E1F80
7C1F00
7C3F00
7C3F30
F87E70
F9FEE0
FFBFC0
7F3F80
3C1E00
000000
007000
00F000
01F800
03F800
070C00
0C0400
ENDCHAR
STARTCHAR uni1E78
ENCODING 7800
SWIDTH 833 0
DWIDTH 27 0
BBX 27 37 2 0
BITMAP
00018000
0003C000
0007C000
000F8000
001E0000
00180000
00000000
001C6000
003FE000
007FC000
00E38000
00000000
7FF83FE0
7FF83FE0
1FC00F80
1FC00700
1F800600
1F800600
1F800E00
3F000C00
3F000C00
3F000C00
3F001C00
7E001800
7E001800
7E003800
7E003000
FC003000
FC003000
FC007000
FC006000
FC00E000
7C00C000
7E01C000
3F078000
1FFF0000
07F80000
ENDCHAR
STARTCHAR uni1E79
ENCODING 7801
SWIDTH 685 0
DWIDTH 21 0
BBX 20 28 0 0
BITMAP
000C00
001E00
003E00
007C00
00F000
00C000
000000
00E300
01FF00
03FE00
071C00
000000
1F83E0
7F87E0
1F07C0
1F07C0
3F0FC0
3E0F80
3E0F80
7E1F80
7C1F00
7C3F00
7C3F30
F87E70
F9FEE0
FFBFC0
7F3F80
3C1E00
ENDCHAR
STARTCHAR uni1E7A
ENCODING 7802
SWIDTH 833 0
DWIDTH 27 0
BBX 27 35 2 0
BITMAP
00E1C000
01F3E000
01F3E000
01F3E000
00E1C000
00000000
007FC000
00FFC000
00FF8000
00000000
7FF83FE0
7FF83FE0
1FC00F80
1FC00700
1F800600
1F800600
1F800E00
3F000C00
3F000C00
3F000C00
3F001C00
7E001800
7E001800
7E003800
7E003000
FC003000
FC003000
FC007000
FC006000
FC00E000
7C00C000
7E01C000
3F078000
1FFF0000
07F80000
ENDCHAR
STARTCHAR uni1E7B
ENCODING 7803
SWIDTH 685 0
DWIDTH 21 0
BBX 20 26 0 0
BITMAP
070E00
0F9F00
0F9F00
0F9F00
070E00
000000
01FF00
03FF00
03FE00
000000
1F83E0
7F87E0
1F07C0
1F07C0
3F0FC0
3E0F80
3E0F80
7E1F80
7C1F00
7C3F00
7C3F30
F87E70
F9FEE0
FFBFC0
7F3F80
3C1E00
ENDCHAR
STARTCHAR uni1E7C
ENCODING 7804
SWIDTH 741 0
DWIDTH 24 0
BBX 26 30 0 0
BITMAP
0038C000
007FC000
00FF8000
01C70000
00000000
FFF0FFC0
FFF0FFC0
1F801F00
1F801E00
0F801C00
0FC03800
0FC03800
0FC07000
0FC06000
0FC0E000
07C0C000
07E1C000
07E18000
07E38000
07E70000
03E60000
03FE0000
03FC0000
03FC0000
03F80000
01F80000
01F00000
01E00000
01E00000
01C00000
ENDCHAR
STARTCHAR uni1E7D
ENCODING 7805
SWIDTH 556 0
DWIDTH 17 0
BBX 15 21 1 0
BITMAP
0718
0FF8
1FF0
38E0
0000
FF1C
FF3E
3F3E
3E1E
3E0E
7E06
7C06
7C0C
7C0C
F80C
F818
F838
F830
7CE0
7FC0
1F00
ENDCHAR
STARTCHAR uni1E7E
ENCODING 7806
SWIDTH 741 0
DWIDTH 24 0
BBX 26 31 0 -6
BITMAP
FFF0FFC0
FFF0FFC0
1F801F00
1F801E00
0F801C00
0FC03800
0FC03800
0FC07000
0FC06000
0FC0E000
07C0C000
07E1C000
07E18000
07E38000
07E70000
03E60000
03FE0000
03FC0000
03FC0000
03F80000
01F80000
01F00000
01E00000
01E00000
01C00000
00000000
00700000
00F80000
00F80000
00F80000
00700000
ENDCHAR
STARTCHAR uni1E7F
ENCODING 7807
SWIDTH 556 0
DWIDTH 17 0
BBX 15 22 1 -6
BITMAP
FF1C
FF3E
3F3E
3E1E
3E0E
7E06
7C06
7C0C
7C0C
F80C
F818
F838
F830
7CE0
7FC0
1F00
0000
0700
0F80
0F80
0F80
0700
ENDCHAR
STARTCHAR Wgrave
ENCODING 7808
SWIDTH 944 0
DWIDTH 30 0
BBX 32 32 0 0
BITMAP
000C0000
001E0000
001F0000
000F8000
0003C000
0000C000
00000000
FFCFFCFF
FFCFFCFF
3F03F03C
3F01F038
1F01F030
1F03F070
1F03F060
1F07F060
1F87F0E0
1F86F0C0
0F8CF8C0
0F8CF980
0F9CF980
0FD8FB80
0FF8FF00
0FF0FF00
0FF0FE00
07E07E00
07E07E00
07C07C00
07C07C00
07807800
07807800
07807000
03003000
ENDCHAR
STARTCHAR wgrave
ENCODING 7809
SWIDTH 833 0
DWIDTH 27 0
BBX 25 23 1 0
BITMAP
00600000
00F00000
00F80000
007C0000
001E0000
00060000
00000000
FF07CF00
FF078F80
1F0F8F80
3E0F8780
3E0F8380
3E1F0300
7C1F0300
7C1F0300
7C3F0200
F83E0600
F87E0E00
F87E0C00
F8DF1800
FF9FF000
7F1FE000
3C07C000
ENDCHAR
STARTCHAR Wacute
ENCODING 7810
SWIDTH 944 0
DWIDTH 30 0
BBX 32 32 0 0
BITMAP
00006000
0000F000
0001F000
0003E000
00078000
00060000
00000000
FFCFFCFF
FFCFFCFF
3F03F03C
3F01F038
1F01F030
1F03F070
1F03F060
1F07F060
1F87F0E0
1F86F0C0
0F8CF8C0
0F8CF980
0F9CF980
0FD8FB80
0FF8FF00
0FF0FF00
0FF0FE00
07E07E00
07E07E00
07C07C00
07C07C00
07807800
07807800
07807000
03003000
ENDCHAR
STARTCHAR wacute
ENCODING 7811
SWIDTH 833 0
DWIDTH 27 0
BBX 25 23 1 0
BITMAP
00030000
00078000
000F8000
001F0000
003C0000
00300000
00000000
FF07CF00
FF078F80
1F0F8F80
3E0F8780
3E0F8380
3E1F0300
7C1F0300
7C1F0300
7C3F0200
F83E0600
F87E0E00
F87E0C00
F8DF1800
FF9FF000
7F1FE000
3C07C000
ENDCHAR
STARTCHAR Wdieresis
ENCODING 7812
SWIDTH 944 0
DWIDTH 30 0
BBX 32 31 0 0
BITMAP
00387000
007CF800
007CF800
007CF800
00387000
00000000
FFCFFCFF
FFCFFCFF
3F03F03C
3F01F038
1F01F030
1F03F070
1F03F060
1F07F060
1F87F0E0
1F86F0C0
0F8CF8C0
0F8CF980
0F9CF980
0FD8FB80
0FF8FF00
0FF0FF00
0FF0FE00
07E07E00
07E07E00
07C07C00
07C07C00
07807800
07807800
07807000
03003000
ENDCHAR
STARTCHAR wdieresis
ENCODING 7813
SWIDTH 833 0
DWIDTH 27 0
BBX 25 22 1 0
BITMAP
00E1C000
01F3E000
01F3E000
01F3E000
00E1C000
00000000
FF07CF00
FF078F80
1F0F8F80
3E0F8780
3E0F8380
3E1F0300
7C1F0300
7C1F0300
7C3F0200
F83E0600
F87E0E00
F87E0C00
F8DF1800
FF9FF000
7F1FE000
3C07C000
ENDCHAR
STARTCHAR uni1E86
ENCODING 7814
SWIDTH 944 0
DWIDTH 30 0
BBX 32 31 0 0
BITMAP
00038000
0007C000
0007C000
0007C000
00038000
00000000
FFCFFCFF
FFCFFCFF
3F03F03C
3F01F038
1F01F030
1F03F070
1F03F060
1F07F060
1F87F0E0
1F86F0C0
0F8CF8C0
0F8CF980
0F9CF980
0FD8FB80
0FF8FF00
0FF0FF00
0FF0FE00
07E07E00
07E07E00
07C07C00
07C07C00
07807800
07807800
07807000
03003000
ENDCHAR
STARTCHAR uni1E87
ENCODING 7815
SWIDTH 833 0
DWIDTH 27 0
BBX 25 22 1 0
BITMAP
001C0000
003E0000
003E0000
003E0000
001C0000
00000000
FF07CF00
FF078F80
1F0F8F80
3E0F8780
3E0F8380
3E1F0300
7C1F0300
7C1F0300
7C3F0200
F83E0600
F87E0E00
F87E0C00
F8DF1800
FF9FF000
7F1FE000
3C07C000
ENDCHAR
STARTCHAR uni1E88
ENCODING 7816
SWIDTH 944 0
DWIDTH 30 0
BBX 32 31 0 -6
BITMAP
FFCFFCFF
FFCFFCFF
3F03F03C
3F01F038
1F01F030
1F03F070
1F03F060
1F07F060
1F87F0E0
1F86F0C0
0F8CF8C0
0F8CF980
0F9CF980
0FD8FB80
0FF8FF00
0FF0FF00
0FF0FE00
07E07E00
07E07E00
07C07C00
07C07C00
07807800
07807800
07807000
03003000
00000000
00070000
000F8000
000F8000
000F8000
00070000
ENDCHAR
STARTCHAR uni1E89
ENCODING 7817
SWIDTH 833 0
DWIDTH 27 0
BBX 25 22 1 -6
BITMAP
FF07CF00
FF078F80
1F0F8F80
3E0F8780
3E0F8380
3E1F0300
7C1F0300
7C1F0300
7C3F0200
F83E0600
F87E0E00
F87E0C00
F8DF1800
FF9FF000
7F1FE000
3C07C000
00000000
00700000
00F80000
00F80000
00F80000
00700000
ENDCHAR
STARTCHAR uni1E8A
ENCODING 7818
SWIDTH 741 0
DWIDTH 25 0
BBX 30 31 -3 0
BITMAP
0001C000
0003E000
0003E000
0003E000
0001C000
00000000
07FF9FFC
07FF9FF8
00FC07E0
00FE0780
007E0700
007E0E00
003F1C00
003F3800
003FF000
001FE000
001FC000
000FC000
000FC000
000FE000
001FE000
003FF000
0073F000
00E3F000
01C1F800
0381F800
0701FC00
0F00FC00
3F00FE00
FFE7FFC0
FFE7FFC0
ENDCHAR
STARTCHAR uni1E8B
ENCODING 7819
SWIDTH 574 0
DWIDTH 19 0
BBX 21 22 -2 0
BITMAP
003800
007C00
007C00
007C00
003800
000000
03E0F0
07E1F8
0FF378
1DF670
19FC00
10F800
00F800
00F800
00F800
00FC00
01FC40
637CC0
F37FC0
FE3F80
FC3F00
701C00
ENDCHAR
STARTCHAR uni1E8C
ENCODING 7820
SWIDTH 741 0
DWIDTH 25 0
BBX 30 31 -3 0
BITMAP
001C3800
003E7C00
003E7C00
003E7C00
001C3800
00000000
07FF9FFC
07FF9FF8
00FC07E0
00FE0780
007E0700
007E0E00
003F1C00
003F3800
003FF000
001FE000
001FC000
000FC000
000FC000
000FE000
001FE000
003FF000
0073F000
00E3F000
01C1F800
0381F800
0701FC00
0F00FC00
3F00FE00
FFE7FFC0
FFE7FFC0
ENDCHAR
STARTCHAR uni1E8D
ENCODING 7821
SWIDTH 574 0
DWIDTH 19 0
BBX 21 22 -2 0
BITMAP
038700
07CF80
07CF80
07CF80
038700
000000
03E0F0
07E1F8
0FF378
1DF670
19FC00
10F800
00F800
00F800
00F800
00FC00
01FC40
637CC0
F37FC0
FE3F80
FC3F00
701C00
ENDCHAR
STARTCHAR uni1E8E
ENCODING 7822
SWIDTH 704 0
DWIDTH 23 0
BBX 25 31 1 0
BITMAP
00380000
007C0000
007C0000
007C0000
00380000
00000000
FFF1FF80
FFF1FF80
3F803E00
1F803800
1F807000
0FC07000
0FC0E000
0FC1C000
07E18000
07E38000
03F70000
03FE0000
03FC0000
01FC0000
01F80000
01F80000
03F00000
03F00000
03F00000
03F00000
07E00000
07E00000
07E00000
7FFE0000
7FFE0000
ENDCHAR
STARTCHAR uni1E8F
ENCODING 7823
SWIDTH 519 0
DWIDTH 18 0
BBX 19 29 -2 -7
BITMAP
007000
00F800
00F800
00F800
007000
000000
0781C0
0FC3E0
0FE3E0
1FE1E0
1BE1C0
33F1C0
31F180
01F180
01F100
00FB00
00FA00
00FE00
00FC00
007C00
007800
007800
003000
006000
70C000
F9C000
FB8000
7F0000
3C0000
ENDCHAR
STARTCHAR uni1E90
ENCODING 7824
SWIDTH 704 0
DWIDTH 23 0
BBX 25 32 -1 0
BITMAP
00038000
00078000
000FC000
001FC000
00386000
00602000
00000000
07FFFF80
07FFFF00
07E07F00
0F80FE00
0F01FC00
0E03FC00
1C07F800
1807F000
180FE000
001FC000
003F8000
007F8000
007F0000
00FE0000
01FC0000
03F80000
07F80600
07F00C00
0FE01C00
1FC03C00
3F807800
7F81F800
7F07F800
FFFFF000
FFFFF000
ENDCHAR
STARTCHAR uni1E91
ENCODING 7825
SWIDTH 519 0
DWIDTH 16 0
BBX 15 23 0 0
BITMAP
00E0
01E0
03F0
07F0
0E18
1808
0000
0FC6
1FFE
3FFE
3FFC
63D8
6070
00E0
03C0
0780
0E00
1C06
3786
7FFC
FFFC
CFF8
C3E0
ENDCHAR
STARTCHAR uni1E92
ENCODING 7826
SWIDTH 704 0
DWIDTH 23 0
BBX 25 31 -1 -6
BITMAP
07FFFF80
07FFFF00
07E07F00
0F80FE00
0F01FC00
0E03FC00
1C07F800
1807F000
180FE000
001FC000
003F8000
007F8000
007F0000
00FE0000
01FC0000
03F80000
07F80600
07F00C00
0FE01C00
1FC03C00
3F807800
7F81F800
7F07F800
FFFFF000
FFFFF000
00000000
00380000
007C0000
007C0000
007C0000
00380000
ENDCHAR
STARTCHAR uni1E93
ENCODING 7827
SWIDTH 519 0
DWIDTH 16 0
BBX 15 22 0 -6
BITMAP
0FC6
1FFE
3FFE
3FFC
63D8
6070
00E0
03C0
0780
0E00
1C06
3786
7FFC
FFFC
CFF8
C3E0
0000
0380
07C0
07C0
07C0
0380
ENDCHAR
STARTCHAR uni1E94
ENCODING 7828
SWIDTH 704 0
DWIDTH 23 0
BBX 25 29 -1 -4
BITMAP
07FFFF80
07FFFF00
07E07F00
0F80FE00
0F01FC00
0E03FC00
1C07F800
1807F000
180FE000
001FC000
003F8000
007F8000
007F0000
00FE0000
01FC0000
03F80000
07F80600
07F00C00
0FE01C00
1FC03C00
3F807800
7F81F800
7F07F800
FFFFF000
FFFFF000
00000000
01FF0000
03FF0000
03FE0000
ENDCHAR
STARTCHAR uni1E95
ENCODING 7829
SWIDTH 519 0
DWIDTH 16 0
BBX 15 20 0 -4
BITMAP
0FC6
1FFE
3FFE
3FFC
63D8
6070
00E0
03C0
0780
0E00
1C06
3786
7FFC
FFFC
CFF8
C3E0
0000
1FF0
3FF0
3FE0
ENDCHAR
STARTCHAR uni1E96
ENCODING 7830
SWIDTH 685 0
DWIDTH 22 0
BBX 21 29 0 -4
BITMAP
00F000
07F000
01F000
01F000
03E000
03E000
03E000
07C000
07C000
07C780
0F9FC0
0FBFE0
0FF3E0
1FC3E0
1F87E0
1F07C0
1F07C0
3E0FC0
3E0F80
3E0F98
7E1F18
7C1F70
7C1FE0
FC0FC0
FC0700
000000
03FE00
07FE00
07FC00
ENDCHAR
STARTCHAR uni1E97
ENCODING 7831
SWIDTH 407 0
DWIDTH 12 0
BBX 13 28 0 0
BITMAP
3870
7CF8
7CF8
7CF8
3870
0000
03E0
03E0
07C0
07C0
07C0
0F80
7FF8
7FF0
1F00
1F00
1F00
3E00
3E00
3E00
7E00
7C00
7C40
FCC0
F980
FF00
7E00
3800
ENDCHAR
STARTCHAR uni1E98
ENCODING 7832
SWIDTH 833 0
DWIDTH 27 0
BBX 25 23 1 0
BITMAP
001C0000
003E0000
00630000
00630000
003E0000
001C0000
00000000
FF07CF00
FF078F80
1F0F8F80
3E0F8780
3E0F8380
3E1F0300
7C1F0300
7C1F0300
7C3F0200
F83E0600
F87E0E00
F87E0C00
F8DF1800
FF9FF000
7F1FE000
3C07C000
ENDCHAR
STARTCHAR uni1E99
ENCODING 7833
SWIDTH 519 0
DWIDTH 18 0
BBX 19 30 -2 -7
BITMAP
007000
00F800
018C00
018C00
00F800
007000
000000
0781C0
0FC3E0
0FE3E0
1FE1E0
1BE1C0
33F1C0
31F180
01F180
01F100
00FB00
00FA00
00FE00
00FC00
007C00
007800
007800
003000
006000
70C000
F9C000
FB8000
7F0000
3C0000
ENDCHAR
STARTCHAR uni1EA0
ENCODING 7840
SWIDTH 741 0
DWIDTH 24 0
BBX 27 31 -3 -6
BITMAP
00006000
0000F000
0001F000
0001F000
0003F000
0003F000
0007F800
000FF800
000DF800
001DF800
0019F800
0038FC00
0070FC00
0070FC00
00E0FC00
00E0FC00
01FFFE00
01FFFE00
03807E00
07007E00
0F007E00
0E003F00
3E003F00
FFC3FFE0
FFC3FFE0
00000000
00070000
000F8000
000F8000
000F8000
00070000
ENDCHAR
STARTCHAR uni1EA1
ENCODING 7841
SWIDTH 667 0
DWIDTH 21 0
BBX 20 22 0 -6
BITMAP
01E3E0
07FBE0
1F8FE0
3F0FC0
3E0FC0
7E0FC0
7C0F80
FC0F80
FC0F80
F81F80
F81F10
F83F30
FC3F70
7CFFE0
7FDFC0
1F0F00
000000
00E000
01F000
01F000
01F000
00E000
ENDCHAR
STARTCHAR uni1EA4
ENCODING 7844
SWIDTH 741 0
DWIDTH 24 0
BBX 27 39 -3 0
BITMAP
00001800
00003C00
00007C00
0000F800
0001E000
00018000
00000000
00001C00
00003C00
00007E00
0000FE00
0001C300
00030300
00000000
00006000
0000F000
0001F000
0001F000
0003F000
0003F000
0007F800
000FF800
000DF800
001DF800
0019F800
0038FC00
0070FC00
0070FC00
00E0FC00
00E0FC00
01FFFE00
01FFFE00
03807E00
07007E00
0F007E00
0E003F00
3E003F00
FFC3FFE0
FFC3FFE0
ENDCHAR
STARTCHAR uni1EA5
ENCODING 7845
SWIDTH 667 0
DWIDTH 21 0
BBX 20 30 0 0
BITMAP
000600
000F00
001F00
003E00
007800
006000
000000
000E00
001E00
003F00
007F00
00E180
018080
000000
01E3E0
07FBE0
1F8FE0
3F0FC0
3E0FC0
7E0FC0
7C0F80
FC0F80
FC0F80
F81F80
F81F10
F83F30
FC3F70
7CFFE0
7FDFC0
1F0F00
ENDCHAR
STARTCHAR uni1EA6
ENCODING 7846
SWIDTH 741 0
DWIDTH 24 0
BBX 27 39 -3 0
BITMAP
00030000
00078000
0007C000
0003E000
0000F000
00003000
00000000
00001C00
00003C00
00007E00
0000FE00
0001C300
00030300
00000000
00006000
0000F000
0001F000
0001F000
0003F000
0003F000
0007F800
000FF800
000DF800
001DF800
0019F800
0038FC00
0070FC00
0070FC00
00E0FC00
00E0FC00
01FFFE00
01FFFE00
03807E00
07007E00
0F007E00
0E003F00
3E003F00
FFC3FFE0
FFC3FFE0
ENDCHAR
STARTCHAR uni1EA7
ENCODING 7847
SWIDTH 667 0
DWIDTH 21 0
BBX 20 30 0 0
BITMAP
00C000
01E000
01F000
00F800
003C00
000C00
000000
000E00
001E00
003F00
007F00
00E180
018080
000000
01E3E0
07FBE0
1F8FE0
3F0FC0
3E0FC0
7E0FC0
7C0F80
FC0F80
FC0F80
F81F80
F81F10
F83F30
FC3F70
7CFFE0
7FDFC0
1F0F00
ENDCHAR
STARTCHAR uni1EAA
ENCODING 7850
SWIDTH 741 0
DWIDTH 24 0
BBX 27 37 -3 0
BITMAP
0001C600
0003FE00
0007FC00
000E3800
00000000
00001C00
00003C00
00007E00
0000FE00
0001C300
00030300
00000000
00006000
0000F000
0001F000
0001F000
0003F000
0003F000
0007F800
000FF800
000DF800
001DF800
0019F800
0038FC00
0070FC00
0070FC00
00E0FC00
00E0FC00
01FFFE00
01FFFE00
03807E00
07007E00
0F007E00
0E003F00
3E003F00
FFC3FFE0
FFC3FFE0
ENDCHAR
STARTCHAR uni1EAB
ENCODING 7851
SWIDTH 667 0
DWIDTH 21 0
BBX 20 28 0 0
BITMAP
007180
00FF80
01FF00
038E00
000000
000E00
001E00
003F00
007F00
00E180
018080
000000
01E3E0
07FBE0
1F8FE0
3F0FC0
3E0FC0
7E0FC0
7C0F80
FC0F80
FC0F80
F81F80
F81F10
F83F30
FC3F70
7CFFE0
7FDFC0
1F0F00
ENDCHAR
STARTCHAR uni1EAC
ENCODING 7852
SWIDTH 741 0
DWIDTH 24 0
BBX 27 38 -3 -6
BITMAP
0000E000
0001E000
0003F000
0007F000
000E1800
00180800
00000000
00006000
0000F000
0001F000
0001F000
0003F000
0003F000
0007F800
000FF800
000DF800
001DF800
0019F800
0038FC00
0070FC00
0070FC00
00E0FC00
00E0FC00
01FFFE00
01FFFE00
03807E00
07007E00
0F007E00
0E003F00
3E003F00
FFC3FFE0
FFC3FFE0
00000000
00070000
000F8000
000F8000
000F8000
00070000
ENDCHAR
STARTCHAR uni1EAD
ENCODING 7853
SWIDTH 667 0
DWIDTH 21 0
BBX 20 29 0 -6
BITMAP
001C00
003C00
007E00
00FE00
01C300
030100
000000
01E3E0
07FBE0
1F8FE0
3F0FC0
3E0FC0
7E0FC0
7C0F80
FC0F80
FC0F80
F81F80
F81F10
F83F30
FC3F70
7CFFE0
7FDFC0
1F0F00
000000
00E000
01F000
01F000
01F000
00E000
ENDCHAR
STARTCHAR uni1EAE
ENCODING 7854
SWIDTH 741 0
DWIDTH 24 0
BBX 27 39 -3 0
BITMAP
00006000
0000F000
0001F000
0003E000
00078000
00060000
00000000
00180C00
00180C00
001C1800
000FF800
000FF000
0003C000
00000000
00006000
0000F000
0001F000
0001F000
0003F000
0003F000
0007F800
000FF800
000DF800
001DF800
0019F800
0038FC00
0070FC00
0070FC00
00E0FC00
00E0FC00
01FFFE00
01FFFE00
03807E00
07007E00
0F007E00
0E003F00
3E003F00
FFC3FFE0
FFC3FFE0
ENDCHAR
STARTCHAR uni1EAF
ENCODING 7855
SWIDTH 667 0
DWIDTH 21 0
BBX 20 30 0 0
BITMAP
000600
000F00
001F00
003E00
007800
006000
000000
030180
030180
038300
01FF00
01FE00
007800
000000
01E3E0
07FBE0
1F8FE0
3F0FC0
3E0FC0
7E0FC0
7C0F80
FC0F80
FC0F80
F81F80
F81F10
F83F30
FC3F70
7CFFE0
7FDFC0
1F0F00
ENDCHAR
STARTCHAR uni1EB0
ENCODING 7856
SWIDTH 741 0
DWIDTH 24 0
BBX 27 39 -3 0
BITMAP
000C0000
001E0000
001F0000
000F8000
0003C000
0000C000
00000000
00180C00
00180C00
001C1800
000FF800
000FF000
0003C000
00000000
00006000
0000F000
0001F000
0001F000
0003F000
0003F000
0007F800
000FF800
000DF800
001DF800
0019F800
0038FC00
0070FC00
0070FC00
00E0FC00
00E0FC00
01FFFE00
01FFFE00
03807E00
07007E00
0F007E00
0E003F00
3E003F00
FFC3FFE0
FFC3FFE0
ENDCHAR
STARTCHAR uni1EB1
ENCODING 7857
SWIDTH 667 0
DWIDTH 21 0
BBX 20 30 0 0
BITMAP
018000
03C000
03E000
01F000
007800
001800
000000
030180
030180
038300
01FF00
01FE00
007800
000000
01E3E0
07FBE0
1F8FE0
3F0FC0
3E0FC0
7E0FC0
7C0F80
FC0F80
FC0F80
F81F80
F81F10
F83F30
FC3F70
7CFFE0
7FDFC0
1F0F00
ENDCHAR
STARTCHAR uni1EB4
ENCODING 7860
SWIDTH 741 0
DWIDTH 24 0
BBX 27 37 -3 0
BITMAP
00071800
000FF800
001FF000
0038E000
00000000
00180C00
00180C00
001C1800
000FF800
000FF000
0003C000
00000000
00006000
0000F000
0001F000
0001F000
0003F000
0003F000
0007F800
000FF800
000DF800
001DF800
0019F800
0038FC00
0070FC00
0070FC00
00E0FC00
00E0FC00
01FFFE00
01FFFE00
03807E00
07007E00
0F007E00
0E003F00
3E003F00
FFC3FFE0
FFC3FFE0
ENDCHAR
STARTCHAR uni1EB5
ENCODING 7861
SWIDTH 667 0
DWIDTH 21 0
BBX 20 28 0 0
BITMAP
007180
00FF80
01FF00
038E00
000000
030180
030180
038300
01FF00
01FE00
007800
000000
01E3E0
07FBE0
1F8FE0
3F0FC0
3E0FC0
7E0FC0
7C0F80
FC0F80
FC0F80
F81F80
F81F10
F83F30
FC3F70
7CFFE0
7FDFC0
1F0F00
ENDCHAR
STARTCHAR uni1EB6
ENCODING 7862
SWIDTH 741 0
DWIDTH 24 0
BBX 27 38 -3 -6
BITMAP
00180C00
00180C00
001C1800
000FF800
000FF000
0003C000
00000000
00006000
0000F000
0001F000
0001F000
0003F000
0003F000
0007F800
000FF800
000DF800
001DF800
0019F800
0038FC00
0070FC00
0070FC00
00E0FC00
00E0FC00
01FFFE00
01FFFE00
03807E00
07007E00
0F007E00
0E003F00
3E003F00
FFC3FFE0
FFC3FFE0
00000000
00070000
000F8000
000F8000
000F8000
00070000
ENDCHAR
STARTCHAR uni1EB7
ENCODING 7863
SWIDTH 667 0
DWIDTH 21 0
BBX 20 29 0 -6
BITMAP
060300
060300
070600
03FE00
03FC00
00F000
000000
01E3E0
07FBE0
1F8FE0
3F0FC0
3E0FC0
7E0FC0
7C0F80
FC0F80
FC0F80
F81F80
F81F10
F83F30
FC3F70
7CFFE0
7FDFC0
1F0F00
000000
00E000
01F000
01F000
01F000
00E000
ENDCHAR
STARTCHAR uni1EB8
ENCODING 7864
SWIDTH 741 0
DWIDTH 24 0
BBX 26 31 -1 -6
BITMAP
07FFFFC0
07FFFFC0
00FC0FC0
00FC0780
00FC0380
01F80380
01F80380
01F83300
01F87300
03F06000
03F1E000
03FFE000
03FFE000
07E3C000
07E1C000
07E1C000
07E1C300
0FC18700
0FC18600
0FC00E00
0FC01E00
0F803C00
1F80FC00
FFFFFC00
FFFFFC00
00000000
001C0000
003E0000
003E0000
003E0000
001C0000
ENDCHAR
STARTCHAR uni1EB9
ENCODING 7865
SWIDTH 519 0
DWIDTH 17 0
BBX 16 22 0 -6
BITMAP
03FC
079E
1F0F
3E0F
3E1F
7C1F
7C3E
FCFC
FFE0
FC00
F800
F800
FC0C
7C38
3FF0
0FC0
0000
0700
0F80
0F80
0F80
0700
ENDCHAR
STARTCHAR uni1EBC
ENCODING 7868
SWIDTH 741 0
DWIDTH 24 0
BBX 26 30 -1 0
BITMAP
000E3000
001FF000
003FE000
0071C000
00000000
07FFFFC0
07FFFFC0
00FC0FC0
00FC0780
00FC0380
01F80380
01F80380
01F83300
01F87300
03F06000
03F1E000
03FFE000
03FFE000
07E3C000
07E1C000
07E1C000
07E1C300
0FC18700
0FC18600
0FC00E00
0FC01E00
0F803C00
1F80FC00
FFFFFC00
FFFFFC00
ENDCHAR
STARTCHAR uni1EBD
ENCODING 7869
SWIDTH 519 0
DWIDTH 17 0
BBX 16 21 0 0
BITMAP
01C6
03FE
07FC
0E38
0000
03FC
079E
1F0F
3E0F
3E1F
7C1F
7C3E
FCFC
FFE0
FC00
F800
F800
FC0C
7C38
3FF0
0FC0
ENDCHAR
STARTCHAR uni1EBE
ENCODING 7870
SWIDTH 741 0
DWIDTH 24 0
BBX 26 39 -1 0
BITMAP
00006000
0000F000
0001F000
0003E000
00078000
00060000
00000000
00007000
0000F000
0001F800
0003F800
00070C00
000C0400
00000000
07FFFFC0
07FFFFC0
00FC0FC0
00FC0780
00FC0380
01F80380
01F80380
01F83300
01F87300
03F06000
03F1E000
03FFE000
03FFE000
07E3C000
07E1C000
07E1C000
07E1C300
0FC18700
0FC18600
0FC00E00
0FC01E00
1F803C00
3F80FC00
FFFFFC00
FFFFFC00
ENDCHAR
STARTCHAR uni1EBF
ENCODING 7871
SWIDTH 519 0
DWIDTH 17 0
BBX 16 30 0 0
BITMAP
0018
003C
007C
00F8
01E0
0180
0000
0038
0078
00FC
01FC
0386
0602
0000
03FC
079E
1F0F
3E0F
3E1F
7C1F
7C3E
FCFC
FFE0
FC00
F800
F800
FC0C
7C38
3FF0
0FC0
ENDCHAR
STARTCHAR uni1EC0
ENCODING 7872
SWIDTH 741 0
DWIDTH 24 0
BBX 26 39 -1 0
BITMAP
00180000
003C0000
003E0000
001F0000
00078000
00018000
00000000
00007000
0000F000
0001F800
0003F800
00070C00
000C0400
00000000
07FFFFC0
07FFFFC0
00FC0FC0
00FC0780
00FC0380
01F80380
01F80380
01F83300
01F87300
03F06000
03F1E000
03FFE000
03FFE000
07E3C000
07E1C000
07E1C000
07E1C300
0FC18700
0FC18600
0FC00E00
0FC01E00
1F803C00
3F80FC00
FFFFFC00
FFFFFC00
ENDCHAR
STARTCHAR uni1EC1
ENCODING 7873
SWIDTH 519 0
DWIDTH 17 0
BBX 16 30 0 0
BITMAP
0300
0780
07C0
03E0
00F0
0030
0000
0038
0078
00FC
01FC
0386
0602
0000
03FC
079E
1F0F
3E0F
3E1F
7C1F
7C3E
FCFC
FFE0
FC00
F800
F800
FC0C
7C38
3FF0
0FC0
ENDCHAR
STARTCHAR uni1EC4
ENCODING 7876
SWIDTH 741 0
DWIDTH 24 0
BBX 26 37 -1 0
BITMAP
00071800
000FF800
001FF000
0038E000
00000000
00007000
0000F000
0001F800
0003F800
00070C00
000C0400
00000000
07FFFFC0
07FFFFC0
00FC0FC0
00FC0780
00FC0380
01F80380
01F80380
01F83300
01F87300
03F06000
03F1E000
03FFE000
03FFE000
07E3C000
07E1C000
07E1C000
07E1C300
0FC18700
0FC18600
0FC00E00
0FC01E00
1F803C00
3F80FC00
FFFFFC00
FFFFFC00
ENDCHAR
STARTCHAR uni1EC5
ENCODING 7877
SWIDTH 519 0
DWIDTH 17 0
BBX 16 28 0 0
BITMAP
01C6
03FE
07FC
0E38
0000
0038
0078
00FC
01FC
0386
0602
0000
03FC
079E
1F0F
3E0F
3E1F
7C1F
7C3E
FCFC
FFE0
FC00
F800
F800
FC0C
7C38
3FF0
0FC0
ENDCHAR
STARTCHAR uni1EC6
ENCODING 7878
SWIDTH 741 0
DWIDTH 24 0
BBX 26 38 -1 -6
BITMAP
0001C000
0003C000
0007E000
000FE000
001C3000
00301000
00000000
07FFFFC0
07FFFFC0
00FC0FC0
00FC0780
00FC0380
01F80380
01F80380
01F83300
01F87300
03F06000
03F1E000
03FFE000
03FFE000
07E3C000
07E1C000
07E1C000
07E1C300
0FC18700
0FC18600
0FC00E00
0FC01E00
0F803C00
1F80FC00
FFFFFC00
FFFFFC00
00000000
001C0000
003E0000
003E0000
003E0000
001C0000
ENDCHAR
STARTCHAR uni1EC7
ENCODING 7879
SWIDTH 519 0
DWIDTH 17 0
BBX 16 29 0 -6
BITMAP
0070
00F0
01F8
03F8
070C
0C04
0000
03FC
079E
1F0F
3E0F
3E1F
7C1F
7C3E
FCFC
FFE0
FC00
F800
F800
FC0C
7C38
3FF0
0FC0
0000
0700
0F80
0F80
0F80
0700
ENDCHAR
STARTCHAR uni1ECA
ENCODING 7882
SWIDTH 444 0
DWIDTH 15 0
BBX 17 31 -1 -6
BITMAP
07FF80
07FF80
00FC00
00FC00
00FC00
01F800
01F800
01F800
01F800
03F000
03F000
03F000
03F000
07E000
07E000
07E000
0FC000
0FC000
0FC000
0FC000
1F8000
1F8000
1FC000
FFF000
FFF000
000000
038000
07C000
07C000
07C000
038000
ENDCHAR
STARTCHAR uni1ECB
ENCODING 7883
SWIDTH 389 0
DWIDTH 12 0
BBX 10 31 1 -6
BITMAP
0300
0780
0FC0
0FC0
0780
0300
0000
0000
0000
1F00
FF00
3F00
3F00
3E00
3E00
7E00
7C00
7C00
7C00
FCC0
F8C0
F980
FB00
FE00
7C00
0000
1C00
3E00
3E00
3E00
1C00
ENDCHAR
STARTCHAR uni1ECC
ENCODING 7884
SWIDTH 833 0
DWIDTH 27 0
BBX 26 31 0 -6
BITMAP
000FC000
007FF800
01FC3E00
03F01F00
07E01F00
0FC00F80
1F800F80
3F800FC0
3F000FC0
7F000FC0
7F001FC0
FE001FC0
FE001FC0
FE001FC0
FC003F80
FC003F80
FC003F00
FC007F00
7C007E00
7C00FC00
7E01FC00
3E03F000
1F0FE000
07FF8000
00FC0000
00000000
001C0000
003E0000
003E0000
003E0000
001C0000
ENDCHAR
STARTCHAR uni1ECD
ENCODING 7885
SWIDTH 574 0
DWIDTH 19 0
BBX 18 22 0 -6
BITMAP
03FC00
0FCF00
1F0F80
3F07C0
7E07C0
7E07C0
FC0FC0
FC0FC0
FC0FC0
FC0FC0
F81F80
F81F80
F83F00
7C3E00
3CF800
0FE000
000000
01C000
03E000
03E000
03E000
01C000
ENDCHAR
STARTCHAR uni1ED0
ENCODING 7888
SWIDTH 833 0
DWIDTH 27 0
BBX 26 39 0 0
BITMAP
0000C000
0001E000
0003E000
0007C000
000F0000
000C0000
00000000
0001C000
0003C000
0007E000
000FE000
001C3000
00301000
00000000
000FC000
007FF800
01FC3E00
03F01F00
07E01F00
0FC00F80
1F800F80
3F800FC0
3F000FC0
7F000FC0
7F001FC0
FE001FC0
FE001FC0
FE001FC0
FC003F80
FC003F80
FC003F00
FC007F00
7C007E00
7C00FC00
7E01FC00
3E03F000
1F0FE000
07FF8000
00FC0000
ENDCHAR
STARTCHAR uni1ED1
ENCODING 7889
SWIDTH 574 0
DWIDTH 19 0
BBX 18 30 0 0
BITMAP
000C00
001E00
003E00
007C00
00F000
00C000
000000
001C00
003C00
007E00
00FE00
01C300
030100
000000
03FC00
0FCF00
1F0F80
3F07C0
7E07C0
7E07C0
FC0FC0
FC0FC0
FC0FC0
FC0FC0
F81F80
F81F80
F83F00
7C3E00
3CF800
0FE000
ENDCHAR
STARTCHAR uni1ED2
ENCODING 7890
SWIDTH 833 0
DWIDTH 27 0
BBX 26 39 0 0
BITMAP
00180000
003C0000
003E0000
001F0000
00078000
00018000
00000000
0001C000
0003C000
0007E000
000FE000
001C3000
00301000
00000000
000FC000
007FF800
01FC3E00
03F01F00
07E01F00
0FC00F80
1F800F80
3F800FC0
3F000FC0
7F000FC0
7F001FC0
FE001FC0
FE001FC0
FE001FC0
FC003F80
FC003F80
FC003F00
FC007F00
7C007E00
7C00FC00
7E01FC00
3E03F000
1F0FE000
07FF8000
00FC0000
ENDCHAR
STARTCHAR uni1ED3
ENCODING 7891
SWIDTH 574 0
DWIDTH 19 0
BBX 18 30 0 0
BITMAP
018000
03C000
03E000
01F000
007800
001800
000000
001C00
003C00
007E00
00FE00
01C300
030100
000000
03FC00
0FCF00
1F0F80
3F07C0
7E07C0
7E07C0
FC0FC0
FC0FC0
FC0FC0
FC0FC0
F81F80
F81F80
F83F00
7C3E00
3CF800
0FE000
ENDCHAR
STARTCHAR uni1ED6
ENCODING 7894
SWIDTH 833 0
DWIDTH 27 0
BBX 26 37 0 0
BITMAP
000E3000
001FF000
003FE000
0071C000
00000000
0001C000
0003C000
0007E000
000FE000
001C3000
00301000
00000000
000FC000
007FF800
01FC3E00
03F01F00
07E01F00
0FC00F80
1F800F80
3F800FC0
3F000FC0
7F000FC0
7F001FC0
FE001FC0
FE001FC0
FE001FC0
FC003F80
FC003F80
FC003F00
FC007F00
7C007E00
7C00FC00
7E01FC00
3E03F000
1F0FE000
07FF8000
00FC0000
ENDCHAR
STARTCHAR uni1ED7
ENCODING 7895
SWIDTH 574 0
DWIDTH 19 0
BBX 18 28 0 0
BITMAP
00E300
01FF00
03FE00
071C00
000000
001C00
003C00
007E00
00FE00
01C300
030100
000000
03FC00
0FCF00
1F0F80
3F07C0
7E07C0
7E07C0
FC0FC0
FC0FC0
FC0FC0
FC0FC0
F81F80
F81F80
F83F00
7C3E00
3CF800
0FE000
ENDCHAR
STARTCHAR uni1ED8
ENCODING 7896
SWIDTH 833 0
DWIDTH 27 0
BBX 26 38 0 -6
BITMAP
00038000
00078000
000FC000
001FC000
00386000
00602000
00000000
000FC000
007FF800
01FC3E00
03F01F00
07E01F00
0FC00F80
1F800F80
3F800FC0
3F000FC0
7F000FC0
7F001FC0
FE001FC0
FE001FC0
FE001FC0
FC003F80
FC003F80
FC003F00
FC007F00
7C007E00
7C00FC00
7E01FC00
3E03F000
1F0FE000
07FF8000
00FC0000
00000000
001C0000
003E0000
003E0000
003E0000
001C0000
ENDCHAR
STARTCHAR uni1ED9
ENCODING 7897
SWIDTH 574 0
DWIDTH 19 0
BBX 18 29 0 -6
BITMAP
003800
007800
00FC00
01FC00
038600
060200
000000
03FC00
0FCF00
1F0F80
3F07C0
7E07C0
7E07C0
FC0FC0
FC0FC0
FC0FC0
FC0FC0
F81F80
F81F80
F83F00
7C3E00
3CF800
0FE000
000000
01C000
03E000
03E000
03E000
01C000
ENDCHAR
STARTCHAR uni1EDA
ENCODING 7898
SWIDTH 833 0
DWIDTH 27 0
BBX 31 32 0 0
BITMAP
00001800
00003C00
00007C00
0000F800
0001E000
00018000
00000000
000FC01C
007FF83E
01FC3E7E
03F01F7E
07E01F7E
0FC00FBC
1F800F8C
3F800FD8
3F000FF0
7F000FE0
7F001FC0
FE001FC0
FE001FC0
FE001FC0
FC003F80
FC003F80
FC003F00
FC007F00
7C007E00
7C00FC00
7E01FC00
3E03F000
1F0FE000
07FF8000
00FC0000
ENDCHAR
STARTCHAR uni1EDB
ENCODING 7899
SWIDTH 574 0
DWIDTH 19 0
BBX 24 23 0 0
BITMAP
000180
0003C0
0007C0
000F80
001E00
001800
000000
03FC0E
0FCF1F
1F0FBF
3F07FF
7E07FF
7E07DE
FC0FC6
FC0FCC
FC0FD8
FC0FF0
F81FE0
F81FC0
F83F00
7C3E00
3CF800
0FE000
ENDCHAR
STARTCHAR uni1EDC
ENCODING 7900
SWIDTH 833 0
DWIDTH 27 0
BBX 31 32 0 0
BITMAP
00030000
00078000
0007C000
0003E000
0000F000
00003000
00000000
000FC01C
007FF83E
01FC3E7E
03F01F7E
07E01F7E
0FC00FBC
1F800F8C
3F800FD8
3F000FF0
7F000FE0
7F001FC0
FE001FC0
FE001FC0
FE001FC0
FC003F80
FC003F80
FC003F00
FC007F00
7C007E00
7C00FC00
7E01FC00
3E03F000
1F0FE000
07FF8000
00FC0000
ENDCHAR
STARTCHAR uni1EDD
ENCODING 7901
SWIDTH 574 0
DWIDTH 19 0
BBX 24 23 0 0
BITMAP
006000
00F000
00F800
007C00
001E00
000600
000000
03FC0E
0FCF1F
1F0FBF
3F07FF
7E07FF
7E07DE
FC0FC6
FC0FCC
FC0FD8
FC0FF0
F81FE0
F81FC0
F83F00
7C3E00
3CF800
0FE000
ENDCHAR
STARTCHAR uni1EE0
ENCODING 7904
SWIDTH 833 0
DWIDTH 27 0
BBX 31 30 0 0
BITMAP
0001C600
0003FE00
0007FC00
000E3800
00000000
000FC01C
007FF83E
01FC3E7E
03F01F7E
07E01F7E
0FC00FBC
1F800F8C
3F800FD8
3F000FF0
7F000FE0
7F001FC0
FE001FC0
FE001FC0
FE001FC0
FC003F80
FC003F80
FC003F00
FC007F00
7C007E00
7C00FC00
7E01FC00
3E03F000
1F0FE000
07FF8000
00FC0000
ENDCHAR
STARTCHAR uni1EE1
ENCODING 7905
SWIDTH 574 0
DWIDTH 19 0
BBX 24 21 0 0
BITMAP
001C60
003FE0
007FC0
00E380
000000
03FC0E
0FCF1F
1F0FBF
3F07FF
7E07FF
7E07DE
FC0FC6
FC0FCC
FC0FD8
FC0FF0
F81FE0
F81FC0
F83F00
7C3E00
3CF800
0FE000
ENDCHAR
STARTCHAR uni1EE2
ENCODING 7906
SWIDTH 833 0
DWIDTH 27 0
BBX 31 31 0 -6
BITMAP
000FC01C
007FF83E
01FC3E7E
03F01F7E
07E01F7E
0FC00FBC
1F800F8C
3F800FD8
3F000FF0
7F000FE0
7F001FC0
FE001FC0
FE001FC0
FE001FC0
FC003F80
FC003F80
FC003F00
FC007F00
7C007E00
7C00FC00
7E01FC00
3E03F000
1F0FE000
07FF8000
00FC0000
00000000
001C0000
003E0000
003E0000
003E0000
001C0000
ENDCHAR
STARTCHAR uni1EE3
ENCODING 7907
SWIDTH 574 0
DWIDTH 19 0
BBX 24 22 0 -6
BITMAP
03FC0E
0FCF1F
1F0FBF
3F07FF
7E07FF
7E07DE
FC0FC6
FC0FCC
FC0FD8
FC0FF0
F81FE0
F81FC0
F83F00
7C3E00
3CF800
0FE000
000000
00E000
01F000
01F000
01F000
00E000
ENDCHAR
STARTCHAR uni1EE4
ENCODING 7908
SWIDTH 833 0
DWIDTH 27 0
BBX 27 31 2 -6
BITMAP
7FF83FE0
7FF83FE0
1FC00F80
1FC00700
1F800600
1F800600
1F800E00
3F000C00
3F000C00
3F000C00
3F001C00
7E001800
7E001800
7E003800
7E003000
FC003000
FC003000
FC007000
FC006000
FC00E000
7C00C000
7E01C000
3F078000
1FFF0000
07F80000
00000000
00700000
00F80000
00F80000
00F80000
00700000
ENDCHAR
STARTCHAR uni1EE5
ENCODING 7909
SWIDTH 685 0
DWIDTH 21 0
BBX 20 22 0 -6
BITMAP
1F83E0
7F87E0
1F07C0
1F07C0
3F0FC0
3E0F80
3E0F80
7E1F80
7C1F00
7C3F00
7C3F30
F87E70
F9FEE0
FFBFC0
7F3F80
3C1E00
000000
00E000
01F000
01F000
01F000
00E000
ENDCHAR
STARTCHAR uni1EE8
ENCODING 7912
SWIDTH 833 0
DWIDTH 27 0
BBX 32 32 2 0
BITMAP
00003000
00007800
0000F800
0001F000
0003C000
00030000
00000000
7FF83FEE
7FF83FFF
1FC00FBF
1FC0073F
1F80063F
1F80061E
1F800E06
3F000C0C
3F000C18
3F000C30
3F001C60
7E0018C0
7E001800
7E003800
7E003000
FC003000
FC003000
FC007000
FC006000
FC00E000
7C00C000
7E01C000
3F078000
1FFF0000
07F80000
ENDCHAR
STARTCHAR uni1EE9
ENCODING 7913
SWIDTH 685 0
DWIDTH 21 0
BBX 26 23 0 0
BITMAP
0000C000
0001E000
0003E000
0007C000
000F0000
000C0000
00000000
1F83E380
7F87E7C0
1F07CFC0
1F07CFC0
3F0FCFC0
3E0F8780
3E0F8180
7E1F8300
7C1F0600
7C3F0C00
7C3F3800
F87E7000
F9FEE000
FFBFC000
7F3F8000
3C1E0000
ENDCHAR
STARTCHAR uni1EEA
ENCODING 7914
SWIDTH 833 0
DWIDTH 27 0
BBX 32 32 2 0
BITMAP
00060000
000F0000
000F8000
0007C000
0001E000
00006000
00000000
7FF83FEE
7FF83FFF
1FC00FBF
1FC0073F
1F80063F
1F80061E
1F800E06
3F000C0C
3F000C18
3F000C30
3F001C60
7E0018C0
7E001800
7E003800
7E003000
FC003000
FC003000
FC007000
FC006000
FC00E000
7C00C000
7E01C000
3F078000
1FFF0000
07F80000
ENDCHAR
STARTCHAR uni1EEB
ENCODING 7915
SWIDTH 685 0
DWIDTH 21 0
BBX 26 23 0 0
BITMAP
00300000
00780000
007C0000
003E0000
000F0000
00030000
00000000
1F83E380
7F87E7C0
1F07CFC0
1F07CFC0
3F0FCFC0
3E0F8780
3E0F8180
7E1F8300
7C1F0600
7C3F0C00
7C3F3800
F87E7000
F9FEE000
FFBFC000
7F3F8000
3C1E0000
ENDCHAR
STARTCHAR uni1EEE
ENCODING 7918
SWIDTH 833 0
DWIDTH 27 0
BBX 32 30 2 0
BITMAP
00038C00
0007FC00
000FF800
001C7000
00000000
7FF83FEE
7FF83FFF
1FC00FBF
1FC0073F
1F80063F
1F80061E
1F800E06
3F000C0C
3F000C18
3F000C30
3F001C60
7E0018C0
7E001800
7E003800
7E003000
FC003000
FC003000
FC007000
FC006000
FC00E000
7C00C000
7E01C000
3F078000
1FFF0000
07F80000
ENDCHAR
STARTCHAR uni1EEF
ENCODING 7919
SWIDTH 685 0
DWIDTH 21 0
BBX 26 21 0 0
BITMAP
000E3000
001FF000
003FE000
0071C000
00000000
1F83E380
7F87E7C0
1F07CFC0
1F07CFC0
3F0FCFC0
3E0F8780
3E0F8180
7E1F8300
7C1F0600
7C3F0C00
7C3F3800
F87E7000
F9FEE000
FFBFC000
7F3F8000
3C1E0000
ENDCHAR
STARTCHAR uni1EF0
ENCODING 7920
SWIDTH 833 0
DWIDTH 27 0
BBX 32 31 2 -6
BITMAP
7FF83FEE
7FF83FFF
1FC00FBF
1FC0073F
1F80063F
1F80061E
1F800E06
3F000C0C
3F000C18
3F000C30
3F001C60
7E0018C0
7E001800
7E003800
7E003000
FC003000
FC003000
FC007000
FC006000
FC00E000
7C00C000
7E01C000
3F078000
1FFF0000
07F80000
00000000
00700000
00F80000
00F80000
00F80000
00700000
ENDCHAR
STARTCHAR uni1EF1
ENCODING 7921
SWIDTH 685 0
DWIDTH 21 0
BBX 26 22 0 -6
BITMAP
1F83E380
7F87E7C0
1F07CFC0
1F07CFC0
3F0FCFC0
3E0F8780
3E0F8180
7E1F8300
7C1F0600
7C3F0C00
7C3F3800
F87E7000
F9FEE000
FFBFC000
7F3F8000
3C1E0000
00000000
00700000
00F80000
00F80000
00F80000
00700000
ENDCHAR
STARTCHAR Ygrave
ENCODING 7922
SWIDTH 704 0
DWIDTH 23 0
BBX 25 32 1 0
BITMAP
00C00000
01E00000
01F00000
00F80000
003C0000
000C0000
00000000
FFF1FF80
FFF1FF80
3F803E00
1F803800
1F807000
0FC07000
0FC0E000
0FC1C000
07E18000
07E38000
03F70000
03FE0000
03FC0000
01FC0000
01F80000
01F80000
03F00000
03F00000
03F00000
03F00000
07E00000
07E00000
07E00000
7FFE0000
7FFE0000
ENDCHAR
STARTCHAR ygrave
ENCODING 7923
SWIDTH 519 0
DWIDTH 18 0
BBX 19 30 -2 -7
BITMAP
018000
03C000
03E000
01F000
007800
001800
000000
0781C0
0FC3E0
0FE3E0
1FE1E0
1BE1C0
33F1C0
31F180
01F180
01F100
00FB00
00FA00
00FE00
00FC00
007C00
007800
007800
003000
006000
70C000
F9C000
FB8000
7F0000
3C0000
ENDCHAR
STARTCHAR uni1EF4
ENCODING 7924
SWIDTH 704 0
DWIDTH 23 0
BBX 25 31 1 -6
BITMAP
FFF1FF80
FFF1FF80
3F803E00
1F803800
1F807000
0FC07000
0FC0E000
0FC1C000
07E18000
07E38000
03F70000
03FE0000
03FC0000
01FC0000
01F80000
01F80000
03F00000
03F00000
03F00000
03F00000
07E00000
07E00000
07E00000
7FFE0000
7FFE0000
00000000
00E00000
01F00000
01F00000
01F00000
00E00000
ENDCHAR
STARTCHAR uni1EF5
ENCODING 7925
SWIDTH 519 0
DWIDTH 18 0
BBX 19 29 -2 -13
BITMAP
0781C0
0FC3E0
0FE3E0
1FE1E0
1BE1C0
33F1C0
31F180
01F180
01F100
00FB00
00FA00
00FE00
00FC00
007C00
007800
007800
003000
006000
70C000
F9C000
FB8000
7F0000
3C0000
000000
070000
0F8000
0F8000
0F8000
070000
ENDCHAR
STARTCHAR uni1EF8
ENCODING 7928
SWIDTH 704 0
DWIDTH 23 0
BBX 25 30 1 0
BITMAP
0038C000
007FC000
00FF8000
01C70000
00000000
FFF1FF80
FFF1FF80
3F803E00
1F803800
1F807000
0FC07000
0FC0E000
0FC1C000
07E18000
07E38000
03F70000
03FE0000
03FC0000
01FC0000
01F80000
01F80000
03F00000
03F00000
03F00000
03F00000
07E00000
07E00000
07E00000
7FFE0000
7FFE0000
ENDCHAR
STARTCHAR uni1EF9
ENCODING 7929
SWIDTH 519 0
DWIDTH 18 0
BBX 19 28 -2 -7
BITMAP
00E300
01FF00
03FE00
071C00
000000
0781C0
0FC3E0
0FE3E0
1FE1E0
1BE1C0
33F1C0
31F180
01F180
01F100
00FB00
00FA00
00FE00
00FC00
007C00
007800
007800
003000
006000
70C000
F9C000
FB8000
7F0000
3C0000
ENDCHAR
STARTCHAR uni2000
ENCODING 8192
SWIDTH 500 0
DWIDTH 17 0
BBX 1 1 0 0
BITMAP
00
ENDCHAR
STARTCHAR uni2001
ENCODING 8193
SWIDTH 1000 0
DWIDTH 33 0
BBX 1 1 0 0
BITMAP
00
ENDCHAR
STARTCHAR uni2002
ENCODING 8194
SWIDTH 500 0
DWIDTH 17 0
BBX 1 1 0 0
BITMAP
00
ENDCHAR
STARTCHAR uni2003
ENCODING 8195
SWIDTH 1000 0
DWIDTH 33 0
BBX 1 1 0 0
BITMAP
00
ENDCHAR
STARTCHAR uni2004
ENCODING 8196
SWIDTH 333 0
DWIDTH 11 0
BBX 1 1 0 0
BITMAP
00
ENDCHAR
STARTCHAR uni2005
ENCODING 8197
SWIDTH 250 0
DWIDTH 8 0
BBX 1 1 0 0
BITMAP
00
ENDCHAR
STARTCHAR uni2006
ENCODING 8198
SWIDTH 167 0
DWIDTH 6 0
BBX 1 1 0 0
BITMAP
00
ENDCHAR
STARTCHAR uni2007
ENCODING 8199
SWIDTH 574 0
DWIDTH 19 0
BBX 1 1 0 0
BITMAP
00
ENDCHAR
STARTCHAR uni2008
ENCODING 8200
SWIDTH 287 0
DWIDTH 9 0
BBX 1 1 0 0
BITMAP
00
ENDCHAR
STARTCHAR uni2009
ENCODING 8201
SWIDTH 200 0
DWIDTH 7 0
BBX 1 1 0 0
BITMAP
00
ENDCHAR
STARTCHAR uni200A
ENCODING 8202
SWIDTH 100 0
DWIDTH 3 0
BBX 1 1 0 0
BITMAP
00
ENDCHAR
STARTCHAR uni200B
ENCODING 8203
SWIDTH 0 0
DWIDTH 0 0
BBX 1 1 0 0
BITMAP
00
ENDCHAR
STARTCHAR uni2010
ENCODING 8208
SWIDTH 333 0
DWIDTH 11 0
BBX 9 4 0 6
BITMAP
7F80
7F80
FF00
FF00
ENDCHAR
STARTCHAR uni2011
ENCODING 8209
SWIDTH 333 0
DWIDTH 11 0
BBX 9 4 0 6
BITMAP
7F80
7F80
FF00
FF00
ENDCHAR
STARTCHAR figuredash
ENCODING 8210
SWIDTH 500 0
DWIDTH 16 0
BBX 16 3 0 6
BITMAP
FFFF
FFFF
FFFF
ENDCHAR
STARTCHAR endash
ENCODING 8211
SWIDTH 500 0
DWIDTH 16 0
BBX 16 3 0 6
BITMAP
FFFF
FFFF
FFFF
ENDCHAR
STARTCHAR emdash
ENCODING 8212
SWIDTH 1000 0
DWIDTH 32 0
BBX 32 3 0 6
BITMAP
FFFFFFFF
FFFFFFFF
FFFFFFFF
ENDCHAR
STARTCHAR afii00208
ENCODING 8213
SWIDTH 1000 0
DWIDTH 32 0
BBX 32 3 0 6
BITMAP
FFFFFFFF
FFFFFFFF
FFFFFFFF
ENDCHAR
STARTCHAR quoteleft
ENCODING 8216
SWIDTH 259 0
DWIDTH 9 0
BBX 8 12 1 13
BITMAP
03
06
0C
18
30
60
78
FC
FC
FC
F8
70
ENDCHAR
STARTCHAR quoteright
ENCODING 8217
SWIDTH 259 0
DWIDTH 9 0
BBX 8 12 2 13
BITMAP
0E
1F
3F
3F
3F
1E
06
0C
18
30
60
C0
ENDCHAR
STARTCHAR quotesinglbase
ENCODING 8218
SWIDTH 259 0
DWIDTH 9 0
BBX 8 12 -2 -6
BITMAP
0E
1F
3F
3F
3F
1E
06
0C
18
30
60
C0
ENDCHAR
STARTCHAR quotereversed
ENCODING 8219
SWIDTH 259 0
DWIDTH 9 0
BBX 8 12 2 13
BITMAP
70
F8
FC
FC
FC
78
60
30
18
0C
06
03
ENDCHAR
STARTCHAR quotedblleft
ENCODING 8220
SWIDTH 481 0
DWIDTH 16 0
BBX 15 12 2 13
BITMAP
0306
060C
0C18
1830
3060
60C0
78F0
FDF8
FDF8
FDF8
F9F0
70E0
ENDCHAR
STARTCHAR quotedblright
ENCODING 8221
SWIDTH 481 0
DWIDTH 16 0
BBX 15 12 1 13
BITMAP
0E1C
1F3E
3F7E
3F7E
3F7E
1E3C
060C
0C18
1830
3060
60C0
C180
ENDCHAR
STARTCHAR quotedblbase
ENCODING 8222
SWIDTH 481 0
DWIDTH 16 0
BBX 16 12 -2 -6
BITMAP
0E0E
1F1F
3F3F
3F3F
3F3F
1E1E
0606
0C0C
1818
3030
6060
C0C0
ENDCHAR
STARTCHAR uni201F
ENCODING 8223
SWIDTH 481 0
DWIDTH 16 0
BBX 15 12 1 13
BITMAP
70E0
F9F0
FDF8
FDF8
FDF8
78F0
60C0
3060
1830
0C18
060C
0306
ENDCHAR
STARTCHAR dagger
ENCODING 8224
SWIDTH 500 0
DWIDTH 16 0
BBX 15 29 1 -4
BITMAP
00C0
01E0
01E0
01C0
0180
0180
0100
731C
FFFE
731C
0200
0600
0700
0F00
1F00
1E00
1E00
1C00
1C00
1800
1800
1800
1000
3000
3000
2000
2000
6000
6000
ENDCHAR
STARTCHAR daggerdbl
ENCODING 8225
SWIDTH 500 0
DWIDTH 17 0
BBX 19 30 -2 -5
BITMAP
000C00
001E00
001E00
001C00
001C00
001800
001800
0F13C0
1FFFE0
0F33C0
002000
006000
006000
00F000
01F000
01F000
01E000
01C000
01C000
018000
799E00
FFFF00
791E00
030000
030000
070000
070000
0F0000
0F0000
060000
ENDCHAR
STARTCHAR bullet
ENCODING 8226
SWIDTH 606 0
DWIDTH 20 0
BBX 11 11 4 7
BITMAP
1F00
7FC0
7FC0
FFE0
FFE0
FFE0
FFE0
FFE0
7FC0
7FC0
1F00
ENDCHAR
STARTCHAR ellipsis
ENCODING 8230
SWIDTH 1000 0
DWIDTH 33 0
BBX 28 5 1 0
BITMAP
780F01E0
FC1F83F0
FC1F83F0
FC1F83F0
780F01E0
ENDCHAR
STARTCHAR perthousand
ENCODING 8240
SWIDTH 1167 0
DWIDTH 39 0
BBX 38 25 0 -1
BITMAP
0000180000
07E0300000
1F30F00000
3E1FE00000
3C1E600000
7C10C00000
7810800000
F831800000
F021000000
F063000000
F0C6000000
7984000000
1F0C3F01F8
00087983CC
0018F08784
0031E08F04
0033E09F04
0063C09E04
0047C1BE0C
00C7813C08
0187833C18
0187863C30
0303CC1E60
0200F80FC0
0600000000
ENDCHAR
STARTCHAR guilsinglleft
ENCODING 8249
SWIDTH 278 0
DWIDTH 9 0
BBX 9 11 -1 2
BITMAP
0180
0700
0E00
3C00
7800
F000
7000
3800
1C00
0C00
0600
ENDCHAR
STARTCHAR guilsinglright
ENCODING 8250
SWIDTH 278 0
DWIDTH 9 0
BBX 9 11 0 2
BITMAP
3000
1800
1C00
0E00
0F00
0780
0F00
1E00
3800
7000
C000
ENDCHAR
STARTCHAR fraction
ENCODING 8260
SWIDTH 167 0
DWIDTH 6 0
BBX 15 23 -5 0
BITMAP
0006
000E
001C
001C
0038
0038
0070
00E0
00E0
01C0
0180
0380
0700
0700
0E00
0C00
1C00
3800
3800
7000
7000
E000
C000
ENDCHAR
STARTCHAR oneinferior
ENCODING 8321
SWIDTH 344 0
DWIDTH 11 0
BBX 10 14 1 -7
BITMAP
03C0
1FC0
0380
0780
0780
0700
0700
0F00
0E00
0E00
1E00
1E00
1E00
FF80
ENDCHAR
STARTCHAR twoinferior
ENCODING 8322
SWIDTH 344 0
DWIDTH 11 0
BBX 12 14 0 -7
BITMAP
0FC0
19E0
30F0
38F0
3CF0
19E0
03C0
0780
0E00
1C20
3860
7FC0
FFC0
FF80
ENDCHAR
STARTCHAR threeinferior
ENCODING 8323
SWIDTH 344 0
DWIDTH 11 0
BBX 11 14 0 -7
BITMAP
1F80
39C0
38E0
39E0
01E0
03C0
0F00
0380
01C0
E1C0
E3C0
E3C0
E780
7E00
ENDCHAR
STARTCHAR uni20A5
ENCODING 8357
SWIDTH 944 0
DWIDTH 30 0
BBX 29 25 0 -4
BITMAP
00007000
0000E000
0000E000
0000E000
0001C000
0F87C380
7F9FCFC0
1F7FDFE0
1FE7F3E0
1FC7E3E0
1F87C3E0
3F0FC7C0
3F0F87C0
3E0F87C0
7E1F07C0
7C1F0F98
7C1F0F98
7C1F0FB0
F83E0FE0
F83E0FC0
F83E0700
00380000
00700000
00700000
00700000
ENDCHAR
STARTCHAR uni20A6
ENCODING 8358
SWIDTH 852 0
DWIDTH 28 0
BBX 33 25 -2 0
BITMAP
07FC01FF80
07FE01FF80
007E003C00
007F003800
007F003800
00FF803800
00DF803000
00DFC03000
00FFFFB000
01FFFFF000
01FFFFE000
0187F06000
0183F0E000
0383F8C000
03FFFFC000
03FFFFC000
07FFFFC000
06007F8000
06007F8000
06003F8000
0E003F8000
0E001F0000
1F001F0000
FFC00F0000
FFC00F0000
ENDCHAR
STARTCHAR uni20A9
ENCODING 8361
SWIDTH 944 0
DWIDTH 30 0
BBX 32 25 0 0
BITMAP
FFCFFCFF
FFCFFCFF
3F03F03C
3F01F038
1F01F030
1F03F070
1F03F060
1F07F060
1FFFFFE0
1FFFFFC0
0FFFFFC0
0F8CF980
0F9CF980
0FD8FB80
0FFFFF80
0FFFFF80
0FFFFF80
07E07E00
07E07E00
07C07C00
07C07C00
07807800
07807800
07807000
03003000
ENDCHAR
STARTCHAR Euro
ENCODING 8364
SWIDTH 759 0
DWIDTH 24 0
BBX 27 25 -2 0
BITMAP
0003F020
001FFC60
003F0EE0
00FC03E0
01F803C0
03F001C0
07F001C0
07E001C0
FFFF8180
FFFF8180
FFFF8000
1FC00000
1FC00000
1FC00000
FFFF8000
FFFF8000
FFFF8000
1F800000
1F800300
0FC00600
0FC00E00
07E01C00
03F87800
01FFF000
003FC000
ENDCHAR
STARTCHAR uni20AD
ENCODING 8365
SWIDTH 778 0
DWIDTH 26 0
BBX 29 25 -1 0
BITMAP
07FF9FF8
07FF9FF8
00FE07C0
00FC0780
00FC0E00
01F81C00
01F83800
01F87000
01F8E000
03F1C000
03F3C000
FFFFFFF8
FFFFFFF8
07FFE000
07FBF000
07F3F000
07E3F800
0FC1F800
0FC1FC00
0FC0FC00
0F80FC00
1F807E00
1F807F00
FFF3FFC0
FFF3FFC0
ENDCHAR
STARTCHAR uni2103
ENCODING 8451
SWIDTH 1139 0
DWIDTH 36 0
BBX 35 25 2 0
BITMAP
000003F020
00001FFC60
1E003F0EE0
7F80FC03E0
E1C1F803C0
C0C3F001C0
C0C7F001C0
C0C7E001C0
E1CFE00180
7F8FE00180
1E0FC00000
001FC00000
001FC00000
001FC00000
001F800000
001F800000
001F800000
001F800000
001F800300
000FC00600
000FC00E00
0007E01C00
0003F87800
0001FFF000
00003FC000
ENDCHAR
STARTCHAR uni2109
ENCODING 8457
SWIDTH 1084 0
DWIDTH 35 0
BBX 35 25 2 0
BITMAP
0003FFFFE0
0003FFFFE0
1E007F07E0
7F807E03C0
E1C07E01C0
C0C07E01C0
C0C0FC01C0
C0C0FC1980
E1C0FC1980
7F80FC3800
1E01F8F000
0001FFF000
0001FFF000
0001F1E000
0003F0E000
0003F0E000
0003F0E000
0007E0C000
0007E0C000
0007E00000
0007E00000
000FC00000
000FC00000
007FFC0000
007FFC0000
ENDCHAR
STARTCHAR trademark
ENCODING 8482
SWIDTH 950 0
DWIDTH 32 0
BBX 32 14 1 11
BITMAP
FFFBF03F
C718F03C
C708F07C
8708B87C
0700B85C
0700BCDC
07009C9C
07009F9C
07008F9C
07008F1C
07008F1C
0700861C
0700861C
1FC3E67F
ENDCHAR
STARTCHAR uni212A
ENCODING 8490
SWIDTH 778 0
DWIDTH 26 0
BBX 29 25 -1 0
BITMAP
07FF9FF8
07FF9FF8
00FE07C0
00FC0780
00FC0E00
01F81C00
01F83800
01F87000
01F8E000
03F1C000
03F3C000
03F7C000
03FFE000
07FFE000
07FBF000
07F3F000
07E3F800
0FC1F800
0FC1FC00
0FC0FC00
0F80FC00
1F807E00
1F807F00
FFF3FFC0
FFF3FFC0
ENDCHAR
STARTCHAR uni212B
ENCODING 8491
SWIDTH 741 0
DWIDTH 24 0
BBX 27 32 -3 0
BITMAP
00007000
0000F800
00018C00
00018C00
0000F800
00007000
00000000
00006000
0000F000
0001F000
0001F000
0003F000
0003F000
0007F800
000FF800
000DF800
001DF800
0019F800
0038FC00
0070FC00
0070FC00
00E0FC00
00E0FC00
01FFFE00
01FFFE00
03807E00
07007E00
0F007E00
0E003F00
3E003F00
FFC3FFE0
FFC3FFE0
ENDCHAR
STARTCHAR uni2132
ENCODING 8498
SWIDTH 704 0
DWIDTH 23 0
BBX 26 25 -1 0
BITMAP
0007FFC0
0007FFC0
00007E00
00007E00
0000FC00
0000FC00
0060FC00
0060FC00
00E1F800
00E1F800
00E1F800
00F1F000
01FFF000
01FFF000
01E3F000
0387E000
3307E000
3307E000
7007E000
700FC000
700FC000
780FC000
FC1FC000
FFFFF800
FFFFF800
ENDCHAR
STARTCHAR minus
ENCODING 8722
SWIDTH 606 0
DWIDTH 20 0
BBX 17 3 1 7
BITMAP
FFFF80
FFFF80
FFFF80
ENDCHAR
STARTCHAR fraction
ENCODING 8725
SWIDTH 167 0
DWIDTH 6 0
BBX 15 23 -5 0
BITMAP
0006
000E
001C
001C
0038
0038
0070
00E0
00E0
01C0
0180
0380
0700
0700
0E00
0C00
1C00
3800
3800
7000
7000
E000
C000
ENDCHAR
STARTCHAR periodcentered
ENCODING 8729
SWIDTH 287 0
DWIDTH 9 0
BBX 6 5 1 6
BITMAP
78
FC
FC
FC
78
ENDCHAR
STARTCHAR uni2236
ENCODING 8758
SWIDTH 287 0
DWIDTH 9 0
BBX 9 16 0 0
BITMAP
0F00
1F80
1F80
1F80
0F00
0000
0000
0000
0000
0000
0000
7800
FC00
FC00
FC00
7800
ENDCHAR
STARTCHAR uni2259
ENCODING 8793
SWIDTH 606 0
DWIDTH 20 0
BBX 17 16 1 4
BITMAP
007000
00F000
01F800
03F800
070C00
0C0400
000000
FFFF80
FFFF80
FFFF80
000000
000000
000000
FFFF80
FFFF80
FFFF80
ENDCHAR
STARTCHAR uni225A
ENCODING 8794
SWIDTH 606 0
DWIDTH 20 0
BBX 17 16 1 4
BITMAP
080C00
0C3800
07F000
07E000
03C000
038000
000000
FFFF80
FFFF80
FFFF80
000000
000000
000000
FFFF80
FFFF80
FFFF80
ENDCHAR
STARTCHAR notequal
ENCODING 8800
SWIDTH 606 0
DWIDTH 20 0
BBX 17 25 1 -4
BITMAP
001C00
003800
003800
003800
007000
007000
007000
00E000
FFFF80
FFFF80
FFFF80
01C000
01C000
038000
FFFF80
FFFF80
FFFF80
070000
070000
0E0000
0E0000
0E0000
1C0000
1C0000
1C0000
ENDCHAR
STARTCHAR equivalence
ENCODING 8801
SWIDTH 606 0
DWIDTH 20 0
BBX 17 8 0 4
BITMAP
FFFF80
FFFF80
000000
FFFF80
FFFF80
000000
FFFF80
FFFF80
ENDCHAR
STARTCHAR uni2262
ENCODING 8802
SWIDTH 606 0
DWIDTH 20 0
BBX 17 25 0 -4
BITMAP
001C00
003800
003800
003800
007000
007000
007000
00E000
00E000
FFFF80
FFFF80
01C000
FFFF80
FFFF80
038000
FFFF80
FFFF80
070000
070000
0E0000
0E0000
0E0000
1C0000
1C0000
1C0000
ENDCHAR
STARTCHAR lessequal
ENCODING 8804
SWIDTH 606 0
DWIDTH 20 0
BBX 17 20 1 -3
BITMAP
000180
000780
001F80
00FF00
03FC00
0FE000
7F8000
FE0000
F00000
FE0000
7F8000
0FE000
03FC00
00FF00
001F80
000780
000180
000000
FFFF80
FFFF80
ENDCHAR
STARTCHAR greaterequal
ENCODING 8805
SWIDTH 606 0
DWIDTH 20 0
BBX 17 20 1 -3
BITMAP
C00000
F00000
FC0000
7F8000
1FE000
03F800
00FF00
003F80
000780
003F80
00FF00
03F800
1FE000
7F8000
FC0000
F00000
C00000
000000
FFFF80
FFFF80
ENDCHAR
STARTCHAR uni226E
ENCODING 8814
SWIDTH 606 0
DWIDTH 20 0
BBX 17 25 1 -4
BITMAP
001C00
003800
003800
003800
007180
007780
007F80
00FF00
03FC00
0FE000
7FC000
FFC000
F1C000
FF8000
7F8000
0FE000
07FC00
07FF00
071F80
0E0780
0E0180
0E0000
1C0000
1C0000
1C0000
ENDCHAR
STARTCHAR uni226F
ENCODING 8815
SWIDTH 606 0
DWIDTH 20 0
BBX 17 25 1 -4
BITMAP
001C00
003800
003800
003800
C07000
F07000
FC7000
7FE000
1FE000
03F800
01FF00
01FF80
01C780
03BF80
03FF00
03F800
1FE000
7F8000
FF0000
FE0000
CE0000
0E0000
1C0000
1C0000
1C0000
ENDCHAR
STARTCHAR uni2270
ENCODING 8816
SWIDTH 606 0
DWIDTH 20 0
BBX 17 25 1 -5
BITMAP
001C00
003800
003800
003980
007780
007F80
00FF00
03FC00
0FE000
7FE000
FFC000
F1C000
FFC000
7F8000
0FE000
03FC00
07FF00
071F80
070780
0E0180
0E0000
FFFF80
FFFF80
1C0000
1C0000
ENDCHAR
STARTCHAR uni2271
ENCODING 8817
SWIDTH 606 0
DWIDTH 20 0
BBX 17 25 1 -5
BITMAP
001C00
003800
003800
C03800
F07000
FC7000
7FF000
1FE000
03F800
00FF00
01FF80
01C780
01FF80
03FF00
03F800
1FE000
7F8000
FF0000
F70000
CE0000
0E0000
FFFF80
FFFF80
1C0000
1C0000
ENDCHAR
ENDFONT
